<svg width="924" height="274" viewBox="0 0 924 274" fill="none" xmlns="http://www.w3.org/2000/svg">
<path d="M888.889 273.947H34.1881C15.3848 273.947 0 258.537 0 239.703V34.2435C0 15.4095 15.3845 0 34.1881 0H888.888C907.692 0 923.077 15.4095 923.077 34.2435V239.703C923.077 258.537 907.692 273.947 888.888 273.947" fill="black"/>
<path d="M888.889 0H34.1881C15.3848 0 0 15.4095 0 34.2435V239.703C0 258.537 15.3845 273.947 34.1881 273.947H888.888C907.692 273.947 923.077 258.537 923.077 239.703V34.2435C923.077 15.4095 907.692 0 888.888 0M888.888 5.47876C904.725 5.47876 917.606 18.3846 917.606 34.2435V239.703C917.606 255.565 904.724 268.471 888.888 268.471H34.1881C18.3551 268.471 5.47014 255.565 5.47014 239.703V34.2435C5.47014 18.3846 18.3548 5.47907 34.1881 5.47907H888.888" fill="#A6A6A6"/>
<path d="M365.221 211.794H349.429L340.778 184.619H310.71L302.47 211.794H287.095L316.892 119.278H335.292L365.221 211.794V211.794ZM338.171 173.218L330.348 149.06C329.52 146.592 327.963 140.78 325.682 131.631H325.404C324.486 135.566 323.019 141.378 321.009 149.06L313.318 173.218H338.171ZM441.698 177.618C441.698 188.964 438.618 197.932 432.45 204.515C426.928 210.376 420.065 213.302 411.881 213.302C403.042 213.302 396.687 210.153 392.827 203.841V238.844H378.002V167.01C378.002 159.884 377.814 152.577 377.453 145.083H390.491L391.318 155.657H391.596C396.541 147.69 404.044 143.707 414.113 143.707C421.984 143.707 428.556 146.814 433.813 153.036C439.063 159.272 441.698 167.461 441.698 177.618ZM426.595 178.16C426.595 171.667 425.134 166.314 422.2 162.095C418.994 157.708 414.69 155.511 409.294 155.511C405.636 155.511 402.312 156.735 399.343 159.147C396.367 161.58 394.42 164.757 393.509 168.692C393.102 170.163 392.871 171.678 392.82 173.204V184.334C392.82 189.179 394.308 193.274 397.285 196.625C400.261 199.962 404.127 201.637 408.883 201.637C414.467 201.637 418.813 199.475 421.922 195.186C425.037 190.882 426.595 185.21 426.595 178.16V178.16ZM518.447 177.618C518.447 188.964 515.366 197.932 509.198 204.515C503.67 210.376 496.814 213.302 488.622 213.302C479.784 213.302 473.428 210.153 469.569 203.841V238.844H454.743V167.01C454.743 159.884 454.556 152.577 454.194 145.083H467.232L468.06 155.657H468.338C473.275 147.69 480.778 143.707 490.854 143.707C498.719 143.707 505.29 146.814 510.561 153.036C515.804 159.272 518.447 167.461 518.447 177.618V177.618ZM503.336 178.16C503.336 171.667 501.869 166.314 498.935 162.095C495.729 157.708 491.438 155.511 486.042 155.511C482.385 155.511 479.061 156.735 476.078 159.147C473.101 161.58 471.161 164.757 470.25 168.692C469.798 170.527 469.555 172.022 469.555 173.204V184.334C469.555 189.179 471.05 193.274 474.012 196.625C476.989 199.955 480.855 201.637 485.625 201.637C491.216 201.637 495.562 199.475 498.663 195.186C501.779 190.882 503.336 185.21 503.336 178.16V178.16ZM604.256 185.842C604.256 193.719 601.502 200.122 596.03 205.064C590.008 210.459 581.601 213.163 570.823 213.163C560.865 213.163 552.882 211.245 546.86 207.4L550.288 195.047C556.79 198.898 563.931 200.817 571.706 200.817C577.296 200.817 581.643 199.551 584.744 197.042C587.852 194.525 589.424 191.16 589.424 186.962C589.424 183.201 588.123 180.051 585.571 177.486C583.005 174.928 578.764 172.543 572.804 170.353C556.602 164.312 548.494 155.476 548.494 143.853C548.494 136.261 551.359 130.046 557.075 125.187C562.791 120.334 570.371 117.908 579.8 117.908C588.221 117.908 595.237 119.375 600.807 122.302L597.087 134.384C591.844 131.548 585.926 130.13 579.306 130.13C574.077 130.13 569.974 131.416 567.04 133.974C564.571 136.261 563.319 139.049 563.319 142.358C563.319 146.008 564.745 149.039 567.582 151.416C570.044 153.606 574.536 155.991 581.031 158.549C589 161.761 594.855 165.501 598.603 169.797C602.379 174.094 604.256 179.453 604.256 185.842ZM653.398 156.206H637.057V188.595C637.057 196.833 639.936 200.942 645.707 200.942C648.357 200.942 650.554 200.719 652.293 200.254L652.703 211.509C649.782 212.6 645.937 213.149 641.174 213.149C635.319 213.149 630.743 211.363 627.44 207.789C624.151 204.216 622.496 198.231 622.496 189.805V156.178H612.761V145.055H622.496V132.841L637.057 128.447V145.055H653.398V156.206V156.206ZM726.983 177.889C726.983 188.143 724.048 196.562 718.193 203.146C712.067 209.924 703.917 213.302 693.758 213.302C683.953 213.302 676.158 210.056 670.345 203.57C664.531 197.07 661.625 188.88 661.625 179.002C661.625 168.664 664.629 160.197 670.616 153.613C676.617 147.023 684.697 143.728 694.857 143.728C704.647 143.728 712.512 146.981 718.465 153.474C724.153 159.773 726.983 167.906 726.983 177.889ZM711.615 178.23C711.615 172.119 710.294 166.877 707.645 162.491C704.536 157.193 700.086 154.545 694.321 154.545C688.383 154.545 683.828 157.193 680.727 162.491C678.07 166.877 676.749 172.21 676.749 178.508C676.749 184.626 678.07 189.881 680.727 194.254C683.932 199.551 688.403 202.2 694.196 202.2C699.863 202.2 704.307 199.496 707.519 194.122C710.245 189.631 711.615 184.355 711.615 178.23ZM775.193 158.118C773.651 157.84 772.087 157.702 770.52 157.708C765.305 157.708 761.272 159.668 758.435 163.617C755.973 167.093 754.735 171.487 754.735 176.791V211.794H739.91V166.092C739.923 159.089 739.779 152.087 739.479 145.09H752.392L752.934 157.854H753.345C754.916 153.467 757.378 149.929 760.757 147.28C763.851 144.966 767.609 143.712 771.473 143.707C772.843 143.707 774.081 143.804 775.179 143.978L775.193 158.118V158.118ZM841.497 175.282C841.535 177.535 841.353 179.787 840.955 182.005H796.479C796.646 188.595 798.801 193.642 802.932 197.118C806.68 200.219 811.527 201.776 817.479 201.776C824.064 201.776 830.072 200.733 835.475 198.627L837.798 208.909C831.484 211.662 824.029 213.031 815.428 213.031C805.08 213.031 796.959 209.986 791.048 203.91C785.151 197.827 782.196 189.652 782.196 179.412C782.196 169.359 784.942 160.982 790.443 154.301C796.201 147.169 803.982 143.602 813.773 143.602C823.39 143.602 830.67 147.169 835.614 154.301C839.529 159.953 841.497 166.961 841.497 175.282V175.282ZM827.36 171.438C827.465 167.037 826.491 163.249 824.481 160.044C821.916 155.914 817.966 153.857 812.674 153.857C807.827 153.857 803.878 155.866 800.874 159.898C798.405 163.103 796.938 166.954 796.486 171.424L827.36 171.438Z" fill="white"/>
<path d="M201.551 130.317C201.349 107.911 219.902 97.01 220.75 96.5025C210.243 81.1874 193.957 79.0949 188.234 78.9281C174.556 77.489 161.289 87.1105 154.321 87.1105C147.214 87.1105 136.485 79.0671 124.921 79.3035C110.04 79.5329 96.1181 88.1463 88.4829 101.522C72.7257 128.794 84.4775 168.872 99.5741 190.916C107.126 201.72 115.95 213.767 127.5 213.343C138.8 212.884 143.021 206.148 156.658 206.148C170.169 206.148 174.132 213.343 185.912 213.072C198.039 212.884 205.674 202.227 212.962 191.334C221.689 178.966 225.194 166.772 225.333 166.147C225.055 166.049 201.787 157.165 201.551 130.317V130.317ZM179.299 64.4264C185.376 56.8279 189.535 46.4904 188.381 36C179.584 36.3893 168.583 42.0829 162.248 49.5145C156.644 56.0632 151.637 66.797 152.93 76.8911C162.812 77.628 172.957 71.9066 179.299 64.4264V64.4264Z" fill="white"/>
<path d="M306.434 86.5673C302.311 86.5673 298.743 86.3657 295.774 86.0251V41.2965C299.927 40.6551 304.124 40.339 308.326 40.351C325.328 40.351 333.158 48.7142 333.158 62.3469C333.158 78.0721 323.909 86.5673 306.434 86.5673ZM308.924 46.0863C306.629 46.0863 304.675 46.2254 303.055 46.5591V80.5609C303.931 80.6999 305.614 80.7625 307.978 80.7625C319.118 80.7625 325.46 74.4223 325.46 62.5485C325.46 51.9607 319.723 46.0863 308.924 46.0863V46.0863ZM357.558 86.908C347.976 86.908 341.766 79.7545 341.766 70.0426C341.766 59.9206 348.108 52.7046 358.101 52.7046C367.544 52.7046 373.893 59.5174 373.893 69.5073C373.893 79.7544 367.349 86.908 357.558 86.908ZM357.836 58.0297C352.572 58.0297 349.2 62.9517 349.2 69.8341C349.2 76.5844 352.642 81.5063 357.767 81.5063C362.892 81.5063 366.334 76.2437 366.334 69.695C366.334 63.0212 362.961 58.0297 357.836 58.0297ZM428.535 53.3789L418.278 86.1641H411.596L407.347 71.9266C406.291 68.444 405.411 64.9102 404.712 61.3388H404.573C404.037 64.9121 403.022 68.4924 401.944 71.9266L397.424 86.1641H390.672L381.02 53.3789H388.509L392.223 68.9651C393.099 72.6774 393.836 76.1812 394.448 79.4903H394.587C395.122 76.7304 395.999 73.2822 397.285 69.0346L401.944 53.3859H407.883L412.34 68.7009C413.418 72.4132 414.294 76.056 414.975 79.4972H415.17C415.643 76.1256 416.387 72.5453 417.395 68.7009L421.38 53.3859L428.535 53.3789V53.3789ZM466.294 86.1641H459.007V67.3383C459.007 61.5404 456.781 58.6345 452.394 58.6345C448.075 58.6345 445.106 62.3469 445.106 66.664V86.1641H437.818V62.7501C437.818 59.8511 437.749 56.7436 437.547 53.3719H443.959L444.299 58.4329H444.501C446.462 54.9292 450.44 52.7046 454.897 52.7046C461.781 52.7046 466.301 57.9672 466.301 66.5319L466.294 86.1641V86.1641ZM486.39 86.1641H479.096V38.335H486.39V86.1641ZM512.961 86.908C503.385 86.908 497.169 79.7545 497.169 70.0426C497.169 59.9206 503.511 52.7046 513.496 52.7046C522.946 52.7046 529.288 59.5174 529.288 69.5073C529.295 79.7544 522.745 86.908 512.961 86.908ZM513.232 58.0297C507.968 58.0297 504.595 62.9517 504.595 69.8341C504.595 76.5844 508.044 81.5063 513.155 81.5063C518.287 81.5063 521.722 76.2437 521.722 69.695C521.729 63.0212 518.364 58.0297 513.232 58.0297V58.0297ZM558.021 86.1641L557.493 82.3892H557.298C555.073 85.4272 551.825 86.908 547.709 86.908C541.833 86.908 537.66 82.7924 537.66 77.2587C537.66 69.1667 544.677 64.9816 556.825 64.9816V64.3768C556.825 60.0597 554.537 57.8976 550.017 57.8976C546.784 57.8976 543.947 58.711 541.45 60.3308L539.969 55.5409C543.001 53.65 546.784 52.7046 551.227 52.7046C559.794 52.7046 564.119 57.2233 564.119 66.2677V78.3432C564.119 81.6523 564.266 84.2176 564.592 86.1711L558.021 86.1641V86.1641ZM557.02 69.8341C548.926 69.8341 544.865 71.7945 544.865 76.4453C544.865 79.8865 546.958 81.5689 549.864 81.5689C553.571 81.5689 557.02 78.7395 557.02 74.8951V69.8341V69.8341ZM599.507 86.1641L599.166 80.9015H598.965C596.872 84.878 593.353 86.908 588.437 86.908C580.53 86.908 574.675 79.9561 574.675 70.1747C574.675 59.9206 580.746 52.6976 589.035 52.6976C593.423 52.6976 596.531 54.1784 598.283 57.1538H598.429V38.335H605.724V77.3282C605.724 80.4983 605.8 83.4668 605.995 86.1641H599.507ZM598.429 66.8726C598.429 62.2843 595.391 58.3704 590.752 58.3704C585.349 58.3704 582.046 63.1602 582.046 69.9036C582.046 76.5149 585.474 81.0406 590.606 81.0406C595.189 81.0406 598.429 77.0571 598.429 72.3368V66.8726ZM651.973 86.908C642.398 86.908 636.188 79.7545 636.188 70.0426C636.188 59.9206 642.53 52.7046 652.516 52.7046C661.966 52.7046 668.308 59.5174 668.308 69.5073C668.315 79.7544 661.771 86.908 651.973 86.908ZM652.244 58.0297C646.987 58.0297 643.615 62.9517 643.615 69.8341C643.615 76.5844 647.057 81.5063 652.175 81.5063C657.307 81.5063 660.742 76.2437 660.742 69.695C660.756 63.0212 657.383 58.0297 652.244 58.0297ZM707.499 86.1641H700.204V67.3383C700.204 61.5404 697.979 58.6345 693.591 58.6345C689.273 58.6345 686.311 62.3469 686.311 66.664V86.1641H679.016V62.7501C679.016 59.8511 678.947 56.7436 678.745 53.3719H685.157L685.497 58.4329H685.699C687.653 54.9292 691.637 52.6976 696.088 52.6976C702.972 52.6976 707.499 57.9602 707.499 66.525V86.1641ZM756.53 58.8431H748.512V74.763C748.512 78.8159 749.917 80.8389 752.754 80.8389C754.04 80.8389 755.118 80.6999 755.987 80.4983L756.189 86.032C754.777 86.5743 752.886 86.8454 750.536 86.8454C744.792 86.8454 741.357 83.6753 741.357 75.3747V58.8431H736.573V53.3789H741.357V47.3724L748.512 45.2104V53.3719H756.53V58.8431V58.8431ZM795.109 86.1641H787.829V67.4774C787.829 61.61 785.61 58.6415 781.216 58.6415C777.44 58.6415 773.921 61.2068 773.921 66.3998V86.1641H766.641V38.335H773.921V58.0297H774.067C776.362 54.4564 779.686 52.6976 783.928 52.6976C790.867 52.6976 795.109 58.0923 795.109 66.664V86.1641V86.1641ZM834.634 71.5234H812.765C812.904 77.7314 817.014 81.2352 823.098 81.2352C826.332 81.2352 829.308 80.693 831.936 79.6849L833.07 84.7459C829.968 86.0946 826.318 86.7689 822.069 86.7689C811.812 86.7689 805.742 80.2897 805.742 70.2442C805.742 60.1918 811.958 52.635 821.248 52.635C829.628 52.635 834.885 58.8431 834.885 68.2212C834.932 69.328 834.848 70.4364 834.634 71.5234V71.5234ZM827.952 66.3303C827.952 61.2693 825.4 57.696 820.741 57.696C816.555 57.696 813.245 61.3388 812.772 66.3303H827.952V66.3303Z" fill="white"/>
</svg>
