<svg width="31" height="34" viewBox="0 0 31 34" fill="none" xmlns="http://www.w3.org/2000/svg">
<path d="M9.12193 1.79427C9.12193 1.79427 8.62692 0.634766 7.87092 0.634766C7.12692 0.634766 6.73992 0.978266 6.48193 1.21527C6.22393 1.45227 1.90693 4.99977 1.90693 4.99977C1.90693 4.99977 0.651425 6.09627 0.747425 8.15877C0.828425 10.2213 1.23192 13.1568 3.32592 17.2458C5.40492 21.3258 10.6084 27.5598 13.8964 29.7513C13.8964 29.7513 16.9429 32.0883 19.7779 33.0378C20.6014 33.2973 22.2484 33.6348 22.6324 33.6348C23.0224 33.6348 23.7109 33.6348 24.5014 33.0573C25.3054 32.4738 29.8159 28.8468 29.8159 28.8468C29.8159 28.8468 30.9199 27.8493 29.6374 26.6898C28.3489 25.5303 24.4369 22.9518 23.5999 22.2738C22.7614 21.5853 21.5674 21.8883 21.0514 22.3548C20.5369 22.8243 19.6174 23.5968 19.5049 23.6943C19.3369 23.8233 18.8764 24.2418 18.3604 24.0333C17.7034 23.7738 15.0094 22.3113 12.5119 18.8943C10.0294 15.4803 9.75642 14.3643 9.38593 13.1583C9.32309 12.98 9.32222 12.7857 9.38347 12.6069C9.44471 12.428 9.56449 12.2751 9.72343 12.1728C10.0954 11.9148 11.4649 10.7733 11.4649 10.7733C11.4649 10.7733 12.3514 9.89877 11.9809 8.86827C11.6104 7.83777 9.12193 1.79427 9.12193 1.79427Z" fill="#B6B6B6"/>
</svg>
