<svg width="60" height="60" viewBox="0 0 60 60" fill="none" xmlns="http://www.w3.org/2000/svg">
<path d="M50.1864 11.969C50.324 11.8459 50.4338 11.6948 50.5086 11.5258C50.5831 11.3568 50.6208 11.1737 50.6191 10.989C50.6173 10.8042 50.576 10.622 50.498 10.4545C50.42 10.287 50.3071 10.138 50.1669 10.0177C50.0191 9.89103 49.8726 9.76499 49.7272 9.63966C48.6175 8.68552 47.4701 7.6976 46.2701 6.85488C37.1018 0.402082 27.5754 0.365779 17.9573 3.78796C9.24898 6.88418 3.65667 13.0786 1.33332 22.1957C-1.25841 32.3819 1.01112 41.3681 8.08357 48.908C8.26756 49.1028 8.45536 49.2976 8.64288 49.4836C12.4421 53.2831 17.1741 55.6287 20.9235 57.2607C22.5329 57.9638 30.7903 58.8172 33.0245 58.4844C46.3019 56.5015 55.0393 49.0128 58.0827 36.4843C58.6636 34.0303 58.9531 31.5162 58.9446 28.9943C58.9315 26.3457 58.4861 23.7171 57.626 21.2121C57.5632 21.0247 57.4601 20.8534 57.3235 20.7106C57.1869 20.5678 57.0207 20.457 56.8361 20.386C56.6519 20.315 56.4539 20.2857 56.2569 20.3C56.06 20.3144 55.8684 20.3722 55.6965 20.4692L55.6605 20.4898C55.3869 20.6464 55.1769 20.8942 55.0679 21.1898C54.9585 21.4854 54.9567 21.81 55.0626 22.1068C55.8391 24.26 56.2351 26.5319 56.2326 28.8208C56.2058 31.5667 55.8341 34.2984 55.1261 36.9518C53.0282 44.5764 48.0129 50.1334 39.7936 53.9346C31.4374 57.9352 19.4542 53.8905 16.2658 51.7855C12.7418 49.3764 9.65822 46.3792 7.14997 42.9249C3.2163 37.3552 2.33377 29.35 4.44757 22.0315C5.43676 18.6524 7.1655 15.5358 9.5085 12.9077C11.8515 10.2796 14.75 8.20587 17.9938 6.83685C26.4327 3.32979 34.9002 2.71115 43.1589 7.96347C44.2661 8.66847 47.0896 10.8854 48.5166 12.0176C48.7559 12.2075 49.0548 12.3066 49.3601 12.2975C49.6658 12.2883 49.958 12.1714 50.1856 11.9675L50.1864 11.969Z" fill="#44A442"/>
<path d="M26.3399 38.0514C26.9055 37.5139 27.2162 37.2418 27.5006 36.9446C36.6191 27.4182 46.6052 18.8416 56.6502 10.3313C57.03 10.0099 57.4186 9.5998 57.8679 9.48463C58.4097 9.34621 59.2931 9.50542 59.5352 9.7996C59.6944 10.017 59.795 10.2716 59.8271 10.539C59.8595 10.8065 59.8225 11.0777 59.7201 11.3268C59.484 11.9459 58.9087 12.4762 58.3871 12.9396C55.2734 15.7064 52.0726 18.3777 49.014 21.2015C42.6201 27.1065 36.2672 33.0554 29.9546 39.0482C27.1886 41.6684 26.1241 41.7746 23.5789 38.9747C21.9035 37.131 16.8472 30.9165 15.2988 28.9584C15.08 28.6541 14.8851 28.3332 14.7159 27.9988C14.3667 27.3794 14.1383 26.6969 14.8326 26.2168C15.6059 25.682 16.1547 26.24 16.6132 26.8211C17.0771 27.4095 17.4727 28.0557 17.9693 28.6132C19.5113 30.3435 24.6738 36.2264 26.3399 38.0514Z" fill="#44A442"/>
</svg>
