<svg width="373" height="191" viewBox="0 0 373 191" fill="none" xmlns="http://www.w3.org/2000/svg">
<path d="M372.8 28.8C372.8 18.9 364.7 10.8 354.8 10.8C344.9 10.8 336.8 18.9 336.8 28.8C336.8 33.5 338.6 37.9 341.8 41.2C339.8 43.2 338.6 45.8 338.5 48.7C338.3 48.7 338 48.7 337.8 48.7C334.3 48.7 331.4 51.6 331.4 55.1C331.4 58.6 334.3 61.5 337.8 61.5C340.1 61.5 342.2 60.2 343.3 58.3C345.1 59.5 347.3 60.2 349.5 60.2C355.6 60.2 360.5 55.3 360.5 49.2C360.5 48.2 360.3 47.1 360.1 46.2C367.6 43.8 372.8 36.8 372.8 28.8Z" fill="#727278"/>
<path d="M372.8 28C372.8 18.1 364.7 10 354.8 10C344.9 10 336.8 18.1 336.8 28C336.8 32.7 338.6 37.1 341.8 40.4C339.8 42.4 338.6 45 338.5 47.9C338.3 47.9 338 47.9 337.8 47.9C334.3 47.9 331.4 50.8 331.4 54.3C331.4 57.8 334.3 60.7 337.8 60.7C340.1 60.7 342.2 59.4 343.3 57.5C345.1 58.7 347.3 59.4 349.5 59.4C355.6 59.4 360.5 54.5 360.5 48.4C360.5 47.4 360.3 46.3 360.1 45.4C367.6 43 372.8 36 372.8 28Z" fill="#9F9FA5"/>
<path d="M337.7 58.6C335.6 58.6 333.9 56.9 333.9 54.8C333.9 52.7 335.6 51 337.7 51C337.8 51 338 51 338.1 51C338.2 51 338.3 51 338.4 51C339 51 339.6 50.8 340 50.4C340.5 49.9 340.8 49.3 340.9 48.6C341 46.4 341.9 44.4 343.5 42.8C344.5 41.8 344.5 40.3 343.6 39.3C340.8 36.4 339.3 32.6 339.3 28.6C339.3 20 346.3 13.1 354.8 13.1C363.4 13.1 370.3 20.1 370.3 28.6C370.3 35.5 365.8 41.5 359.2 43.5C357.9 43.9 357.1 45.3 357.5 46.6C357.7 47.4 357.8 48.2 357.8 48.9C357.8 53.6 354 57.4 349.3 57.4C347.6 57.4 346 56.9 344.5 55.9C344.1 55.6 343.6 55.5 343.1 55.5C342.9 55.5 342.7 55.5 342.5 55.6C341.8 55.8 341.2 56.2 340.9 56.8C340.3 57.9 339.1 58.6 337.7 58.6Z" fill="#B3B3BA"/>
<path d="M337.7 54.3C337 54.3 336.4 53.7 336.4 53C336.4 52.3 337 51.7 337.7 51.7H337.8C338 51.7 338.2 51.7 338.4 51.7C339.6 51.7 340.8 51.3 341.7 50.5C342.8 49.6 343.4 48.3 343.4 46.9C343.5 45.4 344.1 43.9 345.2 42.9C347.2 41 347.2 37.8 345.3 35.8C343 33.4 341.7 30.2 341.7 26.8C341.7 19.6 347.5 13.8 354.7 13.8C361.9 13.8 367.7 19.6 367.7 26.8C367.7 32.6 364 37.6 358.4 39.3C355.8 40.1 354.2 42.9 355 45.5C355.2 46.1 355.2 46.6 355.2 47.1C355.2 50.4 352.5 53.1 349.2 53.1C348 53.1 346.8 52.7 345.9 52.1C345.1 51.5 344.1 51.2 343.1 51.2C342.7 51.2 342.4 51.2 342 51.3C340.6 51.6 339.5 52.5 338.8 53.7C338.6 54.1 338.2 54.3 337.7 54.3Z" fill="#BDBDC4"/>
<path d="M349.4 49.2C349.2 49.2 349 49.1 348.9 49C348.8 48.9 348.6 48.8 348.5 48.7C348.5 48.5 348.5 48.3 348.5 48.2C348.5 47.9 348.6 47.7 348.8 47.6C349.3 47.2 349.7 46.7 350 46.2C350.1 46.8 350.2 47.4 350.3 48C350.3 48.2 350.3 48.2 350.3 48.2C350.3 48.8 349.9 49.2 349.4 49.2ZM349 33.5C347.6 32 346.8 30.1 346.8 28C346.8 23.6 350.4 20 354.8 20C359.2 20 350.6 35.2 349 33.5Z" fill="#D1D1D8"/>
<path d="M354.8 12C356.3 12 355.7 11.2 354.8 11.2C345.5 11.2 338 18.7 338 28C338 28.1 338 28.3 338 28.4C338.2 19.3 345.7 12 354.8 12Z" fill="#CCCCD3"/>
<path d="M337.7 49.9C337.9 49.9 338.1 49.9 338.3 49.9H338.4C338.7 49.9 339 49.8 339.2 49.6C339.5 49.4 339.6 49 339.6 48.7C339.7 46.2 340.7 43.8 342.5 42.1C342.9 41.8 343 41.2 342.8 40.8C342.7 41 342.6 41.2 342.5 41.3C340.7 43 339.7 45.4 339.6 47.9C339.6 48.2 339.4 48.6 339.2 48.8C339 49 338.7 49.1 338.4 49.1H338.3C338.1 49.1 337.9 49.1 337.7 49.1C334.9 49.1 332.6 51.4 332.6 54.2C332.6 54.3 332.6 54.5 332.6 54.6C332.8 51.9 335 49.9 337.7 49.9Z" fill="#CCCCD3"/>
<path d="M358.6 46C358.9 47.2 359.1 48.3 359.2 49.5C359.2 49.3 359.2 49.2 359.2 49C359.2 47.7 359 46.3 358.6 44.9C358.5 45.2 358.5 45.6 358.6 46Z" fill="#CCCCD3"/>
<path d="M323 41.4C322.9 40.1 321.8 39.1 320.5 39.2C319.2 39.3 318.2 40.4 318.3 41.7L318.6 45.1L323.3 44.7L323 41.4Z" fill="#E62C39"/>
<path d="M322.4 41.7L319 42V42.6L322.5 42.2L322.4 41.7Z" fill="#FF6E7A"/>
<path d="M320.7 39.8H320.6C319.7 39.9 319.1 40.6 319 41.4L322.4 41.1C322.2 40.4 321.5 39.8 320.7 39.8Z" fill="#FF6E7A"/>
<path d="M318.6 45.1L318.9 48.5C319 49.8 320.1 50.8 321.4 50.7C322.7 50.6 323.7 49.5 323.6 48.2L323.3 44.8L318.6 45.1Z" fill="#FFB300"/>
<path d="M321.4 49.8C320.1 49.9 319 48.9 318.9 47.6L318.7 45H318.6L318.9 48.4C319 49.7 320.1 50.7 321.4 50.6C322.7 50.5 323.7 49.4 323.6 48.1V47.8C323.4 48.9 322.5 49.8 321.4 49.8Z" fill="#FA8A00"/>
<path d="M208.2 45.1C208.2 42.5 206.6 40.3 204.6 40.3C202.6 40.3 201 42.4 201 45.1C201 47.7 202.6 49.9 204.6 49.9C206.6 49.9 208.2 47.8 208.2 45.1Z" fill="#FFEF24"/>
<path d="M204.6 48.5C202.8 48.5 201.3 46.7 201 44.4C201 44.6 201 44.8 201 45.1C201 47.7 202.6 49.9 204.6 49.9C206.6 49.9 208.2 47.8 208.2 45.1C208.2 44.9 208.2 44.6 208.2 44.4C207.9 46.8 206.4 48.5 204.6 48.5Z" fill="#FFD324"/>
<path d="M203 41.5C202.4 42 201.9 42.7 201.6 43.6L202.8 43.8L203 41.5Z" fill="#FFFDF5"/>
<path d="M202.8 44.5L201.5 44.3C201.5 44.5 201.4 44.8 201.4 45L202.7 45.1L202.8 44.5Z" fill="#FFFDF5"/>
<path d="M204.6 50C202.5 50 200.9 47.8 200.9 45.2C200.9 42.5 202.6 40.4 204.6 40.4C206.7 40.4 208.3 42.6 208.3 45.2C208.3 47.8 206.6 50 204.6 50ZM204.6 40.5C202.6 40.5 201.1 42.6 201.1 45.2C201.1 47.8 202.7 49.9 204.6 49.9C206.6 49.9 208.1 47.8 208.1 45.2C208.1 42.6 206.5 40.5 204.6 40.5Z" fill="#FFB61A"/>
<path d="M206.6 49.8C206.5 50.9 205.6 51.6 204.5 51.6C203.4 51.5 202.7 50.6 202.7 49.5L203.4 40.5C203.5 39.4 204.4 38.7 205.5 38.7C206.6 38.8 207.3 39.7 207.3 40.8L206.6 49.8Z" fill="#B1B1BA"/>
<path d="M206.4 42.5L204 42.3V42.9L206.4 43.2V42.5Z" fill="#F2F2F1"/>
<path d="M206.6 40.7C206.7 40 206.2 39.4 205.5 39.4H205.4C204.8 39.4 204.2 39.9 204.2 40.5L204.1 41.3L206.5 41.5L206.6 40.7Z" fill="#F2F2F1"/>
<path d="M213 63.9C210.7 63.8 208.8 63 207.3 61.5C205.5 59.7 204.5 57 204.6 53.9C204.6 53.4 204.6 48.2 205.5 39.2C206 33.8 209.4 30.4 215.6 29.1L220.2 28.2C225.3 27.1 225.8 26.1 226.3 23.1V23C227.1 17.8 231.3 0.799988 250.9 0.799988H275.2C294.8 0.799988 299 17.8 299.8 23V23.1C300.3 26 300.9 27.1 305.9 28.2L310.5 29.1C316.6 30.4 320 33.8 320.6 39.2C321.6 48.6 321.5 53.9 321.5 53.9C321.5 57 320.6 59.7 318.8 61.5C317.3 63 315.4 63.8 313.1 63.9H213Z" fill="#39498C"/>
<path d="M213 63.3C210.9 63.2 209.1 62.4 207.7 61.1C206 59.4 205.1 56.8 205.2 53.9C205.2 53.8 205.1 48.6 206.1 39.2C206.6 34.1 209.8 30.9 215.7 29.7L220.3 28.8C225.4 27.7 226.4 26.6 226.9 23.2V23.1C227.7 18 231.8 1.39999 250.9 1.39999H275.2C294.3 1.39999 298.4 18 299.2 23.1V23.2C299.8 26.5 300.7 27.7 305.8 28.8L310.4 29.7C316.2 30.9 319.4 34.1 319.9 39.2C320.9 48.6 320.8 53.8 320.8 53.9C320.8 56.8 319.9 59.4 318.3 61.1C316.9 62.5 315.1 63.2 313 63.3H213Z" fill="#485DAB"/>
<path d="M206.8 36.3H319.2C318.9 35.4 318.4 34.7 317.9 34H208.1C207.6 34.6 207.1 35.4 206.8 36.3Z" fill="#677DC9"/>
<path d="M232 28.3H231.4V41.2H232V28.3Z" fill="#39498C"/>
<path d="M232 29.5C231.6 29.5 231.3 29.3 231.1 29.1C230.9 28.8 230.8 28.5 230.8 28.1L231.4 23.8C232.2 18.9 234.2 14.5 237 11.5C240.4 7.9 245 6 250.8 6H274.9C275.6 6 276.1 6.5 276.1 7.2V28.2C276.1 28.9 275.6 29.4 274.9 29.4H232V29.5Z" fill="#39498C"/>
<path d="M274.9 6.69998H250.8C245.2 6.69998 240.7 8.49998 237.4 12C234.7 14.9 232.7 19.2 232 24L231.4 28.3C231.4 28.5 231.4 28.6 231.5 28.8C231.6 28.9 231.8 29 231.9 29H274.8C275.1 29 275.4 28.7 275.4 28.4V7.39999C275.5 6.99999 275.3 6.69998 274.9 6.69998Z" fill="#D4ECFF"/>
<path d="M278.7 59H247.5V61.4H278.7V59Z" fill="#39498C"/>
<path d="M273.6 6.09998V6.69997H276.9C277.3 6.69997 277.4 6.99998 277.4 7.29998V60.5H278V6.89998C278 6.39998 277.7 6.19997 277.3 6.19997H273.6V6.09998Z" fill="#39498C"/>
<path d="M279.9 29.5C279.6 29.5 279.3 29.2 279.3 28.9V6.79998C279.3 6.59998 279.4 6.39998 279.5 6.29998C279.6 6.19998 279.8 6.09998 279.9 6.09998H280C283.2 6.49998 285.9 8.09998 289 11.4C291.8 14.4 293.8 18.8 294.6 23.7L295.2 28C295.2 28.3 295.1 28.7 294.9 29C294.7 29.3 294.3 29.4 294 29.4H279.9V29.5Z" fill="#39498C"/>
<path d="M293.9 23.9C293.1 19.1 291.2 14.9 288.5 11.9C285.7 8.89999 283.2 7.19999 279.9 6.79999V28.9H293.9C294.1 28.9 294.2 28.8 294.3 28.7C294.4 28.6 294.5 28.4 294.4 28.2L293.9 23.9Z" fill="#D4ECFF"/>
<path d="M248.8 60.9C248.8 50.6 240.4 42.2 230.1 42.2C219.8 42.2 211.4 50.6 211.4 60.9C211.4 61.6 211.4 62.4 211.5 63.1C212 63.2 212.4 63.3 212.9 63.3H248.6C248.8 62.5 248.8 61.7 248.8 60.9Z" fill="#6378BF"/>
<path d="M249.2 58.8C249 57.4 248.7 55.8 248.4 54.4C246.4 46.2 239 40 230.2 40C219.9 40 211.5 48.4 211.5 58.7C211.5 59.4 211.5 60.2 211.6 60.9C212.1 61 212.5 61.1 213 61.1H249.4C249.5 60.4 249.2 59.6 249.2 58.8Z" fill="#39498C"/>
<path d="M314.5 58.8C314.5 48.5 306.1 40.1 295.8 40.1C287.4 40.1 280 45.6 277.6 53.2C277 55 276.4 56.8 276.4 58.8C276.4 59.5 276.3 60.3 276.4 61C276.9 61.1 278.3 61.2 278.8 61.2H314.5C314.5 60.4 314.5 59.6 314.5 58.8Z" fill="#39498C"/>
<path d="M248.7 60.4C248.7 50.2 240.4 41.8 230.1 41.8C219.9 41.8 211.5 50.1 211.5 60.4C211.5 61.1 211.5 61.9 211.6 62.6C212.1 62.7 212.5 62.8 213 62.8H248.4C248.6 62 248.7 61.2 248.7 60.4Z" fill="#8D9EE3"/>
<path d="M314.4 60.4C314.4 50.2 306.1 41.8 295.8 41.8C285.6 41.8 277.2 50.1 277.2 60.4C277.2 61.1 277.2 61.9 277.3 62.6C277.8 62.7 278.2 62.8 278.7 62.8H314.1C314.3 62 314.4 61.2 314.4 60.4Z" fill="#8D9EE3"/>
<path d="M248.8 60.9C248.8 50.6 240.4 42.2 230.1 42.2C219.8 42.2 211.4 50.6 211.4 60.9C211.4 61.6 211.4 62.4 211.5 63.1C212 63.2 212.4 63.3 212.9 63.3H248.6C248.8 62.5 248.8 61.7 248.8 60.9Z" fill="#6378BF"/>
<path d="M245.5 60.9C245.5 52.4 238.6 45.6 230.2 45.6C221.7 45.6 214.9 52.5 214.9 60.9C214.9 61.7 215 62.4 215.1 63.2L215.2 63.9H245.4L245.5 63.2C245.4 62.5 245.5 61.7 245.5 60.9Z" fill="#172040"/>
<path d="M230.1 74.9C237.8 74.9 244 68.6 244 60.9C244 53.2 237.7 47 230.1 47C222.4 47 216.1 53.3 216.1 60.9C216.2 68.6 222.4 74.9 230.1 74.9Z" fill="#3D495E"/>
<path d="M230.1 74.4C222.6 74.4 216.6 68.3 216.6 60.9C216.6 53.4 222.7 47.4 230.1 47.4C237.6 47.4 243.6 53.5 243.6 60.9C243.6 68.4 237.6 74.4 230.1 74.4Z" fill="#4A566E"/>
<path d="M277.1 60.9C277.1 50.6 285.5 42.2 295.8 42.2C306.1 42.2 314.5 50.6 314.5 60.9C314.5 61.6 314.5 62.4 314.4 63.1C313.9 63.2 313.5 63.3 313 63.3H277.3C277.2 62.5 277.1 61.7 277.1 60.9Z" fill="#6378BF"/>
<path d="M328.3 60.7H321.4V57.1H330.1L328.3 60.7Z" fill="#505054"/>
<path d="M329.1 57.7H322V58.5H328.8L329.1 57.7Z" fill="#8B8B91"/>
<path d="M311.2 60.9C311.2 52.4 304.3 45.6 295.9 45.6C287.4 45.6 280.6 52.5 280.6 60.9C280.6 61.7 280.7 62.4 280.8 63.2L280.9 63.9H311.1L311.2 63.2C311.1 62.5 311.2 61.7 311.2 60.9Z" fill="#172040"/>
<path d="M295.8 74.9C303.5 74.9 309.7 68.6 309.7 60.9C309.7 53.2 303.4 47 295.8 47C288.2 47 281.9 53.3 281.9 60.9C281.9 68.6 288.1 74.9 295.8 74.9Z" fill="#3D495E"/>
<path d="M295.8 74.4C303.3 74.4 309.3 68.3 309.3 60.9C309.3 53.4 303.2 47.4 295.8 47.4C288.3 47.4 282.3 53.5 282.3 60.9C282.3 68.4 288.4 74.4 295.8 74.4Z" fill="#4A566E"/>
<path d="M295.8 69.7C300.6 69.7 304.5 65.8 304.5 61C304.5 56.2 300.6 52.3 295.8 52.3C291 52.3 287.1 56.2 287.1 61C287.1 65.7 291 69.7 295.8 69.7Z" fill="#3D495E"/>
<path d="M295.8 68.9C300.2 68.9 303.8 65.3 303.8 60.9C303.8 56.5 300.2 52.9 295.8 52.9C291.4 52.9 287.8 56.5 287.8 60.9C287.8 65.3 291.4 68.9 295.8 68.9Z" fill="#C1CFD6"/>
<path d="M297.6 56C297.6 55.2 296.8 54.6 295.9 54.6C295 54.6 294.2 55.2 294.2 56C294.1 56.8 297.6 56.8 297.6 56Z" fill="#3D495E"/>
<path d="M291.5 58C290.8 57.8 290 58.2999 289.7 59.1999C289.4 60.0999 289.8 61 290.5 61.3C291.1 61.5 292.2 58.2 291.5 58Z" fill="#3D495E"/>
<path d="M291.5 64.4C291.1 65 291.3 66 292.1 66.5C292.9 67.1 293.9 67 294.3 66.4C294.7 65.8 291.9 63.8 291.5 64.4Z" fill="#3D495E"/>
<path d="M297.6 66.4C298 67 299 67.1 299.8 66.5C300.6 65.9 300.8 65 300.4 64.4C299.9 63.7 297.1 65.7 297.6 66.4Z" fill="#3D495E"/>
<path d="M301.3 61.2C302 61 302.4 60 302.1 59.1C301.8 58.2 301 57.7 300.3 57.9C299.5 58.2 300.6 61.4 301.3 61.2Z" fill="#3D495E"/>
<path d="M230.1 69.7C234.9 69.7 238.8 65.8 238.8 61C238.8 56.2 234.9 52.3 230.1 52.3C225.3 52.3 221.4 56.2 221.4 61C221.4 65.7 225.3 69.7 230.1 69.7Z" fill="#3D495E"/>
<path d="M230.1 68.9C234.5 68.9 238.1 65.3 238.1 60.9C238.1 56.5 234.5 52.9 230.1 52.9C225.7 52.9 222.1 56.5 222.1 60.9C222.1 65.3 225.7 68.9 230.1 68.9Z" fill="#C1CFD6"/>
<path d="M231.9 56C231.9 55.2 231.1 54.6 230.2 54.6C229.3 54.6 228.5 55.2 228.5 56C228.4 56.8 231.9 56.8 231.9 56Z" fill="#3D495E"/>
<path d="M225.8 58C225.1 57.8 224.3 58.2999 224 59.1999C223.7 60.0999 224.1 61 224.8 61.3C225.4 61.5 226.5 58.2 225.8 58Z" fill="#3D495E"/>
<path d="M225.8 64.4C225.4 65 225.6 66 226.4 66.5C227.2 67.1 228.2 67 228.6 66.4C229 65.8 226.2 63.8 225.8 64.4Z" fill="#3D495E"/>
<path d="M231.9 66.4C232.3 67 233.3 67.1 234.1 66.5C234.9 65.9 235.1 65 234.7 64.4C234.2 63.7 231.4 65.7 231.9 66.4Z" fill="#3D495E"/>
<path d="M235.6 61.2C236.3 61 236.7 60 236.4 59.1C236.1 58.2 235.3 57.7 234.6 57.9C233.8 58.2 234.9 61.4 235.6 61.2Z" fill="#3D495E"/>
<path d="M324.9 60.4C324.9 61 324.4 61.3 323.8 61.5L318.4 63.4C317.8 63.6 317.3 62.9 317.3 62.3V55.5C317.3 54.9 317.8 54.4 318.4 54.4H323.8C324.4 54.4 324.9 54.9 324.9 55.5V60.4Z" fill="#B1B1BA"/>
<path d="M323.8 60.7L318.4 62.6C317.8 62.8 317.3 62.1 317.3 61.5V62.3C317.3 62.9 317.8 63.6 318.4 63.4L323.8 61.5C324.4 61.3 324.9 61 324.9 60.4V59.6C324.9 60.2 324.4 60.5 323.8 60.7Z" fill="#9D9DA6"/>
<path d="M324.4 55.5C324.4 55.2 324.2 55 323.9 55H318.5C318.2 55 318 55.2 318 55.5V57.3H324.5V55.5H324.4Z" fill="#F2F2F1"/>
<path d="M200.8 60.4C200.8 61 201.3 61.3 201.9 61.5L207.3 63.4C207.9 63.6 208.4 62.9 208.4 62.3V55.5C208.4 54.9 207.9 54.4 207.3 54.4H201.9C201.3 54.4 200.8 54.9 200.8 55.5V60.4Z" fill="#B1B1BA"/>
<path d="M207.3 62.6L201.9 60.7C201.3 60.5 200.8 60.2 200.8 59.6V60.4C200.8 61 201.3 61.3 201.9 61.5L207.3 63.4C207.9 63.6 208.4 62.9 208.4 62.3V61.5C208.4 62.1 207.8 62.8 207.3 62.6Z" fill="#9D9DA6"/>
<path d="M201.3 55.5C201.3 55.2 201.5 55 201.8 55H207.2C207.5 55 207.7 55.2 207.7 55.5V57.3H201.2V55.5H201.3Z" fill="#F2F2F1"/>
<path d="M272.5 41.8C272.5 42.5 271.9 43.1 271.2 43.1H265.1C264.4 43.1 263.8 42.5 263.8 41.8V41.6C263.8 40.9 264.4 40.3 265.1 40.3H271.2C271.9 40.3 272.5 40.9 272.5 41.6V41.8Z" fill="#31438C"/>
<path d="M264.3 41.6C264.3 41.2 264.7 40.9 265.1 40.9H271.2C271.6 40.9 272 41.2 272 41.6H264.3Z" fill="#7383BA"/>
<path d="M246 28.5L258.3 7.09998H255.4L243.2 28.5H246Z" fill="#F2F9FF"/>
<path d="M285.1 28.5L291.3 17.7C290.9 16.8 290.5 15.9 290 15.1L282.3 28.5H285.1Z" fill="#F2F9FF"/>
<path d="M248.5 28.5H255.8L268 7.09998H260.7L248.5 28.5Z" fill="#F2F9FF"/>
<path d="M234.9 28.3C234.9 30.3 234.2 31.9 232.2 31.9C230.2 31.9 228.6 30.3 228.6 28.3V25.9C228.6 23.9 230.2 22.3 232.2 22.3C234.2 22.3 234.9 23.9 234.9 25.9V28.3Z" fill="#3A4887"/>
<path d="M229 28.3V25.9C229 24.1 230.5 22.7 232.2 22.7C234.1 22.7 234.6 24.5 234.6 25.9V28.3C234.6 29.8 229 30.1 229 28.3Z" fill="#4A5A9C"/>
<path d="M232.3 26.4H229.3V27.1H232.3V26.4Z" fill="#7880B0"/>
<path d="M232.3 23C230.8 23 229.7 23.9 229.4 25.2H232.3V23Z" fill="#7880B0"/>
<path d="M218.3 39.7C218.3 38.7 217.4 37.8 216.4 37.8C215.4 37.8 214.5 38.6 214.5 39.7C214.5 40.7 215.4 41.6 216.4 41.6C217.4 41.6 218.3 40.8 218.3 39.7Z" fill="#C5C5C5"/>
<path d="M216.4 38C215.7 38 215.2 38.4 214.9 38.9H217.9C217.6 38.4 217 38 216.4 38Z" fill="#F2F2F2"/>
<path d="M216.4 41.4C217.1 41.4 217.6 41 217.9 40.5H214.9C215.2 41.1 215.7 41.4 216.4 41.4Z" fill="#A1A1A1"/>
<path d="M217.8 39.7C217.8 38.9 217.1 38.2 216.3 38.2C215.5 38.2 214.8 38.9 214.8 39.7C214.8 40.5 215.5 41.2 216.3 41.2C217.2 41.2 217.8 40.5 217.8 39.7Z" fill="#EB7D00"/>
<path d="M217.8 39.7C217.8 38.9 217.2 38.3 216.4 38.3C215.6 38.3 215 38.9 215 39.7C215 40.5 215.6 41.1 216.4 41.1C217.2 41.1 217.8 40.5 217.8 39.7Z" fill="#FFC60A"/>
<path d="M216.4 40.6C216 40.6 215.7 40.5 215.4 40.4C215.6 40.7 216 40.9 216.4 40.9C216.8 40.9 217.2 40.7 217.4 40.4C217.1 40.6 216.7 40.6 216.4 40.6Z" fill="#EB7D00"/>
<path d="M217.5 39.7C217.5 39.1 217 38.6 216.4 38.6C215.8 38.6 215.3 39.1 215.3 39.7C215.3 40.3 217.5 40.3 217.5 39.7Z" fill="#FFEF24"/>
<path d="M217.2 39.4H215.5C215.5 39.5 215.5 39.5 215.5 39.6H217.3C217.2 39.5 217.2 39.4 217.2 39.4Z" fill="#FDFFE6"/>
<path d="M216.4 38.8C216.1 38.8 215.9 38.9 215.7 39.1H217.1C216.9 39 216.6 38.8 216.4 38.8Z" fill="#FDFFE6"/>
<path d="M88.9 34.1C88.4 34.1 88 34.5 88 35C88 35.5 88.4 35.9 88.9 35.9H96.3V34.1H88.9Z" fill="#9C9C9C"/>
<path d="M88.9 26.2C88.4 26.2 88 26.6 88 27.1C88 27.6 88.4 28 88.9 28H96.3V26.2H88.9Z" fill="#9C9C9C"/>
<path d="M122 95.7L121.6 93.9C135.9 90.8 146.2 77.9 146.2 63.2C146.2 45.9 132.1 31.8 114.8 31.8H99.8V29.9H114.8C133.2 29.9 148.1 44.8 148.1 63.2C148.1 78.7 137.1 92.4 122 95.7Z" fill="#00A108"/>
<path d="M122.1 94.2C136.4 90.9 146.7 77.9 146.7 63.2C146.7 45.6 132.4 31.3 114.8 31.3H100.2V30.3H114.8C132.9 30.3 147.7 45 147.7 63.2C147.7 78.4 137.1 91.8 122.3 95.2L122.1 94.2Z" fill="#07BF0E"/>
<path d="M112.5 29.4C112.2 29.4 112 29.2 112 28.9C111.9 28.3 111.5 28.1 110.5 27.9L107.7 27.2C107.5 27.2 107.4 27 107.3 26.8C106.8 25.3 105.1 24.7 104.1 24.4L98.6 23.1C98.2 23 97.8 22.9 97.4 22.9C96.8 22.9 95.6 22.9 95.6 25.5C95.6 25.8 95.6 35.9 95.6 36.2C95.6 38.5 96.6 38.8 97.5 38.8C97.8 38.8 98.2 38.7 98.6 38.6L104.1 37.3C105.7 36.9 106.9 36 107.3 34.9C107.4 34.7 107.5 34.6 107.7 34.6L110.5 33.9C111.5 33.7 112 33.2 112 32.5C112 32.2 112.2 32 112.5 32H115.2V29.1H112.5V29.4Z" fill="#00A108"/>
<path d="M97.5 38.5C97 38.5 96.1 38.5 96.1 36.4V25.7C96.1 23.6 97 23.6 97.5 23.6C97.8 23.6 98.1 23.6 98.6 23.7L104.1 25C105 25.2 106.6 25.8 107 27.1C107.1 27.4 107.4 27.7 107.7 27.8L110.5 28.4C111.6 28.7 111.7 28.8 111.7 29C111.7 29.5 112.2 29.9 112.6 29.9H114.9V31.9H112.6C112.1 31.9 111.7 32.3 111.7 32.8C111.7 33.4 111 33.6 110.5 33.7C110.4 33.7 110 33.8 108.2 34.2L107.7 34.3C107.4 34.4 107.1 34.6 107 34.9C106.7 35.9 105.6 36.6 104.1 37L98.6 38.3C98.1 38.5 97.8 38.5 97.5 38.5Z" fill="#00A608"/>
<path d="M94.2 27.1H89.3C89.2 27.1 89.1 26.9999 89.1 26.8999C89.1 26.7999 89.2 26.7 89.3 26.7H94.2C94.3 26.7 94.4 26.7999 94.4 26.8999C94.4 26.9999 94.3 27.1 94.2 27.1Z" fill="#E8E8E8"/>
<path d="M94.2 35H89.3C89.2 35 89.1 34.9 89.1 34.8C89.1 34.7 89.2 34.6 89.3 34.6H94.2C94.3 34.6 94.4 34.7 94.4 34.8C94.4 34.9 94.3 35 94.2 35Z" fill="#E8E8E8"/>
<path d="M101.3 31.7C100.8 31.7 100.4 31.3 100.4 30.8C100.4 30.3 100.8 29.9 101.3 29.9H105.7C105.7 28.9 105.6 28 105.5 27.6C105.5 27.5 105 27.1 104.1 26.9L98.7 25.6V36.2L104.1 35C105.1 34.8 105.5 34.4 105.5 34.3C105.6 33.9 105.7 32.8 105.7 31.7H101.3Z" fill="#009108"/>
<path d="M115.3 28.7H114.7V33.2H115.3V28.7Z" fill="#009108"/>
<path d="M116.2 28.7H115.6V33.2H116.2V28.7Z" fill="#009108"/>
<path d="M114.3 28.7H113.7V33.2H114.3V28.7Z" fill="#009108"/>
<path d="M113.4 28.7H112.8V33.2H113.4V28.7Z" fill="#009108"/>
<path d="M126.1 81.2C126 79.9 124.9 78.9 123.6 79C122.3 79.1 121.3 80.2 121.4 81.5L121.7 84.9L126.4 84.5L126.1 81.2Z" fill="#E62C39"/>
<path d="M125.5 81.5L122 81.8L122.1 82.4L125.5 82.1V81.5Z" fill="#FF6E7A"/>
<path d="M123.7 79.7H123.6C122.7 79.8 122.1 80.5 122 81.3L125.4 81C125.2 80.3 124.5 79.7 123.7 79.7Z" fill="#FF6E7A"/>
<path d="M121.7 85L122 88.3999C122.1 89.6999 123.2 90.7 124.5 90.6C125.8 90.5 126.8 89.4 126.7 88.1L126.4 84.7L121.7 85Z" fill="#FFB300"/>
<path d="M124.5 89.7C123.2 89.8 122.1 88.8 122 87.5L121.8 84.9H121.7L122 88.3C122.1 89.6 123.2 90.6 124.5 90.5C125.8 90.4 126.8 89.3 126.7 88V87.7C126.4 88.8 125.6 89.6 124.5 89.7Z" fill="#FA8A00"/>
<path d="M11.4 86.3C11.4 83.7 9.8 81.5 7.8 81.5C5.8 81.5 4.2 83.6 4.2 86.3C4.2 88.9 5.8 91.1 7.8 91.1C9.8 91.1 11.4 89 11.4 86.3Z" fill="#FFEF24"/>
<path d="M7.8 89.7C6 89.7 4.5 87.9 4.2 85.6C4.2 85.8 4.2 86 4.2 86.3C4.2 88.9 5.8 91.1 7.8 91.1C9.8 91.1 11.4 89 11.4 86.3C11.4 86.1 11.4 85.8 11.4 85.6C11.1 87.9 9.6 89.7 7.8 89.7Z" fill="#FFD324"/>
<path d="M6.2 82.7C5.6 83.2 5.1 83.9 4.8 84.8L6 85L6.2 82.7Z" fill="#FFFDF5"/>
<path d="M6 85.6L4.7 85.4C4.7 85.6 4.6 85.9 4.6 86.1L5.9 86.2L6 85.6Z" fill="#FFFDF5"/>
<path d="M7.8 91.2C5.7 91.2 4.1 89 4.1 86.4C4.1 83.7 5.8 81.6 7.8 81.6C9.9 81.6 11.5 83.8 11.5 86.4C11.5 89 9.8 91.2 7.8 91.2ZM7.8 81.7C5.8 81.7 4.3 83.8 4.3 86.4C4.3 89 5.9 91.1 7.8 91.1C9.8 91.1 11.3 89 11.3 86.4C11.3 83.8 9.7 81.7 7.8 81.7Z" fill="#FFB61A"/>
<path d="M9.8 91C9.7 92.1 8.8 92.8 7.7 92.8C6.6 92.7 5.9 91.8 5.9 90.7L6.6 81.7C6.7 80.6 7.6 79.9 8.7 79.9C9.8 80 10.5 80.9 10.5 82L9.8 91Z" fill="#B1B1BA"/>
<path d="M9.59999 83.7L7.2 83.5V84.1L9.59999 84.3V83.7Z" fill="#F2F2F1"/>
<path d="M9.8 81.9C9.9 81.2 9.4 80.6 8.7 80.6H8.6C8 80.6 7.40001 81.1 7.40001 81.7L7.3 82.5L9.7 82.7L9.8 81.9Z" fill="#F2F2F1"/>
<path d="M16.2 105.1C13.9 105 12 104.2 10.5 102.7C8.7 100.9 7.7 98.2 7.8 95.1C7.8 94.6 7.8 89.4 8.7 80.4C9.2 75 12.6 71.6 18.8 70.3L23.4 69.4C28.5 68.3 29 67.3 29.5 64.3V64.2C30.3 59 34.5 42 54.1 42H78.4C98 42 102.2 59 103 64.2V64.3C103.5 67.2 104.1 68.3 109.1 69.4L113.7 70.3C119.8 71.6 123.2 75 123.8 80.4C124.8 89.8 124.7 95.1 124.7 95.1C124.7 98.2 123.8 100.9 122 102.7C120.5 104.2 118.6 105 116.3 105.1H16.2Z" fill="#05820A"/>
<path d="M16.2 104.5C14.1 104.4 12.3 103.7 10.9 102.3C9.2 100.6 8.3 98 8.4 95.1C8.4 95 8.3 89.8 9.3 80.4C9.8 75.3 13 72.1 18.9 70.9L23.5 70C28.6 68.9 29.6 67.7 30.1 64.4V64.3C30.9 59.2 35 42.6 54.1 42.6H78.4C97.5 42.6 101.6 59.2 102.4 64.3V64.4C103 67.7 103.9 68.9 109 70L113.6 70.9C119.4 72.1 122.6 75.3 123.1 80.4C124.1 89.8 124 95 124 95.1C124 98 123.1 100.6 121.5 102.3C120.1 103.7 118.3 104.4 116.2 104.5H16.2Z" fill="#00AB05"/>
<path d="M10 77.4H122.4C122.1 76.5 121.6 75.8 121.1 75.1H11.3C10.8 75.8 10.3 76.6 10 77.4Z" fill="#67E06B"/>
<path d="M35.3 69.5H34.7V82.4H35.3V69.5Z" fill="#05820A"/>
<path d="M35.3 70.7C34.9 70.7 34.6 70.5 34.4 70.3C34.2 70 34.1 69.7 34.1 69.3L34.7 65C35.5 60.1 37.5 55.7 40.3 52.7C43.7 49.1 48.3 47.2 54.1 47.2H78.2C78.9 47.2 79.4 47.6999 79.4 48.3999V69.3999C79.4 70.0999 78.9 70.6 78.2 70.6H35.3V70.7Z" fill="#05820A"/>
<path d="M78.2 47.9H54C48.4 47.9 43.9 49.7 40.6 53.2C37.9 56.1 35.9 60.4 35.2 65.2L34.6 69.5C34.6 69.7 34.6 69.8 34.7 70C34.8 70.1 35 70.2 35.1 70.2H78C78.3 70.2 78.6 69.9 78.6 69.6V48.6C78.7 48.1 78.5 47.9 78.2 47.9Z" fill="#D4ECFF"/>
<path d="M81.9 100.1H50.7V102.5H81.9V100.1Z" fill="#05820A"/>
<path d="M76.9 47.2V47.8H80.2C80.6 47.8 80.7 48.0999 80.7 48.3999V101.6H81.3V48C81.3 47.5 81 47.3 80.6 47.3H76.9V47.2Z" fill="#05820A"/>
<path d="M83.1 70.7C82.8 70.7 82.5 70.4 82.5 70.1V48C82.5 47.8 82.6 47.6 82.7 47.5C82.8 47.4 83 47.3 83.1 47.3H83.2C86.4 47.7 89.1 49.3 92.2 52.6C95 55.6 97 60 97.8 64.9L98.4 69.2C98.4 69.5 98.3 69.9 98.1 70.2C97.9 70.5 97.5 70.6 97.2 70.6H83.1V70.7Z" fill="#05820A"/>
<path d="M97.1 65.1C96.3 60.3 94.4 56.1 91.7 53.1C88.9 50.1 86.4 48.4 83.1 48V70H97.1C97.3 70 97.4 69.9 97.5 69.8C97.6 69.7 97.7 69.5 97.6 69.3L97.1 65.1Z" fill="#D4ECFF"/>
<path d="M52 102.1C52 91.8 43.6 83.4 33.3 83.4C23 83.4 14.6 91.8 14.6 102.1C14.6 102.8 14.6 103.6 14.7 104.3C15.2 104.4 15.6 104.5 16.1 104.5H51.8C52 103.7 52 102.9 52 102.1Z" fill="#6378BF"/>
<path d="M52.4 100C52.2 98.6 51.9 97 51.6 95.6C49.6 87.4 42.2 81.2 33.4 81.2C23.1 81.2 14.7 89.5999 14.7 99.8999C14.7 100.6 14.7 101.4 14.8 102.1C15.3 102.2 15.7 102.3 16.2 102.3H52.6C52.7 101.6 52.5 100.8 52.4 100Z" fill="#05820A"/>
<path d="M117.7 99.8999C117.7 89.5999 109.3 81.2 99 81.2C90.6 81.2 83.2 86.7 80.8 94.3C80.2 96.1 79.6 97.8999 79.6 99.8999C79.6 100.6 79.5 101.4 79.6 102.1C80.1 102.2 81.5 102.3 82 102.3H117.7C117.7 101.6 117.7 100.8 117.7 99.8999Z" fill="#05820A"/>
<path d="M51.9 101.5C51.9 91.3 43.6 82.9 33.3 82.9C23.1 82.9 14.7 91.2 14.7 101.5C14.7 102.2 14.7 103 14.8 103.7C15.3 103.8 15.7 103.9 16.2 103.9H51.6C51.8 103.1 51.9 102.3 51.9 101.5Z" fill="#91ED93"/>
<path d="M117.6 101.5C117.6 91.3 109.3 82.9 99 82.9C88.8 82.9 80.4 91.2 80.4 101.5C80.4 102.2 80.4 103 80.5 103.7C81 103.8 81.4 103.9 81.9 103.9H117.3C117.5 103.1 117.6 102.3 117.6 101.5Z" fill="#91ED93"/>
<path d="M52 102.1C52 91.8 43.6 83.4 33.3 83.4C23 83.4 14.6 91.8 14.6 102.1C14.6 102.8 14.6 103.6 14.7 104.3C15.2 104.4 15.6 104.5 16.1 104.5H51.8C52 103.7 52 102.9 52 102.1Z" fill="#2AC930"/>
<path d="M48.7 102.1C48.7 93.6 41.8 86.8 33.4 86.8C24.9 86.8 18.1 93.7 18.1 102.1C18.1 102.9 18.2 103.6 18.3 104.4L18.4 105.1H48.6L48.7 104.4C48.6 103.6 48.7 102.9 48.7 102.1Z" fill="#172540"/>
<path d="M33.3 116.1C41 116.1 47.2 109.8 47.2 102.1C47.2 94.4 40.9 88.2 33.3 88.2C25.6 88.2 19.3 94.5 19.3 102.1C19.4 109.8 25.6 116.1 33.3 116.1Z" fill="#3B505E"/>
<path d="M33.3 115.6C25.8 115.6 19.8 109.5 19.8 102.1C19.8 94.6 25.9 88.6 33.3 88.6C40.8 88.6 46.8 94.7 46.8 102.1C46.9 109.6 40.8 115.6 33.3 115.6Z" fill="#4A566E"/>
<path d="M80.4 102.1C80.4 91.8 88.8 83.4 99.1 83.4C109.4 83.4 117.8 91.8 117.8 102.1C117.8 102.8 117.8 103.6 117.7 104.3C117.2 104.4 116.8 104.5 116.3 104.5H80.6C80.4 103.7 80.4 102.9 80.4 102.1Z" fill="#2AC930"/>
<path d="M114.4 102.1C114.4 93.6 107.5 86.8 99.1 86.8C90.6 86.8 83.8 93.7 83.8 102.1C83.8 102.9 83.9 103.6 84 104.4L84.1 105.1H114.3L114.4 104.4C114.3 103.6 114.4 102.9 114.4 102.1Z" fill="#172540"/>
<path d="M99 116.1C106.7 116.1 113 109.8 113 102.1C113 94.4 106.7 88.2 99 88.2C91.3 88.2 85 94.5 85 102.1C85.1 109.8 91.4 116.1 99 116.1Z" fill="#3B505E"/>
<path d="M99 115.6C106.5 115.6 112.5 109.5 112.5 102.1C112.5 94.6 106.4 88.6 99 88.6C91.5 88.6 85.5 94.7 85.5 102.1C85.5 109.6 91.6 115.6 99 115.6Z" fill="#4A566E"/>
<path d="M99 110.8C103.8 110.8 107.7 106.9 107.7 102.1C107.7 97.3 103.8 93.4 99 93.4C94.2 93.4 90.3 97.3 90.3 102.1C90.3 106.9 94.2 110.8 99 110.8Z" fill="#3B505E"/>
<path d="M99 110.1C103.4 110.1 107 106.5 107 102.1C107 97.7 103.4 94.1 99 94.1C94.6 94.1 91 97.7 91 102.1C91 106.5 94.6 110.1 99 110.1Z" fill="#C1CFD6"/>
<path d="M100.8 97.2C100.8 96.4 100 95.8 99.1 95.8C98.2 95.8 97.4 96.4 97.4 97.2C97.3 98 100.8 98 100.8 97.2Z" fill="#3B505E"/>
<path d="M94.7 99.2C94 99 93.2 99.5 92.9 100.4C92.6 101.3 93 102.2 93.7 102.5C94.4 102.7 95.4 99.4 94.7 99.2Z" fill="#3B505E"/>
<path d="M94.7 105.6C94.3 106.2 94.5 107.2 95.3 107.7C96.1 108.3 97.1 108.2 97.5 107.6C97.9 107 95.1 104.9 94.7 105.6Z" fill="#3B505E"/>
<path d="M100.8 107.5C101.2 108.1 102.2 108.2 103 107.6C103.8 107 104 106.1 103.6 105.5C103.1 104.9 100.3 106.9 100.8 107.5Z" fill="#3B505E"/>
<path d="M104.5 102.4C105.2 102.2 105.6 101.2 105.3 100.3C105 99.4 104.2 98.9 103.5 99.1C102.7 99.3 103.8 102.6 104.5 102.4Z" fill="#3B505E"/>
<path d="M33.3 110.8C38.1 110.8 42 106.9 42 102.1C42 97.3 38.1 93.4 33.3 93.4C28.5 93.4 24.6 97.3 24.6 102.1C24.6 106.9 28.5 110.8 33.3 110.8Z" fill="#3B505E"/>
<path d="M33.3 110.1C37.7 110.1 41.3 106.5 41.3 102.1C41.3 97.7 37.7 94.1 33.3 94.1C28.9 94.1 25.3 97.7 25.3 102.1C25.3 106.5 28.9 110.1 33.3 110.1Z" fill="#C1CFD6"/>
<path d="M35.1 97.2C35.1 96.4 34.3 95.8 33.4 95.8C32.5 95.8 31.7 96.4 31.7 97.2C31.6 98 35.1 98 35.1 97.2Z" fill="#3B505E"/>
<path d="M29 99.2C28.3 99 27.5 99.5 27.2 100.4C26.9 101.3 27.3 102.2 28 102.5C28.7 102.7 29.7 99.4 29 99.2Z" fill="#3B505E"/>
<path d="M29 105.6C28.6 106.2 28.8 107.2 29.6 107.7C30.4 108.3 31.4 108.2 31.8 107.6C32.2 107 29.4 104.9 29 105.6Z" fill="#3B505E"/>
<path d="M35.1 107.5C35.5 108.1 36.5 108.2 37.3 107.6C38.1 107 38.3 106.1 37.9 105.5C37.4 104.9 34.6 106.9 35.1 107.5Z" fill="#3B505E"/>
<path d="M38.8 102.4C39.5 102.2 39.9 101.2 39.6 100.3C39.3 99.4 38.5 98.9 37.8 99.1C37 99.3 38.1 102.6 38.8 102.4Z" fill="#3B505E"/>
<path d="M128.1 101.6C128.1 102.2 127.6 102.5 127 102.7L121.6 104.6C121 104.8 120.5 104.1 120.5 103.5V96.7C120.5 96.1 121 95.6 121.6 95.6H127C127.6 95.6 128.1 96.1 128.1 96.7V101.6Z" fill="#B1B1BA"/>
<path d="M127 101.8L121.6 103.7C121 103.9 120.5 103.2 120.5 102.6V103.4C120.5 104 121 104.7 121.6 104.5L127 102.6C127.6 102.4 128.1 102.1 128.1 101.5V100.7C128.1 101.3 127.7 101.6 127 101.8Z" fill="#9D9DA6"/>
<path d="M127.6 96.7C127.6 96.4 127.4 96.2 127.1 96.2H121.7C121.4 96.2 121.2 96.4 121.2 96.7V98.5H127.7V96.7H127.6Z" fill="#F2F2F1"/>
<path d="M4 101.6C4 102.2 4.5 102.5 5.1 102.7L10.5 104.6C11.1 104.8 11.6 104.1 11.6 103.5V96.7C11.6 96.1 11.1 95.6 10.5 95.6H5.1C4.5 95.6 4 96.1 4 96.7V101.6Z" fill="#B1B1BA"/>
<path d="M10.5 103.8L5.1 101.9C4.5 101.7 4 101.4 4 100.8V101.6C4 102.2 4.5 102.5 5.1 102.7L10.5 104.6C11.1 104.8 11.6 104.1 11.6 103.5V102.7C11.6 103.3 11.1 103.9 10.5 103.8Z" fill="#9D9DA6"/>
<path d="M4.5 96.7C4.5 96.4 4.7 96.2 5 96.2H10.4C10.7 96.2 10.9 96.4 10.9 96.7V98.5H4.4V96.7H4.5Z" fill="#F2F2F1"/>
<path d="M75.7 83C75.7 83.7 75.1 84.3 74.4 84.3H68.3C67.6 84.3 67 83.7 67 83V82.8C67 82.1 67.6 81.5 68.3 81.5H74.4C75.1 81.5 75.7 82.1 75.7 82.8V83Z" fill="#007805"/>
<path d="M67.5 82.7C67.5 82.3 67.9 82 68.3 82H74.4C74.8 82 75.2 82.3 75.2 82.7H67.5Z" fill="#53DB57"/>
<path d="M49.3 69.7L61.5 48.2H58.7L46.4 69.7H49.3Z" fill="#F2F9FF"/>
<path d="M88.4 69.7L94.6 58.9C94.2 58 93.8 57.1 93.3 56.3L85.6 69.7H88.4Z" fill="#F2F9FF"/>
<path d="M51.7 69.7H59L71.2 48.2H63.9L51.7 69.7Z" fill="#F2F9FF"/>
<path d="M38.1 69.5C38.1 71.5 37.4 73.1 35.4 73.1C33.4 73.1 31.8 71.5 31.8 69.5V67.1C31.8 65.1 33.4 63.5 35.4 63.5C37.4 63.5 38.1 65.1 38.1 67.1V69.5Z" fill="#007805"/>
<path d="M32.2 69.5V67.1C32.2 65.3 33.7 63.9 35.4 63.9C37.3 63.9 37.8 65.7 37.8 67.1V69.5C37.8 71 32.2 71.3 32.2 69.5Z" fill="#088C0D"/>
<path d="M35.5 67.6H32.5V68.3H35.5V67.6Z" fill="#00AB05"/>
<path d="M35.5 64.2C34 64.2 32.9 65.0999 32.6 66.3999H35.5V64.2Z" fill="#00AB05"/>
<path d="M21.5 80.9C21.5 79.9 20.6 79 19.6 79C18.6 79 17.7 79.8 17.7 80.9C17.7 81.9 18.6 82.8 19.6 82.8C20.6 82.8 21.5 82 21.5 80.9Z" fill="#C5C5C5"/>
<path d="M19.6 79.2C18.9 79.2 18.4 79.6 18.1 80.1H21.1C20.8 79.6 20.2 79.2 19.6 79.2Z" fill="#F2F2F2"/>
<path d="M19.6 82.6C20.3 82.6 20.8 82.2 21.1 81.7H18.1C18.4 82.2 18.9 82.6 19.6 82.6Z" fill="#A1A1A1"/>
<path d="M21 80.9C21 80.1 20.3 79.4 19.5 79.4C18.7 79.4 18 80.1 18 80.9C18 81.7 18.7 82.4 19.5 82.4C20.4 82.4 21 81.7 21 80.9Z" fill="#EB7D00"/>
<path d="M21 80.9C21 80.1 20.4 79.5 19.6 79.5C18.8 79.5 18.2 80.1 18.2 80.9C18.2 81.7 18.8 82.3 19.6 82.3C20.4 82.3 21 81.7 21 80.9Z" fill="#FFC60A"/>
<path d="M19.6 81.8C19.2 81.8 18.9 81.7 18.6 81.6C18.8 81.9 19.2 82.1 19.6 82.1C20 82.1 20.4 81.9 20.6 81.6C20.3 81.8 19.9 81.8 19.6 81.8Z" fill="#EB7D00"/>
<path d="M20.7 80.9C20.7 80.3 20.2 79.8 19.6 79.8C19 79.8 18.5 80.3 18.5 80.9C18.5 81.5 20.7 81.5 20.7 80.9Z" fill="#FFEF24"/>
<path d="M20.4 80.6H18.7C18.7 80.7 18.7 80.7 18.7 80.8H20.5C20.5 80.7 20.4 80.6 20.4 80.6Z" fill="#FDFFE6"/>
<path d="M19.6 80C19.3 80 19.1 80.1 18.9 80.3H20.3C20.1 80.1 19.9 80 19.6 80Z" fill="#FDFFE6"/>
<path d="M281.2 185.1C281.2 188 229.6 190.3 166 190.3C102.4 190.3 50.8 188 50.8 185.1C50.8 182.2 102.4 179.9 166 179.9C229.6 179.9 281.2 182.2 281.2 185.1Z" fill="#ECECEC"/>
<path d="M163.9 136.5L68.1 157L69.6 164.2L168.5 158.2L261.2 123.2L259.7 116L163.9 136.5Z" fill="#304B61"/>
<path d="M222.6 123.9C229.2 125.2 230.7 125.5 239.1 124.8C248.6 124 229.8 131 229.8 131L167.7 154.5L168.5 158.2L261.2 123.2L260.7 121L260.4 119.5L259.7 116L222.6 123.9Z" fill="#2A4357"/>
<path d="M113 147.4C107.5 151.3 100.4 154.4 92.4 157.2C83.4 160.3 101.5 158.5 101.5 158.5L167.8 154.5L168.6 158.2L69.7 164.2L69.2 162L68.9 160.5L68.2 157L113 147.4Z" fill="#2A4357"/>
<path d="M266.3 105.7H256.4V119.4H266.3V105.7Z" fill="#243B4D"/>
<path d="M325 74H197.6C195.8 74 194.3 75.5 194.3 77.3C194.3 79.1 195.8 80.6 197.6 80.6H200.1C202.1 80.8 203.7 82.2 204.3 84C207.8 96.3 231.2 108.5 260.8 108.5H261.3C291 108.5 314.9 96.2 318.3 83.8C318.9 82 320.5 80.7 322.5 80.5H325C326.8 80.5 328.3 79 328.3 77.2C328.3 75.4 326.8 74 325 74Z" fill="#435F75"/>
<path d="M196.9 80.4C197.1 80.5 197.4 80.5 197.6 80.5H200.1C201.7 80.7 203.1 81.6 203.8 82.9H302.5C302.6 83.6 302.7 84.2 302.7 84.9C302.7 96.5 285.1 108.3 254.9 108.3C256.8 108.4 258.8 108.5 260.7 108.5H261.2C290.9 108.5 314.8 96.2 318.2 83.8C318.3 83.5 318.5 83.2 318.6 82.9C318.7 82.7 318.8 82.6 318.9 82.5C319.7 81.5 320.9 80.7 322.3 80.6H324.8C325 80.6 325.3 80.6 325.5 80.5H196.9V80.4Z" fill="#304B61"/>
<path d="M251.8 100.7C251.9 99.8 251.3 99.1 250.4 99C249.9 98.9 249.5 98.9 249 98.8C248.2 98.7 247.4 99.3 247.3 100.1C247.2 100.9 247.8 101.7 248.6 101.8C249.1 101.9 249.6 101.9 250.1 102C250.2 102 250.2 102 250.3 102C251.1 102.1 251.8 101.5 251.8 100.7ZM243.5 99.6C243.7 98.8 243.1 97.9 242.3 97.8C237.2 96.7 232.6 95.2 228.6 93.3C224.9 91.5 221.8 89.4 220 87.4C219.4 86.8 218.5 86.7 217.8 87.3C217.2 87.9 217.1 88.8 217.7 89.5C219.2 91.2 222 93.6 227.2 96.2C231.4 98.2 236.2 99.8 241.6 101C241.7 101 241.8 101 241.9 101C242.7 100.8 243.3 100.3 243.5 99.6Z" fill="#839BAD"/>
<path d="M253.2 119.5C253.2 115 256.9 111.3 261.4 111.3C265.9 111.3 269.6 115 269.6 119.5C269.6 124 265.9 127.7 261.4 127.7C256.8 127.6 253.2 124 253.2 119.5Z" fill="#304B61"/>
<path d="M261.3 111.2C256.7 111.2 253 114.9 253 119.5C253 124.1 256.7 127.8 261.3 127.8C265.9 127.8 269.6 124.1 269.6 119.5C269.6 114.9 265.9 111.2 261.3 111.2ZM261.3 127.2C257.1 127.2 253.6 123.8 253.6 119.5C253.6 115.3 257 111.8 261.3 111.8C265.5 111.8 269 115.2 269 119.5C269 123.7 265.6 127.2 261.3 127.2Z" fill="#4C6780"/>
<path d="M256 119.5C256 116.6 258.4 114.2 261.3 114.2C264.2 114.2 266.6 116.6 266.6 119.5C266.6 122.4 264.2 124.8 261.3 124.8C258.4 124.8 256 122.4 256 119.5Z" fill="#47627A"/>
<path d="M72.8 146.9H62.9V160.6H72.8V146.9Z" fill="#243B4D"/>
<path d="M131.6 115.1H4.2C2.4 115.1 0.900002 116.6 0.900002 118.4C0.900002 120.2 2.4 121.7 4.2 121.7H6.7C8.7 121.9 10.3 123.3 10.9 125.1C14.4 137.4 37.8 149.6 67.4 149.6H67.9C97.6 149.6 121.5 137.3 124.9 124.9C125.5 123.1 127.1 121.8 129.1 121.6H131.6C133.4 121.6 134.9 120.1 134.9 118.3C134.9 116.6 133.4 115.1 131.6 115.1Z" fill="#435F75"/>
<path d="M3.4 121.6C3.6 121.7 3.9 121.7 4.1 121.7H6.6C8.2 121.9 9.6 122.8 10.3 124.1H109C109.1 124.8 109.2 125.4 109.2 126.1C109.2 137.7 91.6 149.5 61.4 149.5C63.3 149.6 65.3 149.7 67.2 149.7H67.7C97.4 149.7 121.3 137.4 124.7 125C124.8 124.7 125 124.4 125.1 124.1C125.2 123.9 125.3 123.8 125.4 123.7C126.2 122.7 127.4 121.9 128.8 121.8H131.3C131.5 121.8 131.8 121.8 132 121.7H3.4V121.6Z" fill="#304B61"/>
<path d="M58.4 141.9C58.5 141 57.9 140.3 57 140.2C56.5 140.1 56.1 140.1 55.6 140C54.8 139.9 54 140.5 53.9 141.3C53.8 142.1 54.4 142.9 55.2 143C55.7 143.1 56.2 143.1 56.7 143.2C56.8 143.2 56.8 143.2 56.9 143.2C57.6 143.2 58.3 142.6 58.4 141.9ZM50 140.7C50.2 139.9 49.6 139 48.8 138.9C43.7 137.8 39.1 136.3 35.1 134.4C31.4 132.6 28.3 130.5 26.5 128.5C25.9 127.9 25 127.8 24.3 128.4C23.7 129 23.6 129.9 24.2 130.6C25.7 132.3 28.5 134.7 33.7 137.3C37.9 139.3 42.8 140.9 48.1 142.1C48.2 142.1 48.3 142.1 48.4 142.1C49.2 141.9 49.9 141.4 50 140.7Z" fill="#839BAD"/>
<path d="M76 160.6C76 156.1 72.3 152.4 67.8 152.4C63.3 152.4 59.6 156.1 59.6 160.6C59.6 165.1 63.3 168.8 67.8 168.8C72.4 168.8 76 165.1 76 160.6Z" fill="#304B61"/>
<path d="M67.9 152.3C72.5 152.3 76.2 156 76.2 160.6C76.2 165.2 72.5 168.9 67.9 168.9C63.3 168.9 59.6 165.2 59.6 160.6C59.6 156 63.3 152.3 67.9 152.3ZM67.9 168.3C72.1 168.3 75.6 164.9 75.6 160.6C75.6 156.4 72.2 152.9 67.9 152.9C63.7 152.9 60.2 156.3 60.2 160.6C60.2 164.8 63.6 168.3 67.9 168.3Z" fill="#4C6780"/>
<path d="M73.2 160.6C73.2 157.7 70.8 155.3 67.9 155.3C65 155.3 62.6 157.7 62.6 160.6C62.6 163.5 65 165.9 67.9 165.9C70.8 165.9 73.2 163.5 73.2 160.6Z" fill="#47627A"/>
<path d="M163.9 136.5L157.9 137.8L153.4 159.1L168.5 158.2L177.6 154.8L173.3 134.5L163.9 136.5ZM166 147.3C165.5 147.3 165.1 146.9 165.1 146.4C165.1 145.9 165.5 145.5 166 145.5C166.5 145.5 166.9 145.9 166.9 146.4C166.9 146.9 166.5 147.3 166 147.3Z" fill="#273F52"/>
<path d="M188.6 174.4C188.6 174.4 184 174.2 180.8 171.8C178.5 170.1 177.7 166.3 177.7 166.3L170.2 130.4C169.8 128.3 168 126.9 166 126.9C164 126.9 162.2 128.3 161.8 130.4L154.3 166.3C154.3 166.3 153.5 170.1 151.2 171.8C148 174.2 143.4 174.4 143.4 174.4C139.5 174.7 136.4 177.5 136.4 181.4V183.5C136.4 184.7 137.1 185.2 138.1 185.2H166H193.9C194.9 185.2 195.6 184.8 195.6 183.5V181.4C195.6 177.5 192.5 174.8 188.6 174.4ZM166 149.6C164.2 149.6 162.8 148.2 162.8 146.4C162.8 144.6 164.2 143.2 166 143.2C167.8 143.2 169.2 144.6 169.2 146.4C169.2 148.1 167.7 149.6 166 149.6Z" fill="#405E75"/>
<path d="M136.3 182.9V183.5C136.3 184.7 137 185.2 138 185.2H166H193.9C194.9 185.2 195.6 184.8 195.6 183.5V182.9H136.3Z" fill="#314A5C"/>
<path d="M169.4 146.3C169.4 144.4 167.9 142.9 166 142.9C164.1 142.9 162.6 144.4 162.6 146.3C162.6 148.2 164.1 149.7 166 149.7C167.8 149.7 169.4 148.2 169.4 146.3Z" fill="#C7C7C7"/>
</svg>
