<svg width="375" height="203" viewBox="0 0 375 203" fill="none" xmlns="http://www.w3.org/2000/svg">
<g clip-path="url(#clip0_1411_1725)">
<path d="M295.367 67.4304C269.956 -10.7908 133.391 -14.1958 122.897 73.5753C122.897 73.5753 114.807 75.1846 107.661 74.0807C68.7278 68.1087 0.58466 142.779 52.8809 199.838H344.914C376.501 145.359 353.813 89.6026 295.367 67.4304Z" fill="#982F54"/>
<path d="M225.192 116.417L224.687 115.925C257.284 82.367 258.573 64.0121 260.539 36.2403C261.229 26.3978 262.013 15.2785 264.271 1.84482C248.836 9.02717 236.323 18.9761 227.065 31.4255C219.573 41.5207 214.18 53.2652 211.059 66.3397C205.732 88.6316 208.88 107.292 208.907 107.479L208.216 107.598C208.189 107.412 205.015 88.6183 210.368 66.1934C213.516 53.0124 218.936 41.1749 226.494 31.0132C235.938 18.2977 248.756 8.17593 264.577 0.913775L265.188 0.63446L265.082 1.2862C262.744 14.9726 261.947 26.2914 261.243 36.2669C259.277 64.2249 257.975 82.6862 225.192 116.417Z" fill="#DADADA"/>
<path d="M219.055 109.208L218.378 109.035C218.511 108.529 231.489 58.3593 247.814 30.5077L248.425 30.8668C232.139 58.6386 219.175 108.716 219.055 109.208Z" fill="#DADADA"/>
<path d="M237.054 54.0898L236.35 54.0632C236.35 53.9568 236.642 43.8882 231.396 34.192L232.02 33.8595C237.36 43.7286 237.054 53.9834 237.054 54.0898Z" fill="#DADADA"/>
<path d="M229.562 74.4929L229.071 73.9875C236.536 66.5657 246.299 64.2647 246.392 64.2381L246.552 64.9298C246.445 64.9564 236.881 67.2042 229.562 74.4929Z" fill="#DADADA"/>
<path d="M249.991 137.924L249.925 137.219C262.637 135.955 272.945 127.43 281.446 111.15C288.978 96.7183 294.145 78.2969 299.153 60.4608C302.394 48.9025 305.462 37.9694 309.049 28.5126C272.467 37.6634 257.31 66.6988 257.164 66.9914L256.54 66.6722C256.686 66.3796 272.161 36.7191 309.54 27.6613L310.191 27.5017L309.952 28.1269C306.286 37.7033 303.151 48.8493 299.843 60.647C294.836 78.5098 289.655 96.9711 282.084 111.469C273.436 127.988 262.956 136.634 249.991 137.924Z" fill="#DADADA"/>
<path d="M246.87 120.633L246.232 120.354C246.444 119.875 267.804 71.9658 285.763 58.0267L286.188 58.5854C278.829 64.2913 269.703 76.8339 259.794 94.8297C252.289 108.45 246.923 120.513 246.87 120.633Z" fill="#DADADA"/>
<path d="M270.487 76.7009L269.796 76.5679C269.81 76.5147 270.793 71.088 271.683 57.9869L272.387 58.0401C271.497 71.1811 270.487 76.6477 270.487 76.7009Z" fill="#DADADA"/>
<path d="M258.506 97.1041L258.107 96.5189C258.2 96.4524 267.964 89.7887 280.782 86.8626L280.941 87.5542C268.256 90.4405 258.599 97.0376 258.506 97.1041Z" fill="#DADADA"/>
<path d="M88.3203 183.904C56.7593 151.411 55.4974 133.641 53.5978 106.734C52.9204 97.1174 52.15 86.2241 49.9051 73.0432L49.7988 72.3914L50.4099 72.6708C84.9464 88.4986 97.8577 115.605 102.613 135.543C107.767 157.143 104.712 175.232 104.685 175.418L103.995 175.299C104.021 175.126 107.05 157.143 101.922 135.689C97.2201 116.031 84.5213 89.3498 50.7154 73.6018C52.8806 86.5301 53.6377 97.2371 54.3151 106.707C56.2014 133.455 57.45 151.131 88.8384 183.439L88.3203 183.904Z" fill="#DADADA"/>
<path d="M94.2312 176.961C94.1117 176.482 81.6254 128.254 65.9512 101.52L66.5622 101.161C82.2896 127.988 94.7891 176.296 94.922 176.788L94.2312 176.961Z" fill="#DADADA"/>
<path d="M76.8966 123.878C76.8966 123.785 76.6044 113.903 81.7583 104.393L82.3826 104.725C77.3216 114.062 77.6006 123.745 77.6139 123.852L76.8966 123.878Z" fill="#DADADA"/>
<path d="M84.1222 143.523C77.0688 136.514 67.8635 134.346 67.7705 134.319L67.9299 133.628C68.0229 133.654 77.4274 135.862 84.627 143.018L84.1222 143.523Z" fill="#DADADA"/>
<path d="M66.6289 196.247C39.5045 193.72 28.652 163.621 19.0748 137.059C15.8337 128.081 12.7785 119.609 9.23188 112.307L8.91309 111.668L9.6171 111.815C27.9347 115.632 40.5671 123.639 47.926 129.677C55.9226 136.235 59.6286 141.967 59.6685 142.034L59.0707 142.419C58.9246 142.193 44.4325 120.061 10.1617 112.666C13.5888 119.848 16.5775 128.108 19.7257 136.846C29.2365 163.208 40.0092 193.082 66.682 195.569L66.6289 196.247Z" fill="#DADADA"/>
<path d="M69.3249 183.173C69.1257 182.8 48.6296 146.383 31.813 135.703L32.1849 135.104C49.1477 145.878 69.7234 182.468 69.9227 182.827L69.3249 183.173Z" fill="#DADADA"/>
<path d="M46.7039 149.562C46.6906 149.522 45.6944 145.372 44.7114 135.37L45.4154 135.304C46.3984 145.239 47.3814 149.349 47.3946 149.389L46.7039 149.562Z" fill="#DADADA"/>
<path d="M58.1808 165.217C58.0879 165.163 48.9755 160.056 37.0737 157.702L37.2066 157.01C49.2279 159.378 58.4332 164.552 58.5262 164.605L58.1808 165.217Z" fill="#DADADA"/>
<path d="M318.759 199.373L318.586 198.695C348.447 191.392 354.079 159.271 359.525 128.214C361.438 117.308 363.417 106.042 366.432 96.2927C336.704 101.999 319.874 122.548 310.961 138.842C301.238 156.638 298.595 173.33 298.581 173.503L297.891 173.397C297.917 173.224 300.561 156.425 310.35 138.522C319.383 121.99 336.532 101.094 366.884 95.4947L367.455 95.3883L367.282 95.9469C364.174 105.776 362.168 117.241 360.229 128.334C354.73 159.617 349.058 191.964 318.759 199.373Z" fill="#DADADA"/>
<path d="M316.195 181.763L315.518 181.577C315.624 181.178 326.636 141.994 344.542 126.512L345.006 127.044C327.26 142.38 316.315 181.377 316.195 181.763Z" fill="#DADADA"/>
<path d="M328.854 148.897L328.164 148.751C328.177 148.671 329.784 140.69 329.226 128.959L329.93 128.919C330.501 140.757 328.868 148.817 328.854 148.897Z" fill="#DADADA"/>
<path d="M319.383 165.962L318.958 165.403C319.051 165.323 328.881 157.728 342.456 152.9L342.695 153.565C329.226 158.354 319.489 165.882 319.383 165.962Z" fill="#DADADA"/>
<path d="M249.858 55.4731C248.596 55.4731 247.573 54.4489 247.573 53.1854C247.573 51.9218 248.596 50.8976 249.858 50.8976C251.12 50.8976 252.143 51.9218 252.143 53.1854C252.143 54.4489 251.12 55.4731 249.858 55.4731ZM249.858 51.6026C248.981 51.6026 248.277 52.3075 248.277 53.1854C248.277 54.0632 248.981 54.7681 249.858 54.7681C250.735 54.7681 251.439 54.0632 251.439 53.1854C251.439 52.3075 250.735 51.6026 249.858 51.6026Z" fill="#DADADA"/>
<path d="M60.4786 90.8395C59.2167 90.8395 58.1938 89.8153 58.1938 88.5518C58.1938 87.2882 59.2167 86.2641 60.4786 86.2641C61.7405 86.2641 62.7633 87.2882 62.7633 88.5518C62.7633 89.8153 61.7405 90.8395 60.4786 90.8395ZM60.4786 86.969C59.6019 86.969 58.8979 87.6739 58.8979 88.5518C58.8979 89.4296 59.6019 90.1346 60.4786 90.1346C61.3553 90.1346 62.0593 89.4296 62.0593 88.5518C62.0593 87.6739 61.3553 86.969 60.4786 86.969Z" fill="#DADADA"/>
<path d="M272.347 141.794C271.085 141.794 270.062 140.77 270.062 139.507C270.062 138.243 271.085 137.219 272.347 137.219C273.609 137.219 274.631 138.243 274.631 139.507C274.631 140.77 273.609 141.794 272.347 141.794ZM272.347 137.924C271.47 137.924 270.766 138.629 270.766 139.507C270.766 140.384 271.47 141.089 272.347 141.089C273.223 141.089 273.927 140.384 273.927 139.507C273.927 138.629 273.223 137.924 272.347 137.924Z" fill="#DADADA"/>
<path d="M350.067 117.401C348.805 117.401 347.782 116.377 347.782 115.113C347.782 113.85 348.805 112.826 350.067 112.826C351.329 112.826 352.352 113.85 352.352 115.113C352.338 116.377 351.316 117.401 350.067 117.401ZM350.067 113.53C349.19 113.53 348.486 114.235 348.486 115.113C348.486 115.991 349.19 116.696 350.067 116.696C350.944 116.696 351.648 115.991 351.648 115.113C351.648 114.235 350.93 113.53 350.067 113.53Z" fill="#DADADA"/>
<path d="M264.802 110.884C265.675 110.884 266.383 110.175 266.383 109.301C266.383 108.427 265.675 107.718 264.802 107.718C263.929 107.718 263.221 108.427 263.221 109.301C263.221 110.175 263.929 110.884 264.802 110.884Z" fill="#DADADA"/>
<path d="M337.582 169.18C338.455 169.18 339.162 168.472 339.162 167.598C339.162 166.723 338.455 166.015 337.582 166.015C336.709 166.015 336.001 166.723 336.001 167.598C336.001 168.472 336.709 169.18 337.582 169.18Z" fill="#DADADA"/>
<path d="M222.807 64.0912C222.808 63.2171 222.102 62.5074 221.229 62.5062C220.356 62.5049 219.647 63.2126 219.646 64.0867C219.645 64.9609 220.351 65.6705 221.224 65.6717C222.097 65.673 222.806 64.9653 222.807 64.0912Z" fill="#DADADA"/>
<path d="M46.6642 174.341C47.5372 174.341 48.2449 173.632 48.2449 172.758C48.2449 171.884 47.5372 171.175 46.6642 171.175C45.7912 171.175 45.0835 171.884 45.0835 172.758C45.0835 173.632 45.7912 174.341 46.6642 174.341Z" fill="#DADADA"/>
<path d="M91.6805 65.0229C91.4812 65.0229 91.2687 64.9963 91.0694 64.9298L86.6992 63.6263C86.1546 63.4667 85.703 63.0943 85.4373 62.5889C85.1717 62.0835 85.1053 61.5115 85.2779 60.9662L86.7657 56.0184C84.9193 55.0341 83.219 53.7971 81.718 52.3474L77.4541 55.2336C76.4844 55.8854 75.1561 55.6326 74.4919 54.6617L71.9415 50.8843C71.6227 50.4188 71.5032 49.8469 71.6095 49.2882C71.7157 48.7296 72.0345 48.2508 72.5127 47.9316L76.7235 45.0852C75.8335 42.9837 75.2756 40.7492 75.0631 38.4482L70.0686 37.8763C69.4974 37.8098 68.9927 37.5304 68.6473 37.0782C68.2886 36.6393 68.1425 36.0807 68.1957 35.5087L68.7137 30.9865C68.8465 29.8161 69.9092 28.9781 71.0781 29.1111L76.0062 29.6831C76.6704 27.6082 77.6268 25.653 78.8621 23.8574L75.4616 20.3327C75.0631 19.9204 74.8506 19.3884 74.8639 18.8164C74.8771 18.2445 75.103 17.7125 75.5147 17.3268L78.809 14.1745C79.6591 13.3632 81.0007 13.3898 81.8243 14.2277L85.1982 17.7391C87.111 16.5154 89.1965 15.5844 91.3882 14.9991L91.0694 10.171C90.9897 9.00054 91.8797 7.98969 93.0619 7.90989L97.6181 7.61727C98.8003 7.53747 99.8098 8.42862 99.8763 9.59907L100.195 14.4272C102.453 14.7331 104.632 15.3716 106.691 16.3425L109.586 12.4321C110.277 11.4878 111.619 11.2883 112.562 11.9799L116.228 14.6799C116.68 15.0124 116.985 15.5179 117.065 16.0765C117.145 16.6351 117.012 17.1937 116.666 17.6593L113.744 21.6096C115.205 23.2322 116.401 25.0544 117.33 27.0229L122.152 25.8259C123.295 25.5466 124.45 26.2382 124.729 27.3687L125.832 31.7846C125.965 32.3299 125.885 32.9018 125.593 33.3939C125.3 33.8861 124.836 34.2319 124.278 34.3649L119.403 35.5753C119.496 37.8763 119.23 40.164 118.606 42.3719L123.149 44.6463C123.653 44.899 124.039 45.3379 124.211 45.8833C124.384 46.4286 124.344 47.0005 124.092 47.5059L122.046 51.5759C121.515 52.6267 120.24 53.0523 119.19 52.5203L114.594 50.2193C113.292 51.8553 111.778 53.305 110.065 54.5154L112.177 59.2371C112.416 59.7558 112.429 60.3278 112.23 60.8598C112.03 61.3918 111.632 61.8174 111.114 62.0436L106.956 63.9057C105.88 64.3845 104.618 63.9057 104.14 62.8416L102.015 58.1066C100.899 58.346 99.77 58.5189 98.6276 58.5854C97.4853 58.6652 96.3429 58.6519 95.2138 58.5455L93.7128 63.5199C93.4472 64.4244 92.597 65.0229 91.6805 65.0229ZM81.7977 51.4429L81.997 51.6424C83.5644 53.1986 85.3709 54.5154 87.3369 55.5262L87.6025 55.6592L85.9554 61.179C85.8491 61.5381 85.889 61.9238 86.0617 62.2564C86.2476 62.5889 86.5399 62.8416 86.9118 62.948L91.282 64.2515C92.0391 64.4776 92.8361 64.052 93.0619 63.2938L94.7223 57.7607L95.0146 57.7873C96.2101 57.9071 97.4056 57.9337 98.6011 57.8539C99.7966 57.774 100.992 57.6011 102.148 57.3218L102.427 57.2553L104.791 62.5224C105.11 63.2406 105.96 63.5598 106.677 63.2406L110.835 61.3785C111.18 61.2189 111.446 60.9396 111.592 60.5805C111.725 60.2214 111.712 59.8356 111.566 59.4898L109.214 54.2627L109.453 54.0898C111.273 52.8262 112.894 51.2966 114.249 49.5409L114.421 49.3148L119.535 51.8686C120.24 52.2277 121.103 51.9351 121.448 51.2301L123.494 47.1601C123.667 46.8143 123.693 46.4286 123.574 46.0695C123.454 45.7104 123.202 45.4177 122.856 45.2448L117.782 42.7044L117.862 42.4251C118.539 40.1241 118.818 37.7167 118.699 35.2959L118.685 35.0033L124.132 33.6467C124.503 33.5536 124.809 33.3274 125.008 32.9949C125.207 32.6757 125.261 32.29 125.168 31.9176L124.065 27.5018C123.879 26.7436 123.095 26.2781 122.338 26.4643L116.959 27.8077L116.839 27.5417C115.896 25.4535 114.621 23.5382 113.053 21.8357L112.854 21.6229L116.122 17.207C116.348 16.9011 116.44 16.5287 116.387 16.143C116.334 15.7706 116.135 15.4381 115.829 15.2119L112.163 12.5119C111.526 12.0464 110.636 12.1794 110.171 12.8178L106.93 17.207L106.664 17.074C104.512 16.0233 102.214 15.345 99.8364 15.0656L99.5442 15.0257L99.1988 9.61237C99.1457 8.82763 98.4682 8.2291 97.6845 8.28231L93.1284 8.57492C92.3446 8.62812 91.7469 9.30646 91.8 10.0912L92.1587 15.5046L91.8797 15.5711C89.5552 16.1696 87.3767 17.1272 85.3709 18.4573L85.1318 18.6169L81.3461 14.6932C80.8015 14.1213 79.8982 14.108 79.327 14.6533L76.0328 17.8056C75.7538 18.0716 75.6077 18.4307 75.5944 18.8031C75.5812 19.1888 75.7273 19.548 75.9929 19.814L79.8052 23.7643L79.6326 24.0037C78.3042 25.8791 77.2947 27.954 76.6173 30.1486L76.5375 30.4279L71.025 29.7895C70.2413 29.6964 69.5373 30.255 69.4443 31.0397L68.9262 35.562C68.8864 35.9344 68.9927 36.3068 69.2185 36.6127C69.4576 36.9186 69.7896 37.1048 70.1749 37.1447L75.7405 37.7832L75.7671 38.0758C75.9531 40.4965 76.5508 42.8374 77.5205 45.032L77.6401 45.298L72.9378 48.4769C72.619 48.6897 72.4065 49.0089 72.34 49.3813C72.2736 49.7537 72.34 50.1395 72.5659 50.4454L75.1162 54.2228C75.5546 54.8745 76.4446 55.0474 77.0954 54.6085L81.7977 51.4429ZM97.2063 49.3547C90.5381 49.3547 84.906 44.1675 84.4677 37.424C84.016 30.4013 89.3559 24.3229 96.396 23.8574C99.7966 23.6313 103.091 24.7485 105.654 26.9963C108.218 29.2441 109.759 32.3565 109.972 35.7615C110.197 39.1664 109.068 42.4517 106.823 45.0054C104.565 47.5724 101.457 49.102 98.0432 49.3281C97.7642 49.3414 97.4853 49.3547 97.2063 49.3547ZM97.2329 24.5357C96.9672 24.5357 96.7016 24.549 96.4226 24.5623C89.781 25.0012 84.72 30.7471 85.1451 37.3841C85.5702 44.0212 91.3351 49.0621 97.9767 48.6365C101.191 48.4237 104.14 46.9739 106.266 44.5532C108.391 42.1325 109.453 39.0334 109.241 35.8147C109.028 32.5959 107.581 29.6565 105.163 27.5417C102.958 25.5732 100.168 24.5357 97.2329 24.5357Z" fill="#DADADA"/>
<path d="M204.669 199.493H100.129C96.5162 199.493 93.5806 196.553 93.5806 192.935V39.9512C93.5806 36.3334 96.5162 33.394 100.129 33.394H204.669C208.282 33.394 211.217 36.3334 211.217 39.9512V192.949C211.217 196.566 208.295 199.493 204.669 199.493Z" fill="#752742"/>
<path d="M173.134 40.696H131.677V47.6656H173.134V40.696Z" fill="#D3DFFF"/>
<path d="M199.488 58.2928H105.323V79.2014H199.488V58.2928Z" fill="#DADADA"/>
<path d="M195.37 61.1525H109.44V76.3418H195.37V61.1525Z" fill="white"/>
<path d="M174.927 97.3435H168.524C166.598 97.3435 165.044 95.7874 165.044 93.8588V92.3824C165.044 90.4538 166.598 88.8976 168.524 88.8976H174.927C176.853 88.8976 178.407 90.4538 178.407 92.3824V93.8588C178.407 95.7874 176.853 97.3435 174.927 97.3435Z" fill="#AD2656"/>
<path d="M196.007 97.3435H189.605C187.679 97.3435 186.125 95.7874 186.125 93.8588V92.3824C186.125 90.4538 187.679 88.8976 189.605 88.8976H196.007C197.933 88.8976 199.487 90.4538 199.487 92.3824V93.8588C199.487 95.7874 197.933 97.3435 196.007 97.3435Z" fill="#AD2656"/>
<path d="M197.827 118.571H184.982C184.066 118.571 183.322 117.827 183.322 116.909V109.194C183.322 108.277 184.066 107.532 184.982 107.532H197.827C198.744 107.532 199.488 108.277 199.488 109.194V116.909C199.488 117.827 198.744 118.571 197.827 118.571Z" fill="#AD2656"/>
<path d="M172.044 118.571H159.199C158.282 118.571 157.539 117.827 157.539 116.909V109.194C157.539 108.277 158.282 107.532 159.199 107.532H172.044C172.96 107.532 173.704 108.277 173.704 109.194V116.909C173.704 117.827 172.96 118.571 172.044 118.571Z" fill="#AD2656"/>
<path d="M146.262 118.571H133.417C132.5 118.571 131.756 117.827 131.756 116.909V109.194C131.756 108.277 132.5 107.532 133.417 107.532H146.262C147.178 107.532 147.922 108.277 147.922 109.194V116.909C147.922 117.827 147.178 118.571 146.262 118.571Z" fill="#AD2656"/>
<path d="M120.478 118.571H107.634C106.717 118.571 105.973 117.827 105.973 116.909V109.194C105.973 108.277 106.717 107.532 107.634 107.532H120.478C121.395 107.532 122.139 108.277 122.139 109.194V116.909C122.126 117.827 121.395 118.571 120.478 118.571Z" fill="#AD2656"/>
<path d="M197.827 138.509H184.982C184.066 138.509 183.322 137.764 183.322 136.846V129.132C183.322 128.214 184.066 127.469 184.982 127.469H197.827C198.744 127.469 199.488 128.214 199.488 129.132V136.846C199.488 137.764 198.744 138.509 197.827 138.509Z" fill="#AD2656"/>
<path d="M172.044 138.509H159.199C158.282 138.509 157.539 137.764 157.539 136.846V129.132C157.539 128.214 158.282 127.469 159.199 127.469H172.044C172.96 127.469 173.704 128.214 173.704 129.132V136.846C173.704 137.764 172.96 138.509 172.044 138.509Z" fill="#D3DFFF"/>
<path d="M146.262 138.509H133.417C132.5 138.509 131.756 137.764 131.756 136.846V129.132C131.756 128.214 132.5 127.469 133.417 127.469H146.262C147.178 127.469 147.922 128.214 147.922 129.132V136.846C147.922 137.764 147.178 138.509 146.262 138.509Z" fill="#D3DFFF"/>
<path d="M120.478 138.509H107.634C106.717 138.509 105.973 137.764 105.973 136.846V129.132C105.973 128.214 106.717 127.469 107.634 127.469H120.478C121.395 127.469 122.139 128.214 122.139 129.132V136.846C122.126 137.764 121.395 138.509 120.478 138.509Z" fill="#D3DFFF"/>
<path d="M197.827 158.447H184.982C184.066 158.447 183.322 157.702 183.322 156.784V149.07C183.322 148.152 184.066 147.407 184.982 147.407H197.827C198.744 147.407 199.488 148.152 199.488 149.07V156.784C199.488 157.702 198.744 158.447 197.827 158.447Z" fill="#1F3C88"/>
<path d="M172.044 158.447H159.199C158.282 158.447 157.539 157.702 157.539 156.784V149.07C157.539 148.152 158.282 147.407 159.199 147.407H172.044C172.96 147.407 173.704 148.152 173.704 149.07V156.784C173.704 157.702 172.96 158.447 172.044 158.447Z" fill="#D3DFFF"/>
<path d="M146.262 158.447H133.417C132.5 158.447 131.756 157.702 131.756 156.784V149.07C131.756 148.152 132.5 147.407 133.417 147.407H146.262C147.178 147.407 147.922 148.152 147.922 149.07V156.784C147.922 157.702 147.178 158.447 146.262 158.447Z" fill="#D3DFFF"/>
<path d="M120.478 158.447H107.634C106.717 158.447 105.973 157.702 105.973 156.784V149.07C105.973 148.152 106.717 147.407 107.634 147.407H120.478C121.395 147.407 122.139 148.152 122.139 149.07V156.784C122.126 157.702 121.395 158.447 120.478 158.447Z" fill="#D3DFFF"/>
<path d="M197.827 179.089H184.982C184.066 179.089 183.322 178.345 183.322 177.427V169.712C183.322 168.795 184.066 168.05 184.982 168.05H197.827C198.744 168.05 199.488 168.795 199.488 169.712V177.427C199.488 178.345 198.744 179.089 197.827 179.089Z" fill="#FBC343"/>
<path d="M172.044 179.089H159.199C158.282 179.089 157.539 178.345 157.539 177.427V169.712C157.539 168.795 158.282 168.05 159.199 168.05H172.044C172.96 168.05 173.704 168.795 173.704 169.712V177.427C173.704 178.345 172.96 179.089 172.044 179.089Z" fill="#D3DFFF"/>
<path d="M146.262 179.089H133.417C132.5 179.089 131.756 178.345 131.756 177.427V169.712C131.756 168.795 132.5 168.05 133.417 168.05H146.262C147.178 168.05 147.922 168.795 147.922 169.712V177.427C147.922 178.345 147.178 179.089 146.262 179.089Z" fill="#D3DFFF"/>
<path d="M120.478 179.089H107.634C106.717 179.089 105.973 178.345 105.973 177.427V169.712C105.973 168.795 106.717 168.05 107.634 168.05H120.478C121.395 168.05 122.139 168.795 122.139 169.712V177.427C122.126 178.345 121.395 179.089 120.478 179.089Z" fill="#D3DFFF"/>
<path d="M176.654 72.192C176.906 72.2186 177.185 72.192 177.584 72.1521C178.248 72.059 178.872 71.7797 179.364 71.3275C179.921 70.8221 180.333 70.0772 180.493 69.0664H180.453C179.988 69.6383 179.297 69.9841 178.46 69.9841C176.933 69.9841 175.95 68.827 175.95 67.3772C175.95 65.7678 177.119 64.3579 178.845 64.3579C180.572 64.3579 181.648 65.7678 181.648 67.9358C181.648 69.8112 181.024 71.1147 180.187 71.926C179.536 72.5644 178.633 72.9635 177.716 73.0699C177.305 73.1364 176.933 73.1497 176.654 73.1364V72.192ZM177.079 67.2974C177.079 68.3614 177.716 69.1063 178.713 69.1063C179.483 69.1063 180.081 68.7206 180.386 68.2151C180.453 68.1087 180.493 67.9757 180.493 67.8028C180.493 66.353 179.961 65.2358 178.752 65.2358C177.77 65.2358 177.079 66.087 177.079 67.2974Z" fill="#ED2169"/>
<path d="M183.362 72.192C183.615 72.2186 183.894 72.192 184.292 72.1521C184.956 72.059 185.581 71.7797 186.072 71.3275C186.63 70.8221 187.042 70.0772 187.201 69.0664H187.161C186.696 69.6383 186.006 69.9841 185.169 69.9841C183.641 69.9841 182.658 68.827 182.658 67.3772C182.658 65.7678 183.827 64.3579 185.554 64.3579C187.294 64.3579 188.357 65.7678 188.357 67.9358C188.357 69.8112 187.732 71.1147 186.896 71.926C186.245 72.5644 185.341 72.9635 184.425 73.0699C184.013 73.1364 183.641 73.1497 183.362 73.1364V72.192ZM183.787 67.2974C183.787 68.3614 184.425 69.1063 185.421 69.1063C186.192 69.1063 186.789 68.7206 187.095 68.2151C187.161 68.1087 187.201 67.9757 187.201 67.8028C187.201 66.353 186.67 65.2358 185.461 65.2358C184.478 65.2358 183.787 66.087 183.787 67.2974Z" fill="#ED2169"/>
<path d="M306.312 152.714H242.127V199.852H306.312V152.714Z" fill="#FBC343"/>
<path d="M306.312 163.381H289.216V164.086H306.312V163.381Z" fill="#E49B31"/>
<path d="M306.325 189.185H276.571V189.889H306.325V189.185Z" fill="#E49B31"/>
<path d="M274.127 169.792C274.127 175.219 273.317 180.672 271.656 185.966C269.132 194.013 261.694 199.493 253.272 199.493H242.127V152.714H271.364C273.197 158.207 274.127 163.98 274.127 169.792Z" fill="#E49B31"/>
<path d="M215.428 191.632V196.659C215.428 198.428 214.007 199.852 212.24 199.852H159.333C157.566 199.852 156.145 198.428 156.145 196.659V191.632C156.145 189.863 157.566 188.44 159.333 188.44H212.24C214.007 188.44 215.428 189.863 215.428 191.632Z" fill="#FBC343"/>
<path d="M208.88 180.207V185.234C208.88 187.003 207.445 188.426 205.692 188.426H152.771C151.005 188.426 149.583 187.003 149.583 185.234V180.207C149.583 178.451 151.005 177.014 152.771 177.014H205.679C207.445 177.014 208.88 178.451 208.88 180.207Z" fill="#FBC343"/>
<path d="M215.429 191.632V196.659C215.429 198.428 214.007 199.852 212.241 199.852H174.304C171.687 196.62 170.08 192.443 169.123 188.44C168.007 183.851 167.729 179.502 167.662 177.014H205.692C207.446 177.014 208.88 178.451 208.88 180.207V185.234C208.88 187.003 207.446 188.426 205.692 188.426H212.254C214.007 188.44 215.429 189.863 215.429 191.632Z" fill="#E49B31"/>
<path d="M243.243 98.0219L238.966 111.163L238.647 112.134L236.668 118.239L236.655 118.279L230.266 118.132L205.758 117.574L203.965 112.44L203.659 111.575L198.917 98.0086C213.635 103.129 225.762 91.9701 243.243 98.0219Z" fill="#FBC343"/>
<path d="M238.647 112.134L236.668 118.239L230.266 118.146L205.758 117.587L203.965 112.453C212.386 112.294 226.878 112.094 238.647 112.134Z" fill="#E49B31"/>
<path d="M266.037 186.325C264.776 190.355 262.278 193.733 259.064 196.101C255.836 198.482 251.864 199.838 247.653 199.838H192.143C184.12 199.838 177.079 194.465 174.941 186.711C173.705 182.228 173.055 177.679 172.948 173.157C172.935 172.718 172.935 172.279 172.935 171.854C172.935 171.335 172.948 170.816 172.962 170.311C173.413 153.911 181.423 138.642 194.268 128.454L207.551 117.92L237.943 118.625L254.654 134.639C257.005 136.886 259.104 139.413 260.777 142.193C262.796 145.532 264.417 149.07 265.652 152.714C269.279 163.448 269.518 175.219 266.037 186.325Z" fill="#FBC343"/>
<path d="M216.597 185.154V179.276C212.453 179.089 208.428 177.972 206.077 176.615L207.937 169.367C210.54 170.79 214.18 172.093 218.205 172.093C221.725 172.093 224.142 170.737 224.142 168.249C224.142 165.895 222.163 164.405 217.58 162.863C210.965 160.628 206.449 157.542 206.449 151.53C206.449 146.077 210.288 141.808 216.903 140.504V134.612H222.96V140.065C227.105 140.251 229.894 141.116 231.926 142.114L230.133 149.11C228.526 148.431 225.683 146.995 221.22 146.995C217.195 146.995 215.907 148.724 215.907 150.466C215.907 152.515 218.072 153.805 223.332 155.787C230.691 158.394 233.666 161.799 233.666 167.372C233.666 172.878 229.774 177.586 222.655 178.837V185.154H216.597Z" fill="white"/>
<path d="M242.951 123.612H199.953C198.173 123.612 196.726 122.149 196.726 120.38V118.997C196.726 117.215 198.187 115.765 199.953 115.765H242.951C244.731 115.765 246.179 117.228 246.179 118.997V120.38C246.179 122.149 244.731 123.612 242.951 123.612Z" fill="#ED7545"/>
<path opacity="0.4" d="M266.037 186.325C264.775 190.355 262.278 193.733 259.064 196.101C255.836 198.482 251.864 199.838 247.653 199.838H192.143C184.119 199.838 177.079 194.465 174.941 186.711C173.705 182.228 173.055 177.68 172.948 173.157C182.127 181.922 192.953 193.388 218.257 193.747C249.672 194.186 263.208 179.435 265.639 152.701C269.279 163.448 269.518 175.219 266.037 186.325Z" fill="#E49B31"/>
<path d="M50.4111 190.116L44.7923 188.001L31.7349 199.493H47.1833L50.4111 190.116Z" fill="#102048"/>
<path d="M50.4109 190.116H62.8175L61.4228 199.027L47.1831 199.493L50.4109 190.116Z" fill="#F9B384"/>
<path d="M100.237 140.145L99.7853 143.257L99.5064 145.133L97.5404 158.633L96.7833 163.794L96.1191 168.396L94.3657 180.393L93.1437 188.706C92.2271 194.957 86.874 199.599 80.5644 199.599H53.1079L53.1478 199.253L54.0377 190.102L54.1706 188.812L73.325 185.114L75.902 166.414C74.6401 160.974 74.9456 155.733 75.4902 152.062C75.9551 148.937 76.606 146.942 76.606 146.942L85.1472 144.481L100.237 140.145Z" fill="#1F3C88"/>
<path d="M94.3788 180.406L93.1567 188.719C92.2402 194.97 86.887 199.612 80.5775 199.612H79.1694C91.7487 197.351 89.2913 181.257 94.3788 180.406Z" fill="#102048"/>
<path d="M43.3319 194.975L40.6387 199.312L41.2366 199.685L43.9298 195.347L43.3319 194.975Z" fill="white"/>
<path d="M97.54 158.646L96.1187 168.409C92.1603 167.278 86.9399 161.612 86.9399 161.612L97.54 158.646Z" fill="#102048"/>
<path d="M126.644 183.545C126.644 183.545 119.962 186.977 108.021 184.782L117.943 178.185L126.644 183.545Z" fill="#102048"/>
<path d="M122.977 188.28L112.298 188.519L112.231 186.205L112.072 179.874L121.556 180.579L122.008 183.026L122.977 188.28Z" fill="#F9B384"/>
<path d="M122.008 183.026L112.231 186.205L112.072 179.874L121.556 180.579L122.008 183.026Z" fill="#E28B6D"/>
<path d="M135.079 199.586L123.31 190.089L122.978 188.28L112.298 188.52L112.591 199.586H135.079Z" fill="#102048"/>
<path d="M127.056 192.746L122.842 195.381L123.215 195.979L127.429 193.344L127.056 192.746Z" fill="white"/>
<path d="M76.5791 146.955L114.782 140.877C116.562 140.597 118.395 140.837 120.055 141.568C123.336 143.031 125.501 146.25 125.608 149.841L126.657 183.545C126.657 183.545 115.765 181.257 108.034 184.782L107.33 161.732C102.654 163.86 94.5646 164.312 86.3689 163.488L76.5791 146.955Z" fill="#1F3C88"/>
<path d="M121.264 182.494H120.56C120.56 176.669 120.706 171.827 120.826 167.558C121.131 157.156 121.291 151.424 118.647 149.003C116.509 147.035 112.231 147.101 106.015 147.833C99.3599 148.604 96.7032 141.515 96.6899 141.448L97.3541 141.209C97.4471 141.475 99.8381 147.873 105.948 147.141C112.524 146.37 116.788 146.33 119.139 148.484C122.021 151.131 121.862 156.624 121.543 167.571C121.41 171.84 121.264 176.669 121.264 182.494Z" fill="#3A6BEA"/>
<path d="M108.034 180.526L107.781 179.874C107.874 179.834 116.774 176.522 126.617 178.983L126.444 179.661C116.84 177.254 108.127 180.499 108.034 180.526Z" fill="#3A6BEA"/>
<path d="M56.9999 199.719C55.9107 197.524 57.5977 188.44 57.6774 188.067L58.3681 188.2C57.8899 190.767 56.8139 197.763 57.6375 199.413L56.9999 199.719Z" fill="#3A6BEA"/>
<path d="M96.4371 144.135C96.4371 144.135 93.7406 149.881 87.6568 153.752C85.5846 155.055 83.5656 155.654 81.7458 155.667C78.9961 155.68 76.7114 154.337 75.4761 152.076C75.941 148.95 76.5919 146.955 76.5919 146.955L85.133 144.494L93.7539 144.215L96.4371 144.135Z" fill="#102048"/>
<path d="M89.5815 109.487V117.627H97.5382V110.591L89.5815 109.487Z" fill="#ED7545"/>
<path d="M97.5382 105.55H89.5815V109.487L97.5382 110.591V105.55Z" fill="#F9B384"/>
<path d="M91.9199 106.667C92.0926 106.667 93.846 109.407 97.5387 110.591L97.4856 106.321L91.9199 106.667Z" fill="#102048"/>
<path d="M98.4817 95.814C98.4817 95.814 102.878 107.665 97.1933 108.423C91.508 109.181 90.6313 106.601 90.6313 106.601L88.8779 100.323L92.7965 95.0426L98.4817 95.814Z" fill="#F9B384"/>
<path d="M101.174 101.534C101.187 100.851 100.644 100.287 99.962 100.274C99.2799 100.261 98.7166 100.805 98.704 101.488C98.6914 102.171 99.2341 102.735 99.9162 102.747C100.598 102.76 101.162 102.217 101.174 101.534Z" fill="#F9B384"/>
<path d="M92.5043 101.453C92.5043 101.453 92.7965 95.1223 98.4817 95.8273C98.4817 95.8273 94.6562 90.906 89.6218 92.8213C87.0581 93.7923 85.3579 96.2396 85.1055 98.9662C84.7867 102.491 86.8323 106.508 89.7015 107.213C89.7015 107.213 90.6446 105.045 92.212 102.291L92.5043 101.453Z" fill="#102048"/>
<path d="M93.8588 101.148C94.337 102.158 94.0182 103.302 93.1547 103.715C92.2913 104.127 91.2021 103.635 90.7372 102.624C90.259 101.613 90.5778 100.469 91.4412 100.057C92.3046 99.6446 93.3938 100.137 93.8588 101.148Z" fill="#F9B384"/>
<path opacity="0.4" d="M98.161 102.23C98.1737 101.342 97.4644 100.611 96.5768 100.598C95.6893 100.585 94.9595 101.296 94.9468 102.184C94.9341 103.073 95.6434 103.804 96.5309 103.817C97.4185 103.829 98.1483 103.119 98.161 102.23Z" fill="#EB5D60"/>
<path d="M92.6632 102.557C92.5703 102.557 92.4906 102.478 92.4906 102.384C92.4906 102.345 92.464 101.36 91.388 101.214C91.2951 101.201 91.2286 101.108 91.2419 101.015C91.2552 100.921 91.3482 100.855 91.4412 100.868C92.8359 101.068 92.8492 102.384 92.8492 102.398C92.8359 102.478 92.7562 102.557 92.6632 102.557Z" fill="#102048"/>
<path d="M119.271 97.8755C119.271 97.8755 125.408 98.341 128.756 102.278L121.144 104.153L119.271 97.8755Z" fill="#BA5C36"/>
<path d="M130.151 94.4972C130.177 95.0558 128.637 97.8622 127.494 99.8573C126.83 101.001 126.312 101.879 126.312 101.879L122.221 103.076L119.298 98.6603L119.152 98.4475C119.152 98.4475 119.192 98.2613 119.272 97.9154V97.9021C119.285 97.8888 119.285 97.8755 119.285 97.8622C119.777 95.774 121.517 88.6449 122.526 88.4055C123.416 88.206 122.898 92.1031 122.898 92.1031C122.898 92.1031 125.09 85.7586 126.378 86.0246C127.415 86.2242 125.382 92.3026 125.382 92.3026C125.382 92.3026 126.099 91.5444 126.843 91.7838C127.627 92.0498 127.72 92.7814 127.72 92.7814C127.72 92.7814 128.238 92.409 128.756 92.7282C129.274 93.0474 129.221 94.0316 129.221 94.0316C129.221 94.0316 130.098 93.6193 130.151 94.4972Z" fill="#F9B384"/>
<path d="M87.7238 114.767L84.9476 125.661L80.6305 142.552C77.6949 143.856 74.6132 144.335 72.1558 143.922C69.3132 143.457 67.3207 141.794 67.4535 138.855C67.7989 130.941 87.7238 114.767 87.7238 114.767Z" fill="#ED7545"/>
<path d="M87.1792 117.866L84.9344 125.661L80.6173 142.552C77.6817 143.856 74.6 144.335 72.1426 143.922C78.399 125.967 87.1792 117.866 87.1792 117.866Z" fill="#BA5C36"/>
<path d="M104.581 142.513C98.7893 142.912 80.5115 158.034 76.1147 148.272C76.1147 148.272 76.7258 111.868 95.495 112.533C98.8159 112.653 101.738 114.874 102.734 118.039C103.186 119.476 103.638 121.351 103.983 123.759C104.342 126.206 104.607 129.199 104.7 132.856C104.793 135.676 104.753 138.881 104.581 142.513Z" fill="#ED7545"/>
<path d="M104.713 132.856C101.817 130.981 98.7754 125.315 98.7754 125.315L103.996 123.772C104.354 126.206 104.62 129.212 104.713 132.856Z" fill="#BA5C36"/>
<path d="M127.494 99.8573C126.83 101.001 126.312 101.879 126.312 101.879L122.22 103.076L119.298 98.6603L119.271 97.9154V97.8622H119.285L127.494 99.8573Z" fill="#E28B6D"/>
<path d="M95.4941 112.546C95.4941 112.546 104.513 113.185 109.96 114.235L119.271 97.8755C122.114 100.15 125.275 101.626 128.755 102.278L120.613 121.511C118.82 125.168 115.153 127.523 111.102 127.669L97.1413 128.148L95.4941 112.546Z" fill="#ED7545"/>
<path d="M109.96 114.501C109.947 114.501 109.934 114.501 109.907 114.501C109.735 114.475 92.7186 111.349 89.8096 113.916C89.7033 114.009 89.5307 113.996 89.4377 113.89C89.3447 113.783 89.358 113.61 89.4642 113.517C92.5592 110.777 109.296 113.85 110 113.983C110.146 114.009 110.239 114.142 110.213 114.289C110.199 114.408 110.08 114.501 109.96 114.501Z" fill="#BA5C36"/>
<path d="M296.483 184.489L297.652 199.493H278.152L287.982 192.696L287.809 183.306L296.483 184.489Z" fill="#102048"/>
<path d="M325.228 178.092L330.501 190.94L317.152 202.193L319.078 189.53L316.448 181.084L325.228 178.092Z" fill="#102048"/>
<path d="M301.637 105.67C301.464 106.162 301.305 106.8 301.146 107.545C300.88 108.849 300.667 110.511 300.468 112.466C299.844 118.851 299.591 128.347 299.525 138.429C299.379 161.133 300.229 186.83 300.229 186.83L296.656 186.777L287.876 186.644L284.767 186.591C280.065 150.613 281.407 120.234 282.111 109.66C282.137 109.287 282.164 108.955 282.177 108.636C282.323 106.694 282.429 105.656 282.429 105.656H301.637V105.67Z" fill="#1F3C88"/>
<path d="M328.575 181.43L326.795 181.869L317.431 184.21L311.706 185.647C311.706 185.647 304.931 160.482 299.525 138.416C296.921 127.775 294.637 117.866 293.574 111.841C293.202 109.713 292.989 108.077 292.963 107.066L301.145 107.532L311.48 108.117C311.48 108.117 311.732 109.607 312.224 112.267C314.19 122.921 319.955 152.355 328.575 181.43Z" fill="#1F3C88"/>
<path d="M312.211 112.28C308.053 112.626 304.081 112.639 300.455 112.453C297.984 112.32 295.673 112.107 293.561 111.855C288.327 111.203 284.302 110.245 282.097 109.66C280.902 109.341 280.238 109.128 280.238 109.128L282.151 108.636L293.986 105.656H301.611C301.438 106.149 301.278 106.787 301.119 107.532L311.453 108.117C311.467 108.13 311.719 109.62 312.211 112.28Z" fill="#102048"/>
<path d="M299.884 141.169C299.313 138.788 296.629 127.483 296.284 125.567L290.851 123.532L291.103 122.867L296.948 125.062V125.301C296.988 125.82 299.14 134.971 300.574 140.996L299.884 141.169Z" fill="#3A6BEA"/>
<path d="M286.096 151.464C283.546 151.464 281.912 150.825 281.832 150.799L282.098 150.147C282.124 150.16 284.993 151.264 289.045 150.48L289.178 151.171C288.049 151.384 287.012 151.464 286.096 151.464Z" fill="#3A6BEA"/>
<path d="M306.433 150.972C304.799 150.972 303.417 150.719 303.311 150.692L303.444 150.001C303.497 150.014 308.239 150.892 310.444 149.349L310.843 149.921C309.687 150.759 307.947 150.972 306.433 150.972Z" fill="#3A6BEA"/>
<path d="M288.218 192.426L287.79 192.985L290.542 195.097L290.97 194.537L288.218 192.426Z" fill="white"/>
<path d="M319.22 189.202L318.955 189.856L322.709 191.382L322.974 190.729L319.22 189.202Z" fill="white"/>
<path d="M291.328 67.2042C291.328 67.2042 279.267 68.7338 276.225 82.3271L279.851 98.514L278.218 109.301C278.218 109.301 294.609 110.937 311.479 108.13L306.352 80.6246L291.328 67.2042Z" fill="#ED7545"/>
<path d="M298.82 101.679C298.82 101.679 295.194 99.0061 299.936 87.3148L303.098 98.8332L298.82 101.679Z" fill="#6E3620"/>
<path d="M284.673 86.9823L283.796 85.3197L297.292 78.1639C297.664 77.9644 298.142 78.1107 298.342 78.4831L298.501 78.7758C298.7 79.1482 298.554 79.627 298.182 79.8265L284.673 86.9823Z" fill="#102048"/>
<path d="M301.861 97.8755L301.503 97.676L296.84 95.1622L289.03 90.9326C288.884 89.9882 288.99 89.1902 289.561 88.6449L289.176 88.4852C288.538 88.2192 288.073 87.6473 287.954 86.969L287.941 86.8892C287.741 86.2108 287.834 85.5724 287.901 85.2266L288.087 84.9872C288.538 84.3886 288.751 84.0827 289.335 83.6172L288.339 83.6704C288.339 83.6704 285.882 84.3487 287.024 82.766C287.808 81.662 289.574 80.7443 290.584 80.2787C291.009 80.0792 291.514 80.1723 291.846 80.5048C295.22 84.0162 301.171 88.2192 301.171 88.2192L301.237 89.0838L301.808 96.9844L301.861 97.8755Z" fill="#F9B384"/>
<path d="M292.657 84.4286L290.532 83.3911C290.306 83.2847 290.067 83.2448 289.814 83.2847L287.543 83.6837L287.477 83.3379L289.748 82.9389C290.067 82.8857 290.386 82.9256 290.678 83.0719L292.803 84.1093L292.657 84.4286Z" fill="#E28B6D"/>
<path d="M292.258 86.4236L289.708 85.4394C289.588 85.3995 289.469 85.3729 289.349 85.3729H287.901V85.0271H289.349C289.509 85.0271 289.681 85.0537 289.827 85.1202L292.378 86.1044L292.258 86.4236Z" fill="#E28B6D"/>
<path d="M291.9 88.4187L289.589 87.5409C289.403 87.4744 289.204 87.4478 289.018 87.4744L288.075 87.5808L288.035 87.235L288.978 87.1286C289.23 87.102 289.483 87.1286 289.722 87.2217L292.033 88.0995L291.9 88.4187Z" fill="#E28B6D"/>
<path d="M301.795 96.9578L301.503 97.676L296.84 95.1489L299.935 87.3148L301.224 89.0572L301.795 96.9578Z" fill="#E28B6D"/>
<path d="M298.82 101.68C298.82 101.68 305.794 108.303 311.465 108.13L309.832 100.336L298.82 101.68Z" fill="#BA5C36"/>
<path d="M291.328 67.2042C291.328 67.2042 292.192 67.1111 293.613 67.1643C307.68 67.6431 318.453 79.76 317.775 93.8454C317.496 99.6711 315.982 105.444 311.12 105.563L298.82 101.693C299.976 97.3435 300.852 92.8213 299.936 87.3281L305.647 90.0547L291.328 67.2042Z" fill="#ED7545"/>
<path d="M295.34 101.148L278.152 101.56L277.674 100.11L275.947 94.7898L270.939 79.4009L288.141 78.9753L295.34 101.148Z" fill="#D3DFFF"/>
<path opacity="0.3" d="M279.599 92.9409C279.599 92.9409 279.573 97.7026 277.686 100.11L275.959 94.7897L279.599 92.9409Z" fill="#1F3C88"/>
<path d="M271.257 92.5685C271.802 90.8128 272.785 89.2035 273.874 87.7404C274.219 87.2749 274.976 86.131 275.694 86.3039C277.155 86.6497 275.694 89.2301 275.694 89.2301C275.694 89.2301 277.102 87.1153 277.62 88.1793C278.151 89.2301 277.381 90.4138 277.381 90.4138C277.381 90.4138 279.612 88.9508 278.789 91.8769C278.789 91.8769 280.608 91.6375 279.493 93.6326C278.696 95.0558 278.191 96.6385 277.195 97.9553C276.198 99.2721 274.312 100.017 272.745 99.2588C270.912 98.3809 270.673 96.0267 270.898 94.2311C270.965 93.6725 271.098 93.1139 271.257 92.5685Z" fill="#F9B384"/>
<path d="M274.418 92.1163C274.392 92.1163 274.365 92.1163 274.352 92.103C274.259 92.0631 274.219 91.9567 274.259 91.8769L275.933 88.0995C275.973 88.0064 276.079 87.9665 276.159 88.0064C276.252 88.0463 276.291 88.1527 276.252 88.2325L274.578 92.0099C274.551 92.0764 274.485 92.1163 274.418 92.1163Z" fill="#E28B6D"/>
<path d="M276.132 93.5129C276.106 93.5129 276.079 93.5129 276.053 93.4996C275.96 93.4597 275.933 93.3533 275.973 93.2602L277.554 89.8685C277.594 89.7754 277.7 89.7488 277.793 89.7887C277.886 89.8286 277.912 89.935 277.873 90.0281L276.292 93.4198C276.252 93.473 276.199 93.5129 276.132 93.5129Z" fill="#E28B6D"/>
<path d="M277.447 94.6568C277.42 94.6568 277.394 94.6568 277.367 94.6302C277.288 94.5903 277.248 94.4839 277.288 94.3908L278.656 91.7971C278.696 91.7173 278.802 91.6774 278.895 91.7173C278.975 91.7572 279.014 91.8636 278.975 91.9567L277.606 94.5504C277.567 94.6302 277.513 94.6568 277.447 94.6568Z" fill="#E28B6D"/>
<path d="M283.119 80.5182H276.983L275.92 78.4034H282.07L283.119 80.5182Z" fill="#102048"/>
<path d="M291.156 74.0807C289.336 74.0807 288.127 73.1762 288.114 73.1629C287.994 73.0698 287.981 72.9102 288.06 72.7905C288.153 72.6708 288.313 72.6575 288.432 72.7373C288.539 72.8171 290.916 74.5861 294.104 72.6575C294.224 72.5777 294.397 72.6176 294.463 72.7506C294.543 72.8703 294.503 73.0432 294.37 73.1097C293.201 73.8413 292.099 74.0807 291.156 74.0807Z" fill="#BA5C36"/>
<path d="M298.82 101.946C298.793 101.946 298.767 101.946 298.74 101.932C298.607 101.892 298.528 101.746 298.567 101.6C301.091 93.0341 299.696 87.4345 299.683 87.368L299.577 86.969L310.456 88.7912C310.602 88.8178 310.695 88.9508 310.668 89.0971C310.642 89.2434 310.496 89.3365 310.363 89.3099L300.268 87.6207C300.533 89.0572 301.264 94.3243 299.072 101.733C299.046 101.866 298.939 101.946 298.82 101.946Z" fill="#BA5C36"/>
<path d="M306.79 88.6316H306.776C306.63 88.6183 306.524 88.4986 306.524 88.3523C306.524 88.2991 306.816 82.6197 302.884 76.794C302.805 76.6743 302.831 76.5147 302.951 76.4216C303.07 76.3418 303.23 76.3684 303.323 76.4881C307.361 82.4734 307.055 88.3257 307.055 88.3789C307.042 88.5252 306.923 88.6316 306.79 88.6316Z" fill="#BA5C36"/>
<path d="M296.151 60.7268V67.5234C296.151 69.718 294.451 71.487 292.339 71.487C290.24 71.487 288.526 69.718 288.526 67.5234V60.7268H296.151Z" fill="#F9B384"/>
<path d="M292.551 61.6312C292.551 61.6312 292.153 65.8209 288.526 67.0446V61.0859L292.551 61.6312Z" fill="#102048"/>
<path d="M285.656 52.9858C285.656 52.9858 284.474 62.5091 288.18 63.6396C291.886 64.7702 295.274 61.4849 295.274 61.4849L294.569 53.6242L289.083 50.3922L285.656 52.9858Z" fill="#F9B384"/>
<path d="M306.75 71.5003L299.431 71.9925C298.501 70.9683 297.983 69.5318 297.638 67.9225C297.333 69.5851 297.572 70.9683 298.395 72.0723L296.416 72.2053C294.663 69.5718 293.188 63.7461 294.928 58.7583L295.128 57.5879C295.128 57.5879 293.879 53.7972 292.059 53.6376C292.059 53.6376 285.842 57.8406 283.066 53.1454C280.994 49.6607 282.747 45.0719 287.715 48.4503C287.715 48.4503 299.657 42.8374 299.631 54.3425C299.617 56.4041 300.401 58.4258 301.915 59.8091C302.048 59.9421 302.181 60.0618 302.327 60.1682C305.024 62.283 307.906 66.5126 306.75 71.5003Z" fill="#102048"/>
<path d="M296.988 58.176C297.341 57.0783 296.869 55.9438 295.933 55.642C294.997 55.3402 293.952 55.9854 293.599 57.0831C293.246 58.1808 293.718 59.3153 294.654 59.6171C295.59 59.9189 296.635 59.2737 296.988 58.176Z" fill="#F9B384"/>
<path d="M295.074 58.2927C294.981 58.2927 294.901 58.2129 294.901 58.1198C294.901 57.3617 295.499 56.6834 296.203 56.6568C296.203 56.6568 296.203 56.6568 296.216 56.6568C296.309 56.6568 296.389 56.7233 296.389 56.8297C296.389 56.9228 296.323 57.0159 296.216 57.0159C295.751 57.0425 295.247 57.4947 295.247 58.1331C295.247 58.2129 295.167 58.2927 295.074 58.2927Z" fill="#102048"/>
<path d="M286.959 56.6169C286.959 56.8563 286.76 57.0558 286.521 57.0558C286.282 57.0558 286.083 56.8563 286.083 56.6169C286.083 56.3775 286.282 56.178 286.521 56.178C286.76 56.178 286.959 56.3775 286.959 56.6169Z" fill="#102048"/>
<path d="M289.615 56.3908C289.615 56.6302 289.416 56.8297 289.177 56.8297C288.938 56.8297 288.738 56.6302 288.738 56.3908C288.738 56.1514 288.938 55.9519 289.177 55.9519C289.416 55.9519 289.615 56.1514 289.615 56.3908Z" fill="#102048"/>
<path d="M287.596 59.5696C287.556 59.5696 287.503 59.5563 287.476 59.5164C287.118 59.1706 286.972 58.8381 287.038 58.5322C287.104 58.2262 287.383 58.04 287.543 57.9602L287.503 57.0957C287.503 57.0026 287.569 56.9228 287.676 56.9095C287.769 56.9095 287.848 56.976 287.862 57.0824L287.915 58.1996L287.795 58.2396C287.702 58.2795 287.437 58.3992 287.397 58.612C287.344 58.8381 287.556 59.0908 287.729 59.2637C287.795 59.3302 287.795 59.4366 287.729 59.5164C287.689 59.543 287.636 59.5696 287.596 59.5696Z" fill="#102048"/>
<path d="M287.941 60.8332C287.795 60.8332 287.702 60.8199 287.689 60.8199C287.596 60.8066 287.529 60.7135 287.543 60.6204C287.556 60.5273 287.649 60.4608 287.742 60.4741C287.755 60.4741 288.645 60.6071 289.429 59.9155C289.495 59.849 289.615 59.8623 289.681 59.9288C289.748 60.0086 289.734 60.115 289.668 60.1815C289.017 60.7401 288.313 60.8332 287.941 60.8332Z" fill="#102048"/>
<path opacity="0.4" d="M291.356 59.5696C291.994 59.5696 292.511 59.0515 292.511 58.4124C292.511 57.7734 291.994 57.2553 291.356 57.2553C290.718 57.2553 290.2 57.7734 290.2 58.4124C290.2 59.0515 290.718 59.5696 291.356 59.5696Z" fill="#EB5D60"/>
<path d="M375 199.147H0V199.852H375V199.147Z" fill="#102048"/>
</g>
<defs>
<clipPath id="clip0_1411_1725">
<rect width="375" height="201.558" fill="white" transform="translate(0 0.63443)"/>
</clipPath>
</defs>
</svg>
