<svg width="29" height="34" viewBox="0 0 29 34" fill="none" xmlns="http://www.w3.org/2000/svg">
<path fill-rule="evenodd" clip-rule="evenodd" d="M13.6553 33.3449L13.6518 33.3423L13.6433 33.3355L13.6132 33.3119C13.5874 33.2914 13.5501 33.2619 13.5021 33.2236C13.4064 33.147 13.2679 33.0351 13.093 32.8907C12.7434 32.6021 12.2471 32.183 11.653 31.6548C10.4667 30.6003 8.88082 29.1031 7.29052 27.3361C5.7042 25.5734 4.08705 23.5135 2.86018 21.3325C1.64048 19.1641 0.75 16.7764 0.75 14.3849C0.75 10.7381 2.19867 7.24072 4.7773 4.66207C7.35595 2.08343 10.8533 0.634766 14.5001 0.634766C18.1469 0.634766 21.6442 2.08343 24.2229 4.66207C26.8015 7.24072 28.2502 10.7381 28.2502 14.3849C28.2502 16.7764 27.3597 19.1641 26.1399 21.3325C24.9132 23.5135 23.296 25.5734 21.7097 27.3361C20.1193 29.1031 18.5335 30.6003 17.3472 31.6548C16.753 32.183 16.2568 32.6021 15.9071 32.8907C15.7322 33.0351 15.5938 33.147 15.4981 33.2236C15.4501 33.2619 15.4128 33.2914 15.387 33.3119L15.3569 33.3355L15.3483 33.3423L15.3457 33.3442C15.3457 33.3442 15.3442 33.3454 14.5001 32.26L15.3442 33.3454C14.8477 33.7315 14.1518 33.7311 13.6553 33.3449ZM14.5001 32.26L13.6553 33.3449C13.6553 33.3449 13.656 33.3454 14.5001 32.26ZM18.6251 14.3849C18.6251 16.6631 16.7783 18.5099 14.5001 18.5099C12.2218 18.5099 10.3751 16.6631 10.3751 14.3849C10.3751 12.1067 12.2218 10.2598 14.5001 10.2598C16.7783 10.2598 18.6251 12.1067 18.6251 14.3849Z" fill="#B6B6B6"/>
</svg>
