<svg width="147" height="48" viewBox="0 0 147 48" fill="none" xmlns="http://www.w3.org/2000/svg">
<g clip-path="url(#clip0_1037_874)">
<path d="M18.63 20.6644H22.17V41.6344H18.33L6.45 26.3344V41.6344H2.91V20.6644H6.45L18.63 36.3244V20.6644ZM40.1381 41.6344H37.0781V39.5044C35.7581 41.0844 33.9881 41.8744 31.7681 41.8744C30.1081 41.8744 28.7281 41.4044 27.6281 40.4644C26.5481 39.5244 26.0081 38.2744 26.0081 36.7144C26.0081 35.1344 26.5881 33.9544 27.7481 33.1744C28.9081 32.3944 30.4781 32.0044 32.4581 32.0044H36.8081V31.4044C36.8081 29.2844 35.6281 28.2244 33.2681 28.2244C31.7881 28.2244 30.2481 28.7644 28.6481 29.8444L27.1481 27.7444C29.0881 26.2044 31.2881 25.4344 33.7481 25.4344C35.6281 25.4344 37.1581 25.9144 38.3381 26.8744C39.5381 27.8144 40.1381 29.3044 40.1381 31.3444V41.6344ZM36.7781 35.6944V34.3444H32.9981C30.5781 34.3444 29.3681 35.1044 29.3681 36.6244C29.3681 37.4044 29.6681 38.0044 30.2681 38.4244C30.8681 38.8244 31.6981 39.0244 32.7581 39.0244C33.8381 39.0244 34.7781 38.7244 35.5781 38.1244C36.3781 37.5244 36.7781 36.7144 36.7781 35.6944ZM46.5255 47.9944C45.0655 47.9944 43.7455 47.4644 42.5655 46.4044L44.0955 43.6744C44.7955 44.3344 45.5155 44.6644 46.2555 44.6644C47.0155 44.6644 47.6255 44.3944 48.0855 43.8544C48.5655 43.3144 48.8055 42.7244 48.8055 42.0844C48.8055 41.8044 46.6555 36.3344 42.3555 25.6744H45.9555L50.7255 37.4344L55.4955 25.6744H59.0955L51.3555 44.6344C50.8955 45.6744 50.2355 46.4944 49.3755 47.0944C48.5155 47.6944 47.5655 47.9944 46.5255 47.9944ZM74.3721 41.6344H71.3121V39.5044C69.9921 41.0844 68.2221 41.8744 66.0021 41.8744C64.3421 41.8744 62.9621 41.4044 61.8621 40.4644C60.7821 39.5244 60.2421 38.2744 60.2421 36.7144C60.2421 35.1344 60.8221 33.9544 61.9821 33.1744C63.1421 32.3944 64.7121 32.0044 66.6921 32.0044H71.0421V31.4044C71.0421 29.2844 69.8621 28.2244 67.5021 28.2244C66.0221 28.2244 64.4821 28.7644 62.8821 29.8444L61.3821 27.7444C63.3221 26.2044 65.5221 25.4344 67.9821 25.4344C69.8621 25.4344 71.3921 25.9144 72.5721 26.8744C73.7721 27.8144 74.3721 29.3044 74.3721 31.3444V41.6344ZM71.0121 35.6944V34.3444H67.2321C64.8121 34.3444 63.6021 35.1044 63.6021 36.6244C63.6021 37.4044 63.9021 38.0044 64.5021 38.4244C65.1021 38.8244 65.9321 39.0244 66.9921 39.0244C68.0721 39.0244 69.0121 38.7244 69.8121 38.1244C70.6121 37.5244 71.0121 36.7144 71.0121 35.6944ZM92.4295 30.3244H99.8395V40.8244C98.6795 41.2044 97.5095 41.4844 96.3295 41.6644C95.1495 41.8444 93.8095 41.9344 92.3095 41.9344C90.0895 41.9344 88.2195 41.4944 86.6995 40.6144C85.1795 39.7144 84.0195 38.4444 83.2195 36.8044C82.4395 35.1444 82.0495 33.1844 82.0495 30.9244C82.0495 28.6844 82.4895 26.7444 83.3695 25.1044C84.2495 23.4644 85.5095 22.1944 87.1495 21.2944C88.8095 20.3744 90.8095 19.9144 93.1495 19.9144C94.3495 19.9144 95.4795 20.0244 96.5395 20.2444C97.6195 20.4644 98.6195 20.7744 99.5395 21.1744L98.5195 23.5144C97.7595 23.1744 96.8995 22.8844 95.9395 22.6444C94.9995 22.4044 94.0195 22.2844 92.9995 22.2844C91.2995 22.2844 89.8395 22.6344 88.6195 23.3344C87.3995 24.0344 86.4695 25.0344 85.8295 26.3344C85.1895 27.6144 84.8695 29.1444 84.8695 30.9244C84.8695 32.6244 85.1395 34.1344 85.6795 35.4544C86.2395 36.7544 87.1095 37.7744 88.2895 38.5144C89.4695 39.2344 91.0195 39.5944 92.9395 39.5944C93.5795 39.5944 94.1395 39.5744 94.6195 39.5344C95.1195 39.4744 95.5695 39.4044 95.9695 39.3244C96.3895 39.2444 96.7795 39.1644 97.1395 39.0844V32.7244H92.4295V30.3244ZM141.89 41.6344V26.3344H144.68V41.6344H141.89ZM143.3 23.9044C142.8 23.9044 142.36 23.7244 141.98 23.3644C141.62 22.9844 141.44 22.5444 141.44 22.0444C141.44 21.5444 141.62 21.1144 141.98 20.7544C142.36 20.3744 142.8 20.1844 143.3 20.1844C143.8 20.1844 144.23 20.3744 144.59 20.7544C144.97 21.1144 145.16 21.5444 145.16 22.0444C145.16 22.5444 144.97 22.9844 144.59 23.3644C144.23 23.7244 143.8 23.9044 143.3 23.9044Z" fill="#364D6C"/>
<path d="M110.296 41.9944C108.816 41.9944 107.536 41.6444 106.456 40.9444C105.376 40.2244 104.546 39.2544 103.966 38.0344C103.386 36.8144 103.096 35.4644 103.096 33.9844C103.096 32.4844 103.416 31.1344 104.056 29.9344C104.696 28.7144 105.616 27.7544 106.816 27.0544C108.016 26.3344 109.456 25.9744 111.136 25.9744C112.756 25.9744 114.146 26.3244 115.306 27.0244C116.466 27.7244 117.356 28.6744 117.976 29.8744C118.616 31.0744 118.936 32.4144 118.936 33.8944V41.6344H116.146V38.5144H116.086C115.786 39.0944 115.376 39.6544 114.856 40.1944C114.356 40.7144 113.726 41.1444 112.966 41.4844C112.206 41.8244 111.316 41.9944 110.296 41.9944ZM111.016 39.6244C112.016 39.6244 112.896 39.3844 113.656 38.9044C114.436 38.4044 115.036 37.7244 115.456 36.8644C115.896 35.9844 116.116 35.0044 116.116 33.9244C116.116 32.8644 115.906 31.9144 115.486 31.0744C115.086 30.2344 114.506 29.5744 113.746 29.0944C112.986 28.5944 112.096 28.3444 111.076 28.3444C109.996 28.3444 109.066 28.5944 108.286 29.0944C107.526 29.5944 106.936 30.2744 106.516 31.1344C106.116 31.9744 105.916 32.9344 105.916 34.0144C105.916 35.0544 106.116 36.0044 106.516 36.8644C106.916 37.7044 107.496 38.3744 108.256 38.8744C109.016 39.3744 109.936 39.6244 111.016 39.6244ZM130.08 41.9944C128.92 41.9944 127.86 41.8144 126.9 41.4544C125.94 41.0744 125.11 40.5244 124.41 39.8044C123.71 39.0844 123.16 38.2244 122.76 37.2244C122.38 36.2044 122.19 35.0644 122.19 33.8044C122.19 32.2044 122.51 30.8244 123.15 29.6644C123.81 28.4844 124.7 27.5744 125.82 26.9344C126.96 26.2944 128.23 25.9744 129.63 25.9744C130.41 25.9744 131.15 26.1044 131.85 26.3644C132.57 26.6244 133.21 26.9844 133.77 27.4444C134.33 27.9044 134.77 28.4444 135.09 29.0644H135.15V19.7344H137.91V33.8944C137.91 35.5944 137.56 37.0544 136.86 38.2744C136.18 39.4744 135.25 40.3944 134.07 41.0344C132.91 41.6744 131.58 41.9944 130.08 41.9944ZM130.08 39.6244C131.02 39.6244 131.87 39.3944 132.63 38.9344C133.39 38.4744 133.99 37.8244 134.43 36.9844C134.89 36.1444 135.12 35.1544 135.12 34.0144C135.12 32.8544 134.89 31.8544 134.43 31.0144C133.99 30.1544 133.39 29.4944 132.63 29.0344C131.87 28.5744 131.01 28.3444 130.05 28.3444C129.11 28.3444 128.25 28.5844 127.47 29.0644C126.71 29.5444 126.1 30.2044 125.64 31.0444C125.2 31.8844 124.98 32.8644 124.98 33.9844C124.98 35.1444 125.21 36.1444 125.67 36.9844C126.13 37.8244 126.74 38.4744 127.5 38.9344C128.28 39.3944 129.14 39.6244 130.08 39.6244Z" fill="#ED2169"/>
<path d="M110.55 26.2744C109.07 26.2744 107.79 26.6244 106.71 27.3244C105.63 28.0444 104.8 29.0144 104.22 30.2344C103.64 31.4544 103.35 32.8044 103.35 34.2844C103.35 35.7844 103.67 37.1344 104.31 38.3344C104.95 39.5544 105.87 40.5144 107.07 41.2144C108.27 41.9344 109.71 42.2944 111.39 42.2944C113.01 42.2944 114.4 41.9444 115.56 41.2444C116.72 40.5444 117.61 39.5944 118.23 38.3944C118.87 37.1944 119.19 35.8544 119.19 34.3744V26.6344H116.4V29.7544H116.34C116.04 29.1744 115.63 28.6144 115.11 28.0744C114.61 27.5544 113.98 27.1244 113.22 26.7844C112.46 26.4444 111.57 26.2744 110.55 26.2744ZM111.27 28.6444C112.27 28.6444 113.15 28.8844 113.91 29.3644C114.69 29.8644 115.29 30.5444 115.71 31.4044C116.15 32.2844 116.37 33.2644 116.37 34.3444C116.37 35.4044 116.16 36.3544 115.74 37.1944C115.34 38.0344 114.76 38.6944 114 39.1744C113.24 39.6744 112.35 39.9244 111.33 39.9244C110.25 39.9244 109.32 39.6744 108.54 39.1744C107.78 38.6744 107.19 37.9944 106.77 37.1344C106.37 36.2944 106.17 35.3344 106.17 34.2544C106.17 33.2144 106.37 32.2644 106.77 31.4044C107.17 30.5644 107.75 29.8944 108.51 29.3944C109.27 28.8944 110.19 28.6444 111.27 28.6444Z" fill="#ED2169"/>
<g clip-path="url(#clip1_1037_874)">
<path d="M10.3169 13.3523C13.3326 14.7642 16.4037 16.0834 19.345 17.6132C21.6515 18.8129 23.7473 19.2524 26.4673 18.6595C33.7596 17.0602 41.2574 17.5553 48.721 18.2269C50.0872 18.351 51.4493 18.5165 52.8216 18.5917C45.4195 15.9085 37.7674 15.7029 29.985 15.9868C33.5414 14.7723 37.0839 13.5245 40.6547 12.3505C48.0738 9.91244 55.6321 7.90362 63.5678 7.17734C73.6594 6.25187 83.4821 7.71772 93.1178 10.7434C93.5813 10.9209 94.0804 11.0015 94.5774 10.979C92.1885 10.0674 89.8127 9.1237 87.4063 8.25193C82.8282 6.59053 78.1886 4.87176 73.2785 4.67604C69.0441 4.50755 64.7711 4.83594 60.5641 5.26997C50.3034 6.3281 40.8724 9.7557 31.4835 13.2902C29.1618 14.135 26.7538 14.7831 24.2896 15.2263C21.035 15.8428 17.9949 14.6262 14.9264 13.7313C13.4788 13.3108 11.9543 13.1224 10.4625 12.8279C10.4042 13.0032 10.3566 13.1779 10.3169 13.3523Z" fill="#ED2169"/>
<path d="M48.2294 14.1417C50.1932 14.399 52.1553 14.8359 54.1179 14.8823C62.3782 15.0775 70.6418 15.2798 78.8965 15.2449C87.3833 15.2073 95.8524 14.7269 104.337 14.7477C115.053 14.7763 125.726 15.6877 136.262 17.8871C136.507 17.9396 136.759 17.9723 137.006 18.0126L137.083 17.7247C133.928 16.8781 130.796 15.9308 127.61 15.207C118.055 13.0639 108.257 12.1038 98.4874 12.3532C85.2129 12.6445 71.9576 13.2526 58.6924 13.6987C55.2302 13.8143 51.7713 13.823 48.3105 13.8973L48.2294 14.1417Z" fill="#ED2169"/>
</g>
</g>
<defs>
<clipPath id="clip0_1037_874">
<rect width="147" height="47.6344" fill="white"/>
</clipPath>
<clipPath id="clip1_1037_874">
<rect width="125.91" height="20.0579" fill="white" transform="matrix(-0.998598 0.0529347 0.0938226 0.995589 135.426 0)"/>
</clipPath>
</defs>
</svg>
