<svg width="43" height="34" viewBox="0 0 43 34" fill="none" xmlns="http://www.w3.org/2000/svg">
<path d="M21.4984 6.20584C23.0372 6.20584 24.284 4.95908 24.284 3.4203C24.284 1.8816 23.0372 0.634766 21.4984 0.634766C19.9597 0.634766 18.7129 1.8816 18.7129 3.4203C18.7129 4.95908 19.9597 6.20584 21.4984 6.20584Z" fill="#B6B6B6"/>
<path d="M11.8768 22.7871C11.2 22.7871 10.797 23.1299 10.6049 23.6849C10.5246 23.9373 10.4844 24.2806 10.4844 25.2593C10.4844 26.2286 10.5246 26.5815 10.6049 26.8339C10.797 27.3895 11.2 27.7329 11.8768 27.7329C12.5636 27.7329 12.9666 27.3895 13.1588 26.8339C13.2391 26.5815 13.2793 26.2287 13.2793 25.2593C13.2793 24.2806 13.2391 23.9373 13.1588 23.6849C12.9667 23.1298 12.5636 22.7871 11.8768 22.7871Z" fill="#B6B6B6"/>
<path d="M38.6083 15.6347H31.857L25.2743 4.93774C25.0093 5.59443 24.5787 6.1657 24.0331 6.6014L29.5919 15.6347H13.4064L18.9655 6.6014C18.42 6.1657 17.9893 5.59443 17.7244 4.93774L11.1419 15.6347H4.39005C2.47784 15.6347 0.927734 17.1848 0.927734 19.097V30.1726C0.927734 32.0849 2.47784 33.6348 4.39005 33.6348H38.6083C40.5206 33.6348 42.0712 32.0849 42.0712 30.1726V19.097C42.0712 17.1848 40.5206 15.6347 38.6083 15.6347ZM14.3086 27.1472C13.9558 28.2377 13.068 28.8027 11.8765 28.8027C10.695 28.8027 9.80724 28.2377 9.45447 27.1472C9.31256 26.7235 9.27238 26.34 9.27238 25.2595C9.27238 24.1796 9.31256 23.7961 9.45447 23.3723C9.80724 22.2824 10.695 21.7168 11.8765 21.7168C13.068 21.7168 13.9557 22.2823 14.3086 23.3723C14.4505 23.7961 14.4907 24.1796 14.4907 25.2595C14.4906 26.3399 14.4504 26.7235 14.3086 27.1472ZM18.6818 26.0975H17.2592C17.2178 26.0975 17.1976 26.1176 17.1976 26.1584V28.5905C17.1976 28.6507 17.1574 28.6916 17.0972 28.6916H16.1077C16.0475 28.6916 16.0073 28.6507 16.0073 28.5905V21.9284C16.0073 21.8681 16.0475 21.8279 16.1077 21.8279H18.6817C20.0139 21.8279 20.943 22.6855 20.943 23.9574C20.943 25.2394 20.0139 26.0975 18.6818 26.0975ZM26.7476 22.7972C26.7476 22.8575 26.7075 22.8977 26.6472 22.8977H23.4982C23.4567 22.8977 23.4366 22.9177 23.4366 22.9579V24.6342C23.4366 24.6744 23.4567 24.6945 23.4982 24.6945H26.1525C26.2128 24.6945 26.253 24.7346 26.253 24.7956V25.6638C26.253 25.7241 26.2128 25.7643 26.1525 25.7643H23.4982C23.4567 25.7643 23.4366 25.7844 23.4366 25.8252V27.5611C23.4366 27.6013 23.4567 27.6214 23.4982 27.6214H26.6472C26.7075 27.6214 26.7476 27.6622 26.7476 27.7231V28.5906C26.7476 28.6509 26.7075 28.6917 26.6472 28.6917H22.3468C22.2866 28.6917 22.2464 28.6509 22.2464 28.5906V21.9285C22.2464 21.8683 22.2866 21.8281 22.3468 21.8281H26.6472C26.7075 21.8281 26.7476 21.8683 26.7476 21.9285V22.7972ZM33.3209 28.5905C33.3209 28.6507 33.2808 28.6916 33.2205 28.6916H32.3015C32.2212 28.6916 32.1709 28.6614 32.1295 28.5905L29.3245 23.867H29.283V28.5905C29.283 28.6507 29.2428 28.6916 29.1826 28.6916H28.3049C28.2434 28.6916 28.2032 28.6507 28.2032 28.5905V21.9284C28.2032 21.8681 28.2434 21.8279 28.3049 21.8279H29.2327C29.3131 21.8279 29.3646 21.8581 29.4048 21.9284L32.201 26.6632H32.2412V21.9284C32.2412 21.8681 32.2814 21.8279 32.3416 21.8279H33.2205C33.2808 21.8279 33.3209 21.8681 33.3209 21.9284V28.5905Z" fill="#B6B6B6"/>
<path d="M18.6111 22.8977H17.2588C17.2174 22.8977 17.1973 22.9178 17.1973 22.958V24.9569C17.1973 24.9971 17.2174 25.0172 17.2588 25.0172H18.6111C19.3168 25.0172 19.7512 24.594 19.7512 23.9574C19.7512 23.3321 19.3167 22.8977 18.6111 22.8977Z" fill="#B6B6B6"/>
</svg>
