<svg width="14" height="17" viewBox="0 0 14 17" fill="none" xmlns="http://www.w3.org/2000/svg">
<path d="M4.13744 10.2509C3.99024 10.2509 3.89104 10.2653 3.83984 10.2797V11.2221C3.90064 11.2365 3.97664 11.2405 4.08144 11.2405C4.46464 11.2405 4.70064 11.0469 4.70064 10.7197C4.70064 10.4269 4.49744 10.2509 4.13744 10.2509ZM6.92704 10.2605C6.76704 10.2605 6.66304 10.2749 6.60144 10.2893V12.3773C6.66304 12.3917 6.76224 12.3917 6.85184 12.3917C7.50544 12.3965 7.93104 12.0365 7.93104 11.2749C7.93584 10.6109 7.54784 10.2605 6.92704 10.2605Z" fill="black" fill-opacity="0.5"/>
<path d="M8.72314 0.106934H2.32314C1.43994 0.106934 0.723145 0.823734 0.723145 1.70693V14.5069C0.723145 15.3901 1.43994 16.1069 2.32314 16.1069H11.9231C12.8063 16.1069 13.5231 15.3901 13.5231 14.5069V4.90693L8.72314 0.106934ZM5.12154 11.4589C4.87434 11.6909 4.50954 11.7949 4.08474 11.7949C3.98954 11.7949 3.90394 11.7901 3.83834 11.7805V12.9213H3.12314V9.77253C3.34554 9.73573 3.65834 9.70693 4.09834 9.70693C4.54394 9.70693 4.86074 9.79173 5.07434 9.96213C5.27754 10.1237 5.41514 10.3885 5.41514 10.7005C5.41434 11.0141 5.31034 11.2789 5.12154 11.4589ZM8.16714 12.5429C7.83114 12.8221 7.31994 12.9549 6.69514 12.9549C6.32074 12.9549 6.05594 12.9309 5.87594 12.9069V9.77333C6.14074 9.73013 6.48634 9.70693 6.85114 9.70693C7.45674 9.70693 7.85034 9.81573 8.15754 10.0477C8.48954 10.2941 8.69754 10.6869 8.69754 11.2509C8.69754 11.8613 8.47434 12.2829 8.16714 12.5429ZM11.1231 10.3229H9.89754V11.0517H11.0431V11.6389H9.89754V12.9221H9.17274V9.73093H11.1231V10.3229ZM8.72314 5.70693C8.28074 5.70693 7.92314 5.70693 7.92314 5.70693V1.70693L11.9231 5.70693H8.72314Z" fill="black" fill-opacity="0.5"/>
</svg>
