<svg width="17" height="16" viewBox="0 0 17 16" fill="none" xmlns="http://www.w3.org/2000/svg">
<path d="M7.16023 13.684C8.7391 13.684 10.1905 13.1409 11.3486 12.2403L15.1085 16L16.3179 14.7907L12.558 11.031C13.4595 9.87214 14.0026 8.42078 14.0026 6.84199C14.0026 3.06949 10.9329 0 7.16023 0C3.38752 0 0.317871 3.06949 0.317871 6.84199C0.317871 10.6145 3.38752 13.684 7.16023 13.684ZM7.16023 1.7105C9.9904 1.7105 12.292 4.01197 12.292 6.84199C12.292 9.67201 9.9904 11.9735 7.16023 11.9735C4.33006 11.9735 2.02846 9.67201 2.02846 6.84199C2.02846 4.01197 4.33006 1.7105 7.16023 1.7105Z" fill="white"/>
</svg>
