<svg width="16" height="17" viewBox="0 0 16 17" fill="none" xmlns="http://www.w3.org/2000/svg">
<path d="M0.888672 8.10693C0.888672 9.57716 2.08512 10.7736 3.55534 10.7736C4.26112 10.7736 4.89934 10.4936 5.37667 10.0447L10.702 13.0883C10.686 13.2038 10.6664 13.3194 10.6664 13.4403C10.6664 14.9105 11.8629 16.1069 13.3331 16.1069C14.8033 16.1069 15.9998 14.9105 15.9998 13.4403C15.9998 11.97 14.8033 10.7736 13.3331 10.7736C12.6273 10.7736 11.9891 11.0536 11.5118 11.5025L6.18645 8.45982C6.20245 8.34338 6.222 8.22782 6.222 8.10693C6.222 7.98604 6.20245 7.87049 6.18645 7.75404L11.5118 4.71138C11.9891 5.16027 12.6273 5.44027 13.3331 5.44027C14.8033 5.44027 15.9998 4.24382 15.9998 2.7736C15.9998 1.30338 14.8033 0.106934 13.3331 0.106934C11.8629 0.106934 10.6664 1.30338 10.6664 2.7736C10.6664 2.89449 10.686 3.01004 10.702 3.12649L5.37667 6.16916C4.89934 5.72027 4.26112 5.44027 3.55534 5.44027C2.08512 5.44027 0.888672 6.63671 0.888672 8.10693Z" fill="black" fill-opacity="0.5"/>
</svg>
