<svg width="24" height="25" viewBox="0 0 24 25" fill="none" xmlns="http://www.w3.org/2000/svg">
<path d="M11.9994 15.8696V13.2813M11.9994 15.8696V18.4578M11.9994 15.8696C6.82296 15.8696 1.64648 14.5755 1.72578 11.9872M11.9994 15.8696C17.1759 15.8696 22.3524 14.5755 22.273 11.9872M1.72578 11.9872C1.67505 12.8064 1.64648 13.6785 1.64648 14.5755C1.64648 18.6016 2.22164 22.1244 2.79681 22.6277C3.37197 23.131 7.39811 23.6343 11.9994 23.6343C16.6008 23.6343 20.6269 23.131 21.202 22.6277C21.7773 22.1244 22.3524 18.6016 22.3524 14.5755C22.3524 13.6785 22.3238 12.8064 22.273 11.9872M1.72578 11.9872C1.90277 9.12944 2.34979 6.9143 2.79681 6.52317C3.37197 6.0199 8.11707 5.63727 8.11707 5.63727M22.273 11.9872C22.0961 9.12944 21.649 6.9143 21.202 6.52317C20.6269 6.0199 15.8818 5.63727 15.8818 5.63727M8.11707 5.63727C9.30951 5.56128 10.629 5.51663 11.9994 5.51663C13.3699 5.51663 14.6894 5.56128 15.8818 5.63727M8.11707 5.63727V4.22251C8.11707 1.9254 10.2359 1.63428 11.9994 1.63428C13.7629 1.63428 15.8818 1.9254 15.8818 4.22251V5.63727" stroke="black" stroke-width="2" stroke-linecap="round" stroke-linejoin="round"/>
</svg>
