<svg width="48" height="53" viewBox="0 0 48 53" fill="none" xmlns="http://www.w3.org/2000/svg">
<path d="M29.3083 12.1271H35.9682L35.9688 19.8971L39.3452 14.6546V10.2601C39.3452 9.99167 39.2384 9.73427 39.0486 9.5436L30.4359 0.931289C30.2461 0.741613 29.9885 0.634766 29.7196 0.634766H3.08993C1.4143 0.634766 0.0507812 1.99766 0.0507812 3.67342V49.5961C0.0507812 51.2718 1.41417 52.6348 3.08993 52.6348H36.3059C37.9814 52.6348 39.3448 51.2718 39.3448 49.5961V36.5581L35.9693 41.7236L35.9698 49.2579H3.42756V4.01155H28.054V10.8727C28.054 11.5659 28.6155 12.1271 29.3083 12.1271Z" fill="#ED2169"/>
<path d="M43.1166 24.7931L41.7212 23.8814C41.4933 23.7327 41.1884 23.7965 41.0395 24.0243L33.5257 35.522L32.0808 34.5779L39.5946 23.0801C39.7435 22.8522 39.6797 22.5472 39.4518 22.3984L38.0564 21.4866C37.8286 21.3377 37.5234 21.4016 37.3747 21.6294L26.1242 38.8455C26.0765 38.9187 26.0491 39.0033 26.0446 39.0905L25.7506 45.0653C25.742 45.2398 25.8266 45.4063 25.9731 45.5015C26.1195 45.5972 26.3059 45.608 26.462 45.5301L31.8159 42.8617C31.8944 42.8229 31.9608 42.7635 32.0088 42.6902L43.259 25.4742C43.4083 25.2472 43.3442 24.9421 43.1166 24.7931Z" fill="#ED2169"/>
<path d="M47.7247 17.7385L42.6648 14.4318C42.4372 14.2831 42.1319 14.347 41.9831 14.5747L38.5705 19.7968C38.4218 20.0246 38.4856 20.33 38.7134 20.4788L43.7733 23.7852C44.0009 23.934 44.3063 23.8702 44.455 23.6424L47.8675 18.4203C48.0165 18.1925 47.9525 17.8873 47.7247 17.7385Z" fill="#ED2169"/>
<path d="M8.34552 11.4635H18.0027C18.6865 11.4635 19.2408 10.9091 19.2408 10.2254C19.2408 9.54172 18.6865 8.9873 18.0027 8.9873H8.34552C7.66172 8.9873 7.10742 9.54172 7.10742 10.2254C7.10742 10.9091 7.66196 11.4635 8.34552 11.4635Z" fill="#ED2169"/>
<path d="M26.6693 16.4158C26.6693 15.7322 26.1148 15.1777 25.4312 15.1777H8.34552C7.66172 15.1777 7.10742 15.7322 7.10742 16.4158C7.10742 17.0995 7.66172 17.6539 8.34552 17.6539H25.4312C26.115 17.6539 26.6693 17.0995 26.6693 16.4158Z" fill="#ED2169"/>
<path d="M8.34552 23.8444H18.0027C18.6865 23.8444 19.2408 23.2899 19.2408 22.6063C19.2408 21.9226 18.6865 21.3682 18.0027 21.3682H8.34552C7.66172 21.3682 7.10742 21.9226 7.10742 22.6063C7.10742 23.2899 7.66196 23.8444 8.34552 23.8444Z" fill="#ED2169"/>
<path d="M8.34552 30.0348H18.0027C18.6865 30.0348 19.2408 29.4804 19.2408 28.7967C19.2408 28.1131 18.6865 27.5586 18.0027 27.5586H8.34552C7.66172 27.5586 7.10742 28.1131 7.10742 28.7967C7.10742 29.4804 7.66196 30.0348 8.34552 30.0348Z" fill="#ED2169"/>
<path d="M8.87016 46.0351C8.62911 46.3466 9.06393 46.7881 9.30795 46.4725C10.0772 45.4788 10.7124 44.4084 11.243 43.2788C11.574 43.4867 12.0087 43.4451 12.3653 43.3042C12.8792 43.1015 13.3149 42.7104 13.7298 42.3564C13.9751 42.1472 14.2606 41.8016 14.6001 41.7686C14.8593 41.7437 15.2095 41.9524 15.4686 41.9969C16.1457 42.1123 16.9366 41.9163 17.5903 41.7547C18.2107 41.6016 18.9372 41.3593 19.3024 40.7975C19.5206 40.4618 18.9844 40.1518 18.7679 40.4854C18.4756 40.9351 17.7618 41.0752 17.2794 41.1944C16.7132 41.3344 16.0563 41.4724 15.4728 41.3729C15.033 41.2981 14.6773 41.0322 14.2252 41.2336C13.6195 41.5035 13.1568 42.0707 12.622 42.4536C12.3826 42.625 12.1091 42.7896 11.8098 42.8128C11.6866 42.8223 11.5862 42.7771 11.5027 42.7019C11.5686 42.5491 11.634 42.3956 11.6962 42.2407C12.2999 40.7421 12.5729 39.2202 12.8531 37.6416C12.9955 36.8395 13.2323 35.5755 12.0826 35.4984C11.0668 35.4305 10.1889 36.8958 9.86423 37.668C9.5739 38.3586 9.54158 39.1609 9.56374 39.8983C9.57749 40.3579 9.7429 40.8351 9.86485 41.3102C8.88997 41.4666 8.03073 42.4513 8.18129 43.4274C8.32949 44.3879 9.53056 43.8919 9.97913 43.5365C10.4331 43.1768 10.5801 42.7275 10.5849 42.2429C10.6754 42.3921 10.7511 42.571 10.8293 42.7384C10.3062 43.9117 9.65041 45.027 8.87016 46.0351ZM9.95523 42.5311C9.86361 42.9394 9.34695 43.3426 8.94012 43.3802C8.62007 43.4099 8.81532 42.8383 8.87858 42.7105C9.07717 42.3091 9.56919 42.0472 9.98284 41.9342C10.0022 42.1357 9.99906 42.3353 9.95523 42.5311ZM10.4723 41.3325C10.3669 40.8403 10.2207 40.3459 10.1828 39.8984C10.1095 39.0349 10.2629 38.1299 10.6912 37.3747C10.9587 36.9027 11.5041 36.1794 12.0826 36.1175C12.5993 36.0626 12.2842 37.3191 12.2395 37.5716C12.1012 38.3508 12.0025 39.1243 11.8098 39.8946C11.6307 40.61 11.4039 41.3184 11.1327 42.0111C10.9884 41.6522 10.8006 41.4224 10.4723 41.3325Z" fill="#ED2169"/>
</svg>
