<svg width="42" height="42" viewBox="0 0 42 42" fill="none" xmlns="http://www.w3.org/2000/svg">
<g clip-path="url(#clip0_2773_3875)">
<path d="M35.8141 6.10346C31.8833 2.16988 26.6564 0.00239997 21.0875 0C9.61192 0 0.273131 9.33581 0.268536 20.8108C0.267199 24.4789 1.22561 28.0594 3.04729 31.2156L0.09375 42L11.1301 39.1061C14.1708 40.7644 17.5945 41.6383 21.0785 41.6397H21.0874H21.0875C32.5612 41.6397 41.9014 32.3022 41.9062 20.8277C41.9082 15.2664 39.7445 10.0373 35.8141 6.10346ZM21.0875 38.1246H21.0807C17.9752 38.123 14.9299 37.2892 12.2736 35.713L11.6414 35.3383L5.09223 37.0554L6.84078 30.6723L6.42891 30.0179C4.69665 27.2636 3.78216 24.0806 3.78346 20.8122C3.78727 11.2745 11.5493 3.51517 21.094 3.51517C25.7161 3.51709 30.0603 5.31871 33.3275 8.58818C36.5945 11.8576 38.3924 16.2039 38.391 20.8262C38.387 30.3642 30.6246 38.1246 21.0875 38.1246Z" fill="#E0E0E0"/>
<path d="M1.04883 40.8032L3.86745 30.5115C2.12854 27.4995 1.21408 24.0822 1.21518 20.5824C1.21974 9.63175 10.132 0.722656 21.0824 0.722656C26.3972 0.725056 31.3854 2.79342 35.1359 6.54741C38.8872 10.3014 40.9518 15.2912 40.9496 20.5979C40.9451 31.5488 32.0322 40.4587 21.0832 40.4587C21.0824 40.4587 21.0838 40.4587 21.0832 40.4587H21.0744C17.7495 40.4577 14.4825 39.623 11.5808 38.0416L1.04883 40.8032Z" fill="url(#paint0_linear_2773_3875)"/>
<path fill-rule="evenodd" clip-rule="evenodd" d="M15.9426 11.9757C15.5574 11.1194 15.1519 11.1023 14.7854 11.0873C14.4857 11.0744 14.1426 11.0752 13.8 11.0752C13.4572 11.0752 12.9 11.204 12.4289 11.7186C11.9575 12.2332 10.6289 13.4771 10.6289 16.0069C10.6289 18.5371 12.4717 20.9818 12.7286 21.3252C12.9857 21.668 16.286 27.0256 21.5126 29.0868C25.8564 30.7997 26.7403 30.459 27.6832 30.3733C28.626 30.2875 30.7254 29.1296 31.154 27.9288C31.5826 26.7283 31.5826 25.6992 31.454 25.4841C31.3254 25.2698 30.9826 25.1412 30.4683 24.8841C29.954 24.627 27.426 23.3828 26.9546 23.2114C26.4832 23.0399 26.1403 22.9542 25.7975 23.4691C25.4546 23.9833 24.4697 25.1412 24.1697 25.4841C23.8697 25.8277 23.5697 25.8706 23.0554 25.6135C22.5412 25.3555 20.885 24.8131 18.9203 23.0613C17.3917 21.6985 16.3596 20.0153 16.0596 19.5005C15.7596 18.9862 16.0275 18.7077 16.2854 18.4513C16.5163 18.2209 16.7997 17.851 17.0568 17.5508C17.3134 17.2505 17.3991 17.0362 17.5706 16.6934C17.742 16.35 17.6563 16.0497 17.5277 15.7926C17.3991 15.5354 16.3998 12.9925 15.9426 11.9757Z" fill="white"/>
<path d="M35.6443 6.03732C31.7586 2.1489 26.5917 0.0063405 21.0868 0.00390625C9.74289 0.00390625 0.511308 9.23254 0.506748 20.5759C0.505411 24.2018 1.45282 27.7412 3.25358 30.8612L0.333984 41.5218L11.2437 38.6611C14.2495 40.3003 17.6339 41.1642 21.0779 41.1655H21.0867H21.0868C32.4287 41.1655 41.6616 31.9352 41.6665 20.5924C41.6684 15.095 39.5295 9.92603 35.6443 6.03732ZM21.0868 37.6909H21.0801C18.0102 37.6893 14.9998 36.8651 12.374 35.307L11.7491 34.9366L5.27507 36.634L7.00353 30.3242L6.59639 29.6773C4.88402 26.9546 3.98002 23.8081 3.98135 20.5772C3.98509 11.1491 11.658 3.47879 21.0932 3.47879C25.6623 3.48067 29.9565 5.26162 33.1863 8.49356C36.4158 11.7255 38.193 16.0218 38.1916 20.5912C38.1876 30.0196 30.5144 37.6909 21.0868 37.6909Z" fill="white"/>
</g>
<defs>
<linearGradient id="paint0_linear_2773_3875" x1="20.9992" y1="40.8032" x2="20.9992" y2="0.722723" gradientUnits="userSpaceOnUse">
<stop stop-color="#20B038"/>
<stop offset="1" stop-color="#60D66A"/>
</linearGradient>
<clipPath id="clip0_2773_3875">
<rect width="42" height="42" fill="white"/>
</clipPath>
</defs>
</svg>
