<?xml version="1.0" encoding="UTF-8"?><svg id="Layer_1" xmlns="http://www.w3.org/2000/svg" viewBox="0 0 77.55 43.39"><path d="m23.04,37.03c-1.34-8.26-4.65-12.25-10.47-12.78-5.66-.52-9.81,3.03-12.37,10.58C-1.2,25.24,4.82,15.97,13.84,13.43c2.15-.61,4.38-1.69,6.03-3.17C28.7,2.36,39.01-.74,50.68.15c6.11.47,12.22.94,17.69,1.36,1.3,4.38,2.35,7.95,3.4,11.5-1.47.53-2.77.99-4.07,1.46.63,1.65.79,4.13,1.97,4.79,5.53,3.09,5.27,8.77,7.87,14.68-2.61-3.33-3.94-6.1-6.13-7.51-2.19-1.41-5.33-2.19-7.93-1.94-5.61.54-8.62,4.97-9.26,12.53h-31.19ZM58.72,12.41c.43-.48.86-.95,1.28-1.43-2.62-2.92-4.88-7.75-7.95-8.34-5.66-1.1-12.18-.86-17.64.94-7.27,2.39-9.21,3.85-6.89,11.38,10.38-.85,20.79-1.7,31.21-2.55Z"/><path d="m73.68,35.16c-.04,4.87-3.72,8.36-8.7,8.23-4.7-.12-8.19-3.66-8.14-8.25.06-4.82,3.79-8.35,8.69-8.24,4.66.11,8.18,3.68,8.14,8.26Z"/><path d="m19.89,35.28c-.07,4.81-3.41,8.09-8.25,8.09-5,0-8.4-3.57-8.21-8.63.18-4.75,3.66-7.97,8.5-7.86,4.76.11,8.02,3.55,7.96,8.39Z"/></svg>