<?xml version="1.0" encoding="UTF-8"?><svg id="Layer_1" xmlns="http://www.w3.org/2000/svg" viewBox="0 0 92.57 51.8"><path d="m27.5,44.21c-1.6-9.86-5.55-14.62-12.49-15.26-6.75-.62-11.71,3.62-14.77,12.63-1.67-11.45,5.51-22.51,16.28-25.54,2.56-.72,5.23-2.02,7.2-3.78C34.26,2.81,46.57-.88,60.51.18c7.29.56,14.59,1.12,21.12,1.63,1.55,5.23,2.81,9.49,4.06,13.73-1.75.63-3.31,1.19-4.86,1.74.75,1.96.94,4.93,2.35,5.72,6.6,3.69,6.29,10.47,9.39,17.53-3.12-3.97-4.7-7.28-7.32-8.96-2.62-1.68-6.36-2.61-9.47-2.31-6.7.64-10.29,5.93-11.05,14.96H27.5Zm42.6-29.4c.51-.57,1.02-1.14,1.53-1.71-3.13-3.48-5.82-9.25-9.49-9.96-6.75-1.31-14.54-1.02-21.06,1.12-8.68,2.85-10.99,4.59-8.23,13.59,12.4-1.01,24.82-2.03,37.25-3.04Z"/><path d="m87.96,41.97c-.05,5.82-4.45,9.97-10.38,9.82-5.61-.15-9.78-4.37-9.71-9.85.07-5.75,4.52-9.97,10.37-9.84,5.56.13,9.77,4.4,9.72,9.87Z"/><path d="m23.75,42.11c-.08,5.75-4.07,9.66-9.85,9.66-5.97,0-10.02-4.26-9.8-10.3.21-5.67,4.37-9.51,10.15-9.38,5.69.13,9.58,4.24,9.5,10.02Z"/></svg>