<?xml version="1.0" encoding="UTF-8"?><svg id="Layer_1" xmlns="http://www.w3.org/2000/svg" viewBox="0 0 134.87 40.96"><defs><style>.cls-1{fill:#fff;}</style></defs><path d="m132.55,16.94c.78,3.23,1.84,6.43,2.26,9.71.48,3.75-1.77,5.29-5.37,5.53-2.47.16-4.92.76-7.37,1.16-2.05-10.33-6.06-14.71-13.27-14.56-7.48.16-11.08,4.74-12.67,16.36h-60.19c-1.86-11.88-5.52-16.44-13.02-16.37-7.51.07-11.37,4.86-12.81,15.9-10.86.46-11.66-.55-8.53-10.81q7.2-.93,9.78-5.14h-5.4c-.09-.51-.18-1.03-.26-1.54,7.88-1.49,15.71-3.5,23.66-4.31,8.01-.82,15.55-1.97,22.62-6.39,13.85-8.67,29.15-7.03,44.16-4.35,7.62,1.36,14.92,4.51,22.38,6.77,2.35.71,4.78,1.66,7.17,1.64,3.71-.03,5.55,1.33,5.58,5.04-2.64-.77-5.27-1.55-7.91-2.32-.18.57-.35,1.13-.53,1.7,1.79,1.05,3.47,2.48,5.4,3.01,1.25.34,2.86-.66,4.3-1.05Zm-51.56-7.72c1.86,2.89,17.12,2.75,25.14-.33-7.86-3.44-15.32-5.39-23.51-6.29-8.56-.94-16.39-.24-24.29,2.71-3.44,1.28-5.21,3.23-4.32,7,10.46,1.23,24.61-.3,26.98-3.08Z"/><path d="m23.18,40.96c-5.67.06-9.79-3.87-9.94-9.49-.16-5.78,4.11-10.11,9.92-10.06,5.55.05,9.73,4.24,9.76,9.78.03,5.53-4.12,9.7-9.73,9.76Z"/><path d="m109.08,40.96c-5.64,0-9.76-4.05-9.82-9.64-.07-5.79,4.22-10,10.06-9.89,5.59.11,9.69,4.32,9.65,9.88-.05,5.48-4.33,9.65-9.89,9.65Z"/><path class="cls-1" d="m132.55,16.94c-1.45.4-3.06,1.39-4.3,1.05-1.93-.52-3.61-1.96-5.4-3.01.18-.57.35-1.13.53-1.7,2.64.77,5.27,1.55,7.91,2.32.42.45.84.89,1.26,1.34Z"/></svg>