<?xml version="1.0" encoding="UTF-8"?><svg id="Layer_1" xmlns="http://www.w3.org/2000/svg" viewBox="0 0 129.59 43.35"><defs><style>.cls-1{fill:#fff;}</style></defs><path d="m4.06,20.19c6.22-2.01,12.35-5.24,18.69-5.74,10.28-.81,19.33-3.92,27.91-9.31C56.74,1.32,63.58-.24,70.71.03c15.43.58,30.85,1.34,46.27,2.03-.35.78-.71,1.56-1.06,2.34,3.52,3.3,7.03,6.6,10.77,10.11-3-.34-5.5-.62-7.99-.91-.15.4-.31.81-.46,1.21,1.94,1.71,3.67,3.77,5.86,5.05,4.53,2.63,6.71,7.18,4.79,11.8-.46,1.12-1.99,2.15-3.24,2.52-2.85.85-5.84,1.27-7.73,1.65-2.45-4.1-4.16-8.21-7.02-11.24-1.63-1.72-5.17-2.35-7.81-2.26-6.59.21-10.33,5.44-11.22,15.04h-55.91c-2.51-4.61-4.34-9.13-7.25-12.78-1.34-1.68-4.8-2.3-7.3-2.3-6.76,0-10.3,4.6-11.91,14.85-2.75-.41-5.51-.81-9.51-1.41,1.15-5.12,2.23-9.94,3.32-14.76.36,1.06.57,2.94,1.11,3.04,3.45.65,5.84-.99,7.98-4.9-3.33.43-5.84.76-8.34,1.08ZM93.56,5.15c.48,3.1.74,4.81,1.03,6.67,2.32-.25,4.34-.25,6.24-.74,1.57-.4,3-1.38,4.49-2.1-.94-1.45-1.6-3.26-2.89-4.25-1.35-1.04-3.26-1.58-5-1.85-3.59-.54-7.22-.81-10.84-1.09q-10.74-.81-10.38,10.01c0,.28.31.55.75,1.28,5.14-.41,10.5-.83,15.88-1.26.23-2.16.4-3.74.72-6.69Zm-19.57-3.22c-8.06-.36-15.05.75-21.75,4.3-3.47,1.84-5.04,4-3.96,8.38,6.66-.32,13.42-.57,20.16-1.04.9-.06,2.19-1.04,2.51-1.89,1.15-3.04,1.97-6.21,3.03-9.75Z"/><path d="m113.23,34.64c-.12,5.26-4.12,8.92-9.5,8.7-4.94-.2-8.72-4.25-8.56-9.19.15-4.95,4.11-8.81,9.06-8.83,5.16-.02,9.13,4.08,9,9.32Z"/><path d="m31.1,34.47c-.05,4.89-4.01,8.81-8.96,8.87-5.37.06-9.18-3.71-9.13-9.04.05-5.06,3.8-8.86,8.82-8.95,5.11-.09,9.32,4.06,9.27,9.12Z"/><path class="cls-1" d="m4.06,20.19c2.51-.33,5.01-.65,8.34-1.08-2.13,3.91-4.53,5.55-7.98,4.9-.54-.1-.75-1.98-1.11-3.04.25-.26.5-.52.75-.78Z"/></svg>