<?xml version="1.0" encoding="UTF-8"?><svg id="Layer_1" xmlns="http://www.w3.org/2000/svg" viewBox="0 0 130 39.92"><defs><style>.cls-1{fill:#fff;}</style></defs><path d="m2.88,18.5c5.03-1.58,10.05-3.2,15.1-4.7,1.16-.35,2.44-.42,3.67-.4,11.54.22,21.79-3.25,31.65-9.29,4.06-2.49,9.63-2.9,14.6-3.47,18-2.06,35.26,1,51.75,8.45.84.38,1.68.87,2.57,1.02,3.9.66,5.34,2.65,4.7,6.72-.24,1.52,1.02,3.42,1.91,4.96,2.59,4.44.78,9.05-4.15,10.11-2.7.58-5.43,1.01-6.99,1.29-2.58-4.44-4.42-8.72-7.29-12.11-1.39-1.64-4.74-2.29-7.19-2.25-6.77.1-10.13,4.79-11.79,15.69h-59.4c-2.59-11.91-6.18-16.24-13.07-15.85-6.94.4-10.6,5.07-11.74,14.99-.25.09-.53.29-.77.27C-.11,33.19-.29,33.17.14,26.92c.18-2.59,1.32-5.12,2.02-7.68.34.97.68,1.93,1.01,2.9,2.4-.9,4.8-1.8,7.2-2.69-.2-.62-.4-1.24-.6-1.86-2.3.3-4.59.61-6.89.91ZM71.65,2.14c-8.13-.51-15.94,1.36-22.07,5.65-1.31.91-1.85,2.92-3.08,4.99,5.24,0,9.35.06,13.46-.01q9.88-.17,11.9-9.91c.03-.13-.08-.29-.21-.71Zm20.81.3c-5.8-.27-11.53-.53-17.65-.81-.26,3.94-.48,7.2-.7,10.44,4.16,0,7.66.11,11.16-.02,8.14-.31,7.43,1.29,7.62-7.85,0-.29-.14-.59-.43-1.77Zm1.18-.27v9.32c4.54,1.18,6.57-1.45,8.79-5.2-2.83-1.33-5.35-2.51-8.79-4.13Zm26.14,10.24c-.18.43-.35.86-.53,1.3,2,1.64,4,3.28,7.12,5.83-.28-3.14-.43-4.83-.6-6.75-2.23-.14-4.11-.25-5.99-.37Z"/><path d="m19.4,39.92c-5.2,0-9.11-3.82-9.16-8.93-.05-5.34,3.97-9.27,9.38-9.17,5.14.1,9.09,4.11,9.01,9.15-.08,5.09-4.07,8.95-9.22,8.95Z"/><path d="m103.84,39.9c-5.25.01-9.16-3.77-9.23-8.91-.07-5.08,3.85-9.07,8.99-9.16,5.44-.09,9.5,3.85,9.42,9.15-.07,5.16-3.93,8.91-9.19,8.92Z"/><path class="cls-1" d="m2.88,18.5c2.3-.3,4.59-.61,6.89-.91.2.62.4,1.24.6,1.86-2.4.9-4.8,1.8-7.2,2.69-.34-.97-.68-1.93-1.01-2.9.24-.25.48-.49.72-.74Z"/><path class="cls-1" d="m119.79,12.41c1.88.12,3.76.23,5.99.37.17,1.92.32,3.61.6,6.75-3.11-2.55-5.11-4.19-7.12-5.83.18-.43.35-.86.53-1.3Z"/></svg>