<?xml version="1.0" encoding="UTF-8"?><svg id="Layer_1" xmlns="http://www.w3.org/2000/svg" viewBox="0 0 130 47.33"><defs><style>.cls-1{fill:#fff;}</style></defs><path d="m1.82,22.12c1.64-1.29,3.12-3.37,4.96-3.75,8.57-1.79,17.23-3.1,25.86-4.6,1.73-.3,3.83-.2,5.09-1.16C58.91-3.69,82.12-1.77,105.84,4.91c6.57,1.85,13.05,4.03,19.53,6.18.7.23,1.15,1.22,1.85,2.01-3.08-.34-5.63-.62-8.7-.96,3.71,6.11,6.39,7.6,8.42,5.55,2.98,5.35,4.76,11.52.7,16.6-2.09,2.61-7.05,2.93-9.55,3.85-2.8-4.5-4.6-8.55-7.48-11.56-1.69-1.76-5.09-2.5-7.76-2.57-6.87-.19-10.71,4.46-13.13,15.31h-56.02c-.2-4.62-1.03-9.58-5.6-12.42-2.3-1.43-5.19-2.6-7.84-2.64-7.27-.11-11.4,5.09-12.91,15.46-1.73-.45-3.52-.71-5.12-1.4-.94-.4-2.3-1.57-2.23-2.26.47-4.75,1.27-9.48,1.96-14.21.43,1.13.72,3.16,1.3,3.24,3.76.54,6.28-1.34,7.89-4.48-.18-.46-.35-.91-.53-1.37-2.94.96-5.87,1.92-8.81,2.89Zm46.56-7.33c5.98-.44,12-.82,18.01-1.39.81-.08,1.95-.91,2.23-1.67,1.11-2.94,1.94-5.99,2.96-9.27-7.81-.55-14.14,1.44-20.15,5.05-2.82,1.69-4.03,3.67-3.05,7.28Zm47.52-3.12c-3.31-8.32-10.93-11.38-21.19-8.84-.24,3.23-.49,6.54-.76,10.08,7.71-.44,14.63-.83,21.95-1.25Zm7.93-2.92c-.06-.49-.12-.99-.18-1.48-2.91-.91-5.81-1.82-8.72-2.73-.25.33-.49.65-.74.98,1.54,1.97,2.79,4.39,4.77,5.69.76.5,3.2-1.57,4.87-2.47Z"/><path d="m20.5,47.33c-5.73-.03-10.24-4.62-10.07-10.26.16-5.41,4.75-9.84,10.16-9.81,5.46.03,9.99,4.5,10.06,9.9.07,5.76-4.35,10.2-10.15,10.17Z"/><path d="m103.33,47.31c-5.86.02-10.19-4.3-10.12-10.12.06-5.48,4.5-9.91,9.95-9.91,5.66,0,10.24,4.58,10.18,10.2-.06,5.49-4.46,9.82-10.01,9.84Z"/><path class="cls-1" d="m1.82,22.12c2.94-.96,5.87-1.92,8.81-2.89.18.46.35.91.53,1.37-1.61,3.13-4.14,5.02-7.89,4.48-.58-.08-.87-2.11-1.3-3.24,0,0-.14.28-.14.28Z"/></svg>