<?xml version="1.0" encoding="UTF-8"?><svg id="Layer_1" xmlns="http://www.w3.org/2000/svg" viewBox="0 0 130 48.39"><defs><style>.cls-1{fill:#fff;}</style></defs><path d="m127.35,16.26c.89,5.18,2.02,10.33,2.6,15.54.42,3.81-1.95,5.82-5.63,6.36-3.55.52-7.11,1.05-9.71,1.44-2.13-4.61-3.34-9.56-6.36-12.87-1.77-1.94-6.43-1.71-9.77-1.67-7.57.1-10.7,4.11-11.74,14.48h-51.99c-1.37-11.47-3.67-14.52-10.97-14.62-10.69-.15-14,2.61-15.48,12.91-7.31.94-9.39-1.93-7.8-10.8.02-.14.07-.27.1-.4,2.15-9.81,2.13-9.97,12.5-11.25,6.18-.76,12.43-.85,18.64-1.39,1.57-.14,3.59-.36,4.54-1.36C45.45,2.99,56.9-.25,69.78.02c16.61.35,33.23.54,49.84.83.81.01,1.61.26,1.68.27-.48,6.4,3.29,10.69,6.18,15.3-3.82-.87-4.48.4-3.89,7.85,1.29-.15,2.57-.29,4.25-.48-.18-2.7-.34-5.11-.5-7.53Zm-35.07-1.56c-.71-4.66-1.34-8.82-1.95-12.8-5.9,0-11.27-.11-16.62.1-.99.04-2.62,1.23-2.76,2.08-.58,3.61-.72,7.3-1.01,10.85h16.75c.19-1.93.33-3.29.5-5.03.23,1.86.42,3.32.6,4.81h4.48Zm-48.08.97c6.19,0,12.37.05,18.55-.08.63-.01,1.6-1.08,1.78-1.81.88-3.6,1.54-7.25,2.54-12.15-5.79,1.1-11.02,1.56-15.86,3.16-4.88,1.61-8.15,5.12-7,10.88ZM93.99,1.67c1.34,4.09,2.39,7.63,3.7,11.07.31.82,1.43,1.87,2.19,1.88,3.15.05,6.37.05,9.45-.51,4.17-.76,4.49-1.99,3.36-6.1-1.24-4.51-3.73-6.75-8.56-6.39-3.14.24-6.31.04-10.14.04ZM11.94,19.25c-7.74-1.5-9.24-.67-9.08,5.05,6.59.24,7.33-.17,9.08-5.05Z"/><path d="m100.29,48.39c-5.78.1-10.15-4.06-10.23-9.75-.07-5.56,3.97-9.83,9.5-10.01,6-.2,10.52,4.06,10.5,9.9-.02,5.4-4.35,9.76-9.77,9.86Z"/><path d="m21.29,48.38c-5.7-.09-9.86-4.47-9.71-10.2.14-5.48,4.44-9.66,9.91-9.64,5.65.03,10.01,4.42,9.97,10.04-.04,5.62-4.47,9.89-10.17,9.8Z"/><path class="cls-1" d="m11.94,19.25c-1.75,4.87-2.49,5.29-9.08,5.05-.16-5.71,1.34-6.55,9.08-5.05Z"/><path class="cls-1" d="m127.35,16.26c.16,2.41.32,4.83.5,7.53-1.68.19-2.96.33-4.25.48-.59-7.45.07-8.72,3.89-7.85,0,0-.14-.16-.14-.16Z"/></svg>