<?xml version="1.0" encoding="UTF-8"?><svg id="Layer_1" xmlns="http://www.w3.org/2000/svg" viewBox="0 0 130 47.28"><path d="m125.83,13.51c-1.81,1.35-3.28,2.45-4.74,3.54,2.46.65,4.92,1.31,7.99,2.13.25,4.02.55,9.21.91,14.39.24,3.45-1.79,4.94-4.77,5.31-5.46.68-10.95,1.14-17.13,1.77.52-5.48-.33-10.57-5.28-13.44-2.19-1.27-5.04-2.03-7.57-1.97-6.95.16-10.34,4.85-11.42,15.11h-50.59c-1.65-10.95-5.02-15.15-12.11-15.27-7.18-.12-11.2,4.19-12.76,13.68C1.33,39.33-.28,37.89.04,31.24c.06-1.21.22-2.41.28-3.62.17-3.31,1.57-5.12,5.21-4.98,2.11.08,4.75.46,5.38-3.2-2.31-.19-4.49-.37-6.67-.55-.07-.42-.14-.83-.2-1.25,5.47-1,10.92-2.11,16.41-2.95,3.18-.49,6.44-.46,9.65-.81,1.14-.13,2.57-.36,3.29-1.11C42.26,3.5,53.23.38,65.82.28c18.96-.14,37.9-.96,56.86,1.05-2.84,5.5,3.8,8.35,3.15,12.18ZM90.03,2.13q2.61,12.58,14.71,12.34c1.21-.02,2.57.27,3.6-.18,2.15-.92,5.32-1.81,5.92-3.48,1.13-3.16-2.88-8.51-5.93-8.62-6.02-.22-12.06-.07-18.3-.07Zm-6.38,4.39v8.2c1.61-.09,2.84-.16,4.39-.24-.73-4.51-1.38-8.55-2.03-12.57-4.63,0-8.78-.01-12.93,0-.94,0-1.95-.09-2.8.21-1.1.39-2.86,1.01-2.98,1.75-.6,3.64-.74,7.35-1.07,11.35,3.11,0,5.77.07,8.42-.01q8.35-.25,9.01-8.7Zm-20.34-3.59c-12.93-1.19-24.44,3.93-21.9,12.61,5.81,0,11.57.1,17.31-.11.85-.03,2.11-1.43,2.39-2.41.91-3.21,1.45-6.52,2.2-10.09Z"/><path d="m20.7,28.07c5.55-.06,9.75,4,9.81,9.48.06,5.5-4.07,9.7-9.57,9.73-5.56.02-9.78-4.03-9.88-9.49-.1-5.43,4.09-9.66,9.63-9.72Z"/><path d="m96.26,28.02c5.53.05,9.61,4.26,9.54,9.84-.07,5.54-4.26,9.52-9.9,9.4-5.28-.11-9.49-4.37-9.46-9.56.02-5.42,4.39-9.73,9.83-9.68Z"/></svg>