<?xml version="1.0" encoding="UTF-8"?><svg id="Layer_1" xmlns="http://www.w3.org/2000/svg" viewBox="0 0 130 47.67"><defs><style>.cls-1{fill:#fff;}</style></defs><path d="m1.5,28.8c.09-4.19,2.27-6.75,6.17-8.03.83-.27,1.59-.79,2.44-.99,9.06-2.16,17.13-6.36,24.44-12.03C42.65,1.46,52.02-.08,61.89,0c19.11.17,38.21.37,57.32.49,3.88.02,6.28,1.82,6.97,5.51,1.02,5.42,1.8,10.88,2.56,16.34.53,3.82.92,7.66,1.23,11.5.19,2.4-.74,4.17-3.43,4.45-3.62.37-7.24.7-9.75.95-2.49-3.68-4.19-7.14-6.79-9.69-1.45-1.42-4.39-1.83-6.65-1.79-5.7.09-8.69,4-10.38,13.1H29.78c-.05-3.9-.82-8.05-4.71-10.41-1.94-1.18-4.41-2.06-6.65-2.08-6.06-.06-9.68,4.47-10.69,12.64-.2.13-.41.36-.61.35-5.77-.1-8.27-3.53-6.62-9.06.36-1.19.72-2.38,1.09-3.58,3.65,1.18,6.77-1.03,8.75-6.38-4.37.4-6.8,3.17-8.84,6.46Zm86.98-14.15c-.33-5.09-.59-9.15-.83-12.83h-26.04v12.83h26.87Zm5.03-1.05h29.78c-.82-5.86-3.84-10.55-7.71-10.97-7.57-.81-15.19-1.08-23.34-1.61.47,4.7.87,8.63,1.27,12.57ZM56.9,2.29c-8.66-1.16-14.97,2.74-21.28,6.99-3.08,2.07-4.32,4.22-2.35,7.92,7.46-.51,15.01-1.02,22.8-1.55.29-4.62.55-8.83.83-13.37Zm70.68,24.81c.79-7.38.14-9.54-3.22-10.36v10.36h3.22Z"/><path d="m18.81,47.67c-4.89-.02-8.69-3.86-8.55-8.63.14-4.59,3.98-8.32,8.57-8.31,4.75,0,8.65,3.97,8.55,8.7-.1,4.63-3.87,8.26-8.56,8.24Z"/><path d="m104.29,47.65c-4.79,0-8.41-3.49-8.51-8.21-.1-4.77,3.76-8.72,8.51-8.7,4.6.02,8.43,3.74,8.54,8.3.12,4.77-3.68,8.6-8.53,8.61Z"/><path class="cls-1" d="m127.58,27.1h-3.22v-10.36c3.36.82,4.01,2.98,3.22,10.36Z"/><path class="cls-1" d="m1.5,28.8c2.05-3.3,4.47-6.06,8.84-6.46-1.98,5.35-5.1,7.56-8.75,6.38,0,0-.09.08-.09.08Z"/></svg>