<?xml version="1.0" encoding="UTF-8"?><svg id="Layer_1" xmlns="http://www.w3.org/2000/svg" viewBox="0 0 132 48.93"><defs><style>.cls-1{fill:#fff;}</style></defs><path d="m130.93,14.04c-.26,4.14-.71,7.86-.66,11.57.03,2.04.71,4.14,1.41,6.09.89,2.49-.12,4.56-2.82,4.9-4.26.53-8.53.95-13.08,1.44-.54-4.79-2.08-9.18-6.31-11.6-2.45-1.4-5.53-2.38-8.33-2.37-7.24.02-11.69,5.21-13.33,14.74h-50.35c-3.07-10.97-7.41-15.27-14.96-14.87-6.99.38-11.65,5.23-13.29,14.03-1.42-.2-2.84-.39-4.27-.62-3.88-.62-5.64-3.42-4.69-7.24.73-2.93,1.63-5.86,1.89-8.84.35-3.92,2.27-5.76,6.05-6.11,6.83-.62,13.65-1.56,20.5-1.89,3.82-.19,6.89-1.43,10-3.52C44.69,5.69,50.67,1.3,58.17.48c4.53-.5,9.15-.59,13.7-.35,1.11.06,2.75,1.98,3.06,3.3.82,3.5,1.05,7.15,1.49,10.62h54.52Zm-84.56,2.94c1.39.16,2.06.36,2.7.28,5.84-.68,11.68-1.37,17.49-2.21.65-.09,1.62-1.15,1.64-1.79.16-3.7.08-7.41.08-11.44-3.41.27-6.9-.18-9.74.96-4.15,1.67-8.18,4.1-11.55,7.02-1.23,1.07-.46,4.46-.62,7.18Zm-34.2,2.22c-7.77-1-8.91.17-8.22,6.04.31,2.63,2.07,2.7,3.24,1.45,1.86-1.97,3.08-4.54,4.98-7.49Zm115.95,8.47c.36-.1.73-.19,1.09-.29.14-2.31.42-4.63.34-6.93-.03-.83-.84-2.15-1.51-2.31-1.2-.29-2.82-.23-3.79.41-.6.4-.81,2.39-.36,3.2,1.17,2.11,2.8,3.96,4.24,5.92Z"/><path d="m101.82,48.9c-5.84-.02-10.25-4.36-10.33-10.15-.09-5.94,4.46-10.49,10.45-10.46,5.96.03,10.52,4.68,10.37,10.56-.14,5.68-4.72,10.07-10.48,10.04Z"/><path d="m23.29,48.92c-5.73.06-10.34-4.34-10.49-10.02-.16-5.94,4.3-10.53,10.28-10.6,5.96-.07,10.61,4.52,10.55,10.4-.06,5.74-4.54,10.16-10.34,10.23Z"/><path class="cls-1" d="m12.17,19.21c-1.9,2.95-3.12,5.52-4.98,7.49-1.17,1.25-2.93,1.18-3.24-1.45-.7-5.87.45-7.04,8.22-6.04Z"/><path class="cls-1" d="m128.12,27.68c-1.44-1.96-3.07-3.81-4.24-5.92-.45-.81-.24-2.8.36-3.2.97-.64,2.58-.69,3.79-.41.68.16,1.48,1.48,1.51,2.31.09,2.3-.2,4.62-.34,6.93-.36.1-.73.19-1.09.29Z"/></svg>