<?xml version="1.0" encoding="UTF-8"?><svg id="Layer_1" xmlns="http://www.w3.org/2000/svg" viewBox="0 0 132 33.84"><path d="m121.81,6.61c-1.93-1.24-3.01-1.93-4.25-2.73,1.93-4.48,5.68-3.97,9.98-3.73-3.35,4.29-1.96,7.55.62,11.48,2.28,3.47,3.2,8.04,3.83,12.26.2,1.3-2.25,3.59-3.98,4.43-1.72.83-4.05.41-6.16.54,1.14-10.53-3.32-17.13-11.49-17.36-8.54-.24-12.93,5.96-12.27,17.67h-61.7c.91-4.61,1-9.44-3.07-12.57-2.31-1.78-5.57-3.12-8.44-3.21-7.34-.21-11.19,5.76-10.59,15.51H0c2.19-1.34,3.16-1.93,4.33-2.64-.44-1.49-1.29-2.93-1.15-4.27.16-1.46.87-3.49,1.98-4.11,3.11-1.73,7.03-2.23,9.74-4.36,3.84-3.01,8-3.56,12.47-3.9,1.75-.13,3.71-.19,5.17-1.02C49.92-1.22,68.35-1.46,87.01,3.23c11.11,2.79,22.19,4.2,34.8,3.38Zm-45.27-3.37c-10.21-2.58-20.23-2.54-29.89,2.16-1.33.65-1.86,2.95-2.76,4.49.25.46.51.91.76,1.37,8.6-.55,17.18-1.27,25.79-1.59,4.09-.15,5.98-1.86,6.1-6.43Z"/><path d="m120.02,23.67c0,5.78-4.55,10.27-10.32,10.16-5.54-.11-9.9-4.59-9.88-10.15.01-5.78,4.62-10.31,10.33-10.17,5.6.14,9.87,4.53,9.88,10.17Z"/><path d="m25.47,15.17c5.19-.03,9.26,4.16,9.22,9.48-.04,5.06-4,9.05-9.08,9.15-5.22.1-9.42-3.99-9.46-9.22-.04-5.21,4.09-9.38,9.32-9.41Z"/></svg>